<svg width="338" height="409" viewBox="0 0 338 409" fill="none" xmlns="http://www.w3.org/2000/svg">
<rect x="1" y="44" width="336" height="364" rx="23" fill="white" stroke="url(#paint0_linear_3119_3935)" stroke-width="2"/>
<path d="M77.9388 264.3H81.6588V276H84.4588V264.3H88.1788V262.04H77.9388V264.3ZM89.5018 270.42C89.5018 273.88 91.7418 276.18 94.5418 276.18C96.3018 276.18 97.5618 275.34 98.2218 274.38V276H101.042V264.92H98.2218V266.5C97.5618 265.58 96.3418 264.74 94.5618 264.74C91.7418 264.74 89.5018 266.96 89.5018 270.42ZM98.2218 270.46C98.2218 272.56 96.8218 273.72 95.2818 273.72C93.7818 273.72 92.3618 272.52 92.3618 270.42C92.3618 268.32 93.7818 267.2 95.2818 267.2C96.8218 267.2 98.2218 268.36 98.2218 270.46ZM112.376 272.84C112.296 268.78 106.156 270.04 106.156 268.02C106.156 267.38 106.696 266.96 107.736 266.96C108.836 266.96 109.516 267.54 109.596 268.4H112.276C112.116 266.2 110.496 264.74 107.816 264.74C105.076 264.74 103.436 266.22 103.436 268.06C103.436 272.12 109.696 270.86 109.696 272.84C109.696 273.48 109.096 273.98 107.996 273.98C106.876 273.98 106.096 273.34 105.996 272.5H103.176C103.296 274.56 105.236 276.18 108.016 276.18C110.716 276.18 112.376 274.74 112.376 272.84ZM115.115 272.56C115.115 275.1 116.535 276 118.655 276H120.415V273.64H119.115C118.235 273.64 117.935 273.32 117.935 272.58V267.22H120.415V264.92H117.935V262.18H115.115V264.92H113.795V267.22H115.115V272.56ZM127.149 272.66L124.289 264.92H121.149L125.589 275.72L123.189 281.24H126.169L133.029 264.92H130.049L127.149 272.66ZM139.304 276H142.104V270.1H146.564V267.88H142.104V264.3H147.924V262.04H139.304V276ZM152.709 270.48C152.709 268.34 153.709 267.7 155.369 267.7H156.109V264.76C154.569 264.76 153.409 265.5 152.709 266.64V264.92H149.909V276H152.709V270.48ZM162.755 267.04C164.195 267.04 165.355 267.96 165.395 269.42H160.135C160.355 267.9 161.415 267.04 162.755 267.04ZM168.015 272.52H164.995C164.635 273.26 163.975 273.86 162.775 273.86C161.375 273.86 160.255 272.94 160.115 271.3H168.215C168.275 270.94 168.295 270.58 168.295 270.22C168.295 266.92 166.035 264.74 162.835 264.74C159.555 264.74 157.275 266.96 157.275 270.46C157.275 273.94 159.615 276.18 162.835 276.18C165.575 276.18 167.415 274.56 168.015 272.52ZM178.099 276H180.899V269.5C180.899 266.44 179.059 264.76 176.479 264.76C175.059 264.76 173.859 265.36 173.139 266.3V264.92H170.339V276H173.139V269.88C173.139 268.1 174.119 267.14 175.639 267.14C177.119 267.14 178.099 268.1 178.099 269.88V276ZM182.842 270.46C182.842 273.94 185.122 276.18 188.322 276.18C191.082 276.18 192.942 274.62 193.542 272.26H190.522C190.182 273.26 189.462 273.78 188.302 273.78C186.742 273.78 185.702 272.62 185.702 270.46C185.702 268.3 186.742 267.12 188.302 267.12C189.462 267.12 190.202 267.72 190.522 268.66H193.542C192.942 266.18 191.082 264.74 188.322 264.74C185.122 264.74 182.842 266.98 182.842 270.46ZM195.593 276H198.393V269.88C198.393 268.1 199.373 267.14 200.893 267.14C202.373 267.14 203.353 268.1 203.353 269.88V276H206.153V269.5C206.153 266.44 204.333 264.76 201.833 264.76C200.353 264.76 199.113 265.36 198.393 266.3V261.2H195.593V276ZM213.581 276H216.381V270.1H220.841V267.88H216.381V264.3H222.201V262.04H213.581V276ZM226.987 270.48C226.987 268.34 227.987 267.7 229.647 267.7H230.387V264.76C228.847 264.76 227.687 265.5 226.987 266.64V264.92H224.187V276H226.987V270.48ZM232.273 276H235.073V264.92H232.273V276ZM233.693 263.6C234.673 263.6 235.413 262.88 235.413 261.96C235.413 261.04 234.673 260.32 233.693 260.32C232.693 260.32 231.973 261.04 231.973 261.96C231.973 262.88 232.693 263.6 233.693 263.6ZM242.599 267.04C244.039 267.04 245.199 267.96 245.239 269.42H239.979C240.199 267.9 241.259 267.04 242.599 267.04ZM247.859 272.52H244.839C244.479 273.26 243.819 273.86 242.619 273.86C241.219 273.86 240.099 272.94 239.959 271.3H248.059C248.119 270.94 248.139 270.58 248.139 270.22C248.139 266.92 245.879 264.74 242.679 264.74C239.399 264.74 237.119 266.96 237.119 270.46C237.119 273.94 239.459 276.18 242.679 276.18C245.419 276.18 247.259 274.56 247.859 272.52ZM258.783 272.84C258.703 268.78 252.563 270.04 252.563 268.02C252.563 267.38 253.103 266.96 254.143 266.96C255.243 266.96 255.923 267.54 256.003 268.4H258.683C258.523 266.2 256.903 264.74 254.223 264.74C251.483 264.74 249.843 266.22 249.843 268.06C249.843 272.12 256.103 270.86 256.103 272.84C256.103 273.48 255.503 273.98 254.403 273.98C253.283 273.98 252.503 273.34 252.403 272.5H249.583C249.703 274.56 251.643 276.18 254.423 276.18C257.123 276.18 258.783 274.74 258.783 272.84Z" fill="#212244"/>
<path d="M112.665 303.68V298.56H115.345C117.425 298.56 118.305 299.52 118.305 301.14C118.305 302.7 117.425 303.68 115.345 303.68H112.665ZM120.165 301.14C120.165 298.86 118.625 297.06 115.345 297.06H110.845V311H112.665V305.18H115.345C118.805 305.18 120.165 303.26 120.165 301.14ZM124.247 305.04C124.247 302.5 125.567 301.72 127.307 301.72H127.787V299.84C126.047 299.84 124.867 300.6 124.247 301.82V300.04H122.427V311H124.247V305.04ZM129.888 311H131.708V300.04H129.888V311ZM130.828 298.26C131.488 298.26 132.028 297.72 132.028 297.02C132.028 296.32 131.488 295.78 130.828 295.78C130.128 295.78 129.588 296.32 129.588 297.02C129.588 297.72 130.128 298.26 130.828 298.26ZM134.13 305.5C134.13 308.98 136.35 311.18 139.47 311.18C142.19 311.18 143.97 309.66 144.53 307.48H142.57C142.17 308.86 141.09 309.64 139.47 309.64C137.47 309.64 135.99 308.22 135.99 305.5C135.99 302.82 137.47 301.4 139.47 301.4C141.09 301.4 142.19 302.24 142.57 303.56H144.53C143.97 301.26 142.19 299.86 139.47 299.86C136.35 299.86 134.13 302.06 134.13 305.5ZM151.618 301.4C153.498 301.4 155.098 302.58 155.078 304.72H148.158C148.358 302.58 149.838 301.4 151.618 301.4ZM156.738 307.62H154.778C154.378 308.8 153.338 309.64 151.698 309.64C149.838 309.64 148.278 308.42 148.138 306.2H156.898C156.938 305.82 156.958 305.5 156.958 305.1C156.958 302.1 154.878 299.86 151.698 299.86C148.498 299.86 146.278 302.04 146.278 305.5C146.278 308.98 148.578 311.18 151.698 311.18C154.418 311.18 156.178 309.62 156.738 307.62Z" fill="#69697B"/>
<path d="M168.126 312.74H169.406V311.12C172.326 310.92 173.926 309.02 173.926 306.98C173.926 304.02 171.486 303.48 169.406 302.94V299.16C170.186 299.4 170.666 300 170.746 300.78H173.766C173.586 298.4 171.906 297.06 169.406 296.86V295.24H168.126V296.86C165.526 297.06 163.646 298.6 163.646 300.96C163.646 303.92 166.066 304.5 168.126 305.02V308.84C167.206 308.64 166.726 308.02 166.646 307.1H163.646C163.706 309.5 165.546 310.88 168.126 311.1V312.74ZM171.026 307.1C171.026 308 170.426 308.7 169.406 308.88V305.38C170.346 305.7 171.026 306.16 171.026 307.1ZM166.566 300.82C166.566 299.8 167.206 299.24 168.126 299.1V302.56C167.206 302.24 166.566 301.76 166.566 300.82ZM183.098 311H185.978V296.42H181.158V299H183.098V311ZM188.384 296.46V298.86H195.224L189.864 311H192.704L198.024 298.54V296.46H188.384ZM202.961 309.5C202.961 308.58 202.241 307.86 201.261 307.86C200.241 307.86 199.521 308.58 199.521 309.5C199.521 310.42 200.241 311.14 201.261 311.14C202.241 311.14 202.961 310.42 202.961 309.5ZM204.896 303.52C204.896 307.78 206.176 310.96 210.296 310.96C214.416 310.96 215.696 307.78 215.696 303.52C215.696 299.3 214.416 296.14 210.296 296.14C206.176 296.14 204.896 299.3 204.896 303.52ZM212.936 303.52C212.936 306.12 212.656 308.36 210.296 308.36C207.936 308.36 207.656 306.12 207.656 303.52C207.656 301.02 207.936 298.74 210.296 298.74C212.656 298.74 212.936 301.02 212.936 303.52ZM217.826 303.52C217.826 307.78 219.106 310.96 223.226 310.96C227.346 310.96 228.626 307.78 228.626 303.52C228.626 299.3 227.346 296.14 223.226 296.14C219.106 296.14 217.826 299.3 217.826 303.52ZM225.866 303.52C225.866 306.12 225.586 308.36 223.226 308.36C220.866 308.36 220.586 306.12 220.586 303.52C220.586 301.02 220.866 298.74 223.226 298.74C225.586 298.74 225.866 301.02 225.866 303.52Z" fill="#F94A3D"/>
<path d="M129.5 227L131.998 232.062L137.584 232.873L133.542 236.813L134.496 242.377L129.5 239.75L124.504 242.377L125.458 236.813L121.416 232.873L127.002 232.062L129.5 227Z" fill="#FF9401"/>
<path d="M149.05 227L151.548 232.062L157.134 232.873L153.092 236.813L154.046 242.377L149.05 239.75L144.054 242.377L145.008 236.813L140.966 232.873L146.552 232.062L149.05 227Z" fill="#FF9401"/>
<path d="M168.6 227L171.098 232.062L176.684 232.873L172.642 236.813L173.596 242.377L168.6 239.75L163.604 242.377L164.558 236.813L160.516 232.873L166.102 232.062L168.6 227Z" fill="#FF9401"/>
<path d="M188.15 227L190.648 232.062L196.234 232.873L192.192 236.813L193.146 242.377L188.15 239.75L183.154 242.377L184.108 236.813L180.066 232.873L185.652 232.062L188.15 227Z" fill="#FF9401"/>
<path d="M207.7 227L210.198 232.062L215.784 232.873L211.742 236.813L212.696 242.377L207.7 239.75L202.704 242.377L203.658 236.813L199.616 232.873L205.202 232.062L207.7 227Z" fill="#FF9401"/>
<rect x="108.75" y="336.75" width="119.5" height="40.5" rx="9.25" stroke="#F94A3D" stroke-width="1.5"/>
<path d="M129.882 362H131.562L128.076 352.256H126.228L122.742 362H124.408L125.108 360.012H129.182L129.882 362ZM128.734 358.71H125.556L127.152 354.188L128.734 358.71ZM132.545 358.108C132.545 360.488 134.155 362.126 136.185 362.126C137.445 362.126 138.369 361.538 138.859 360.838V362H140.469V351.64H138.859V355.364C138.271 354.636 137.207 354.16 136.199 354.16C134.155 354.16 132.545 355.728 132.545 358.108ZM138.859 358.136C138.859 359.802 137.725 360.74 136.521 360.74C135.331 360.74 134.183 359.774 134.183 358.108C134.183 356.442 135.331 355.546 136.521 355.546C137.725 355.546 138.859 356.484 138.859 358.136ZM142.034 358.108C142.034 360.488 143.644 362.126 145.674 362.126C146.934 362.126 147.858 361.538 148.348 360.838V362H149.958V351.64H148.348V355.364C147.76 354.636 146.696 354.16 145.688 354.16C143.644 354.16 142.034 355.728 142.034 358.108ZM148.348 358.136C148.348 359.802 147.214 360.74 146.01 360.74C144.82 360.74 143.672 359.774 143.672 358.108C143.672 356.442 144.82 355.546 146.01 355.546C147.214 355.546 148.348 356.484 148.348 358.136ZM155.187 353.572H157.791V362H159.387V353.572H161.977V352.27H155.187V353.572ZM170.943 358.136C170.943 355.714 169.207 354.16 167.009 354.16C164.811 354.16 163.075 355.714 163.075 358.136C163.075 360.558 164.741 362.126 166.939 362.126C169.151 362.126 170.943 360.558 170.943 358.136ZM164.699 358.136C164.699 356.386 165.777 355.546 166.981 355.546C168.171 355.546 169.305 356.386 169.305 358.136C169.305 359.886 168.129 360.74 166.939 360.74C165.735 360.74 164.699 359.886 164.699 358.136ZM175.625 357.114C175.625 360.04 177.851 362.084 180.595 362.084C182.625 362.084 184.375 361.076 185.117 359.172H183.199C182.681 360.208 181.757 360.698 180.595 360.698C178.663 360.698 177.263 359.312 177.263 357.114C177.263 354.916 178.663 353.544 180.595 353.544C181.757 353.544 182.681 354.034 183.199 355.07H185.117C184.375 353.166 182.625 352.144 180.595 352.144C177.851 352.144 175.625 354.202 175.625 357.114ZM186.454 358.108C186.454 360.488 188.064 362.126 190.066 362.126C191.354 362.126 192.278 361.51 192.768 360.852V362H194.378V354.286H192.768V355.406C192.292 354.776 191.396 354.16 190.094 354.16C188.064 354.16 186.454 355.728 186.454 358.108ZM192.768 358.136C192.768 359.802 191.634 360.74 190.43 360.74C189.24 360.74 188.092 359.774 188.092 358.108C188.092 356.442 189.24 355.546 190.43 355.546C191.634 355.546 192.768 356.484 192.768 358.136ZM198.07 357.94C198.07 356.302 198.798 355.812 199.974 355.812H200.38V354.16C199.288 354.16 198.518 354.636 198.07 355.406V354.286H196.474V362H198.07V357.94ZM202.099 359.858C202.099 361.426 202.953 362 204.325 362H205.585V360.67H204.605C203.933 360.67 203.709 360.432 203.709 359.858V355.588H205.585V354.286H203.709V352.368H202.099V354.286H201.189V355.588H202.099V359.858ZM210.262 353.376V356.274H207.434V357.618H210.262V360.516H211.746V357.618H214.574V356.274H211.746V353.376H210.262Z" fill="#F94A3D"/>
<g clip-path="url(#clip0_3119_3935)">
<path d="M224.415 82.4543C224.415 82.4543 185.633 55.4313 151.263 53.1913C114.696 50.8084 98.9853 83.2038 98.9853 83.2038L88.9384 89.7389L133.977 105.857L213.588 92.2994L224.415 82.4543Z" fill="#FFECD2"/>
<path d="M224.414 82.4543L207.648 134.823L203.79 146.863L194.806 174.927L183.529 181.912L193.926 150.914L198.106 138.451L213.589 92.2988L224.414 82.4543Z" fill="#BC0D01"/>
<path d="M207.648 134.823L203.79 146.863L193.926 150.913L198.106 138.45L207.648 134.823Z" fill="#CCBB72"/>
<path d="M213.588 92.2995L210.336 101.995L221.417 91.8199L224.415 82.4543L213.588 92.2995Z" fill="#CCBB72"/>
<path d="M74 56.7059C74 56.7059 91.1273 70.6958 98.684 95.0789L108.558 92.2749C108.558 92.2749 96.0106 61.0167 87.3744 52.6292C78.7379 44.2414 75.396 50.3182 74 56.7059Z" fill="#F1C23F"/>
<path opacity="0.15" d="M78.6962 51.7851C82.78 54.3062 85.8603 58.4029 88.5844 62.1679C95.4465 71.6523 99.1755 82.8941 101.894 94.1675L108.558 92.2749C108.558 92.2749 96.0105 61.0167 87.3744 52.6292C81.7567 47.1731 78.3804 47.8399 76.3214 50.7288C77.0928 50.9385 77.8885 51.2862 78.6962 51.7851Z" fill="#F91E00"/>
<path d="M106.701 87.8241C106.701 87.8241 95.9821 38.5324 95.3105 30.7663C95.3105 30.7663 98.6867 24.5968 106.49 26.4186L116.979 81.633L106.701 87.8241Z" fill="#F1C23F"/>
<path opacity="0.15" d="M100.578 27.9328C101.499 28.0821 102.364 28.4835 103.124 29.2505C104.534 30.6739 105.058 32.8372 105.626 34.6567C106.755 38.2788 107.807 41.912 108.591 45.6189C110.284 53.6188 111.029 61.8089 111.946 69.9157C112.482 74.6547 112.87 79.4015 112.813 84.142L116.979 81.6329L106.49 26.4186C103.768 25.783 101.586 26.1211 99.8967 26.8296C100.172 27.1911 100.398 27.5579 100.578 27.9328Z" fill="#F91E00"/>
<path d="M118.822 77.3236C118.822 77.3236 113.022 35.0455 127.19 16.6759C127.19 16.6759 134.751 14.9929 137.54 17.7277L138.568 22.5654C138.568 22.5654 130.126 48.3671 131.081 67.8582L118.822 77.3236Z" fill="#F1C23F"/>
<path opacity="0.15" d="M137.54 17.7277L138.568 22.5653C138.568 22.5653 130.126 48.3671 131.081 67.8582C131.081 67.8582 120.623 67.0744 118.795 37.3387C117.998 24.3782 131.705 30.725 131.705 30.725C131.705 30.725 135.573 19.4166 137.54 17.7277Z" fill="#F91E00"/>
<path d="M114.637 16.0448C114.637 16.0448 118.161 47.2453 131.081 67.8587L141.505 64.5632C141.505 64.5632 129.979 28.9461 125.648 13.1001L121.905 11.5579L114.637 16.0448Z" fill="#F1C23F"/>
<path opacity="0.15" d="M136.347 66.1936L141.505 64.5632C141.505 64.5632 129.979 28.9461 125.648 13.1001L121.905 11.5579L136.347 66.1936Z" fill="#F91E00"/>
<path d="M137.38 65.8669C137.38 65.8669 128.218 30.2774 144.147 0.970521C144.147 0.970521 150.093 -1.83424 154.791 2.09235C154.791 2.09235 143.487 42.1268 148.625 64.7034L137.38 65.8669Z" fill="#F1C23F"/>
<path opacity="0.15" d="M148.47 0.00731591C148.103 0.743413 147.745 1.48286 147.403 2.22752C147.362 2.33847 147.319 2.44906 147.278 2.56001C147.783 1.68243 148.345 0.842452 148.903 0.000613968C148.757 -0.000130693 148.612 0.00247562 148.47 0.00731591Z" fill="#F91E00"/>
<path opacity="0.15" d="M154.074 1.55481C152.879 3.41348 151.563 5.17981 150.807 7.34119C149.702 10.4993 148.862 13.7758 148.258 17.0531C146.97 24.0439 145.868 31.0828 144.644 38.0852C143.505 44.6018 142.387 51.4765 142.953 58.0902C143.148 60.3655 143.5 62.7923 143.651 65.2184L148.625 64.7039C143.487 42.1269 154.791 2.09245 154.791 2.09245C154.555 1.89512 154.315 1.71938 154.074 1.55481Z" fill="#F91E00"/>
<path d="M165.215 16.1847C165.215 16.1847 156.774 14.6206 153.176 20.3917C153.176 20.3917 141.798 42.4072 148.625 64.7031L158.388 65.1238L161.495 63.2082L169.032 19.1291L165.215 16.1847Z" fill="#F1C23F"/>
<path opacity="0.15" d="M165.215 16.1848L158.388 65.1239L161.496 63.2083L169.032 19.1292L165.215 16.1848Z" fill="#F91E00"/>
<path d="M166.11 69.0571C166.11 69.0571 172.463 38.6515 165.133 22.8483L172.812 20.2476L177.699 23.1149C177.699 23.1149 189.288 43.1853 178.467 74.2578L166.11 69.0571Z" fill="#F1C23F"/>
<path opacity="0.15" d="M172.812 20.2476L177.699 23.1149C177.699 23.1149 189.288 43.1853 178.467 74.2578L171.557 71.3495C180.766 40.0228 172.812 20.2476 172.812 20.2476Z" fill="#F91E00"/>
<path d="M174.487 77.3922C174.487 77.3922 186.705 37.3179 198.154 26.5159C198.154 26.5159 204.577 26.3156 208.067 29.8497C208.067 29.8497 188.659 66.9237 187.961 86.7272L174.487 77.3922Z" fill="#F1C23F"/>
<path opacity="0.15" d="M207.35 29.2063C204.489 31.3625 196.653 47.8783 194.741 52.7212C190.591 63.2291 186.134 85.4613 186.134 85.4613L187.961 86.7272C188.659 66.9233 208.067 29.8497 208.067 29.8497C207.84 29.6192 207.6 29.4059 207.35 29.2063Z" fill="#F91E00"/>
<path d="M185.588 20.181L172.463 74.1919L183.842 80.1928C183.842 80.1928 197.944 34.3172 195.71 22.5151C195.71 22.5148 193.476 17.2474 185.588 20.181Z" fill="#F1C23F"/>
<path opacity="0.15" d="M195.71 22.5148C195.71 22.5148 195.131 21.1658 193.539 20.2134C194.05 25.2558 192.437 30.7656 191.431 35.4994C190.638 39.2331 190.072 42.9981 189.075 46.692C187.935 50.9105 186.32 55.0132 184.892 59.1479C183.668 62.691 182.22 66.2017 181.153 69.7891C180.459 72.1222 179.913 74.4917 179.183 76.8165C179.103 77.0727 179.02 77.3359 178.936 77.6043L183.843 80.192C183.843 80.1924 197.945 34.3172 195.71 22.5148Z" fill="#F91E00"/>
<path d="M187.961 86.7271C187.961 86.7271 195.507 61.5635 204.674 50.4919L216.841 46.667L217.355 49.8456C217.355 49.8456 200.694 72.3939 197.64 92.7823L187.961 86.7271Z" fill="#F1C23F"/>
<path opacity="0.15" d="M187.961 86.7271C187.961 86.7271 195.507 61.5635 204.674 50.4919L216.841 46.667L217.355 49.8456C217.355 49.8456 200.694 72.3939 197.64 92.7823L187.961 86.7271Z" fill="#F91E00"/>
<path d="M202.66 92.948C202.66 92.948 207.516 71.5647 231.31 61.2262L234 68.0492C234 68.0492 224.249 77.3205 213.588 92.2994C202.927 107.279 202.66 92.948 202.66 92.948Z" fill="#F1C23F"/>
<path opacity="0.15" d="M232.71 64.7775L234 68.0491C234 68.0491 224.249 77.3205 213.588 92.2994C210.922 96.0443 208.907 97.9573 207.383 98.7202C202.81 101.009 232.71 64.7775 232.71 64.7775Z" fill="#F91E00"/>
<path d="M212.266 39.9174C212.266 39.9174 200.927 78.5358 189.971 96.3213L201.561 100.337L224.028 47.5315L221.981 42.0802L212.266 39.9174Z" fill="#F1C23F"/>
<path opacity="0.15" d="M197.134 98.8032L201.561 100.337L224.028 47.5315L221.981 42.0802L197.134 98.8032Z" fill="#F91E00"/>
<path d="M88.9384 89.7389L102.533 88.0928C102.533 88.0928 115.745 58.1001 151.551 61.5754C187.356 65.05 192.717 88.8248 192.717 88.8248L213.588 92.2994L183.527 181.911C183.527 181.911 145.998 171.122 110.192 178.62L88.9384 89.7389Z" fill="#F91E00"/>
<path d="M198.107 138.449C188.575 135.369 178.784 133.144 168.876 131.768C167.576 121.033 158.032 112.697 146.444 112.697C135.016 112.697 125.576 120.804 124.07 131.324C115.949 132.289 107.895 133.83 99.9852 135.936L103.03 148.67C110.68 146.568 118.484 145.056 126.357 144.137C130.108 151.089 137.692 155.846 146.444 155.846C155.028 155.846 162.494 151.272 166.316 144.537C175.682 145.821 184.934 147.947 193.926 150.913L198.107 138.449Z" fill="#F8E38B"/>
<path opacity="0.8" d="M106.268 153.15C108.157 164.992 112.407 181.836 123.258 168.972C134.639 155.478 133.971 136.097 148.933 124.222C158.373 116.73 179.6 113.566 182.042 100.134C184.055 89.0579 171.928 77.3727 163.27 71.8008C145.73 60.5125 122.88 67.1787 109.829 82.4632C96.2137 98.4087 102.579 126.864 105.164 145.283C105.413 147.064 105.753 149.921 106.268 153.15Z" fill="#FFD99E"/>
<path d="M232.354 189.189C232.354 189.189 159.374 165.529 129.068 170.029L120.594 174.456L119.984 186.566L130.145 185.865C130.145 185.865 188.328 183.815 226.244 196.867C226.244 196.867 236.761 195.015 232.354 189.189Z" fill="#F1C23F"/>
<path opacity="0.15" d="M232.354 189.189L120.594 174.456L119.984 186.566L130.146 185.865C130.146 185.865 188.328 183.815 226.245 196.867C226.244 196.866 236.761 195.014 232.354 189.189Z" fill="#F91E00"/>
<path d="M88.9384 89.7389L102.533 88.0928C102.533 88.0928 115.745 58.1001 151.551 61.5754C187.356 65.05 192.717 88.8248 192.717 88.8248L213.588 92.2994L210.397 101.809L179.668 100.186C179.668 100.186 183.281 72.1924 146.443 69.725C119.16 69.725 107.652 100.386 107.652 100.386L91.8449 101.895L88.9384 89.7389Z" fill="#F8E38B"/>
<path d="M226.58 172.368C226.58 172.368 180.596 164.929 133.904 191.494L130.639 202.546C130.639 202.546 135.638 206.544 138.812 208C138.812 208 208.774 181.151 227.946 183.364L228.698 175.833L226.58 172.368Z" fill="#F1A93F"/>
<path opacity="0.15" d="M226.58 172.368C226.58 172.368 180.596 164.929 133.904 191.494L141.505 197.838L138.813 208C138.813 208 208.774 181.152 227.947 183.365L228.702 175.805L226.58 172.368Z" fill="#F91E00"/>
<path d="M226.58 172.368C226.58 172.368 180.596 164.929 133.904 191.494L141.505 197.838C164.23 178.558 228.7 175.822 228.7 175.822L226.58 172.368Z" fill="#F1C23F"/>
</g>
<defs>
<linearGradient id="paint0_linear_3119_3935" x1="169" y1="43" x2="169" y2="409" gradientUnits="userSpaceOnUse">
<stop offset="0.132758" stop-color="#EAEAEA" stop-opacity="0"/>
<stop offset="1" stop-color="#EAEAEA"/>
</linearGradient>
<clipPath id="clip0_3119_3935">
<rect width="160" height="208" fill="white" transform="translate(74)"/>
</clipPath>
</defs>
</svg>
