<svg width="338" height="395" viewBox="0 0 338 395" fill="none" xmlns="http://www.w3.org/2000/svg">
<rect x="1" y="29.9994" width="336" height="364" rx="23" fill="white" stroke="url(#paint0_linear_3119_3638)" stroke-width="2"/>
<path d="M77.466 254.839C78.2527 254.986 78.8993 255.379 79.406 256.019C79.9127 256.659 80.166 257.393 80.166 258.219C80.166 258.966 79.9793 259.626 79.606 260.199C79.246 260.759 78.7193 261.199 78.026 261.519C77.3327 261.839 76.5127 261.999 75.566 261.999H69.546V248.039H75.306C76.2527 248.039 77.066 248.193 77.746 248.499C78.4393 248.806 78.9593 249.233 79.306 249.779C79.666 250.326 79.846 250.946 79.846 251.639C79.846 252.453 79.626 253.133 79.186 253.679C78.7593 254.226 78.186 254.613 77.466 254.839ZM72.346 253.799H74.906C75.5727 253.799 76.086 253.653 76.446 253.359C76.806 253.053 76.986 252.619 76.986 252.059C76.986 251.499 76.806 251.066 76.446 250.759C76.086 250.453 75.5727 250.299 74.906 250.299H72.346V253.799ZM75.166 259.719C75.846 259.719 76.3727 259.559 76.746 259.239C77.1327 258.919 77.326 258.466 77.326 257.879C77.326 257.279 77.126 256.813 76.726 256.479C76.326 256.133 75.786 255.959 75.106 255.959H72.346V259.719H75.166ZM92.8576 250.919V261.999H90.0376V260.599C89.6776 261.079 89.2042 261.459 88.6176 261.739C88.0442 262.006 87.4176 262.139 86.7376 262.139C85.8709 262.139 85.1042 261.959 84.4376 261.599C83.7709 261.226 83.2442 260.686 82.8576 259.979C82.4842 259.259 82.2976 258.406 82.2976 257.419V250.919H85.0976V257.019C85.0976 257.899 85.3176 258.579 85.7576 259.059C86.1976 259.526 86.7976 259.759 87.5576 259.759C88.3309 259.759 88.9376 259.526 89.3776 259.059C89.8176 258.579 90.0376 257.899 90.0376 257.019V250.919H92.8576ZM98.4202 252.639C98.7802 252.053 99.2469 251.593 99.8202 251.259C100.407 250.926 101.074 250.759 101.82 250.759V253.699H101.08C100.2 253.699 99.5336 253.906 99.0802 254.319C98.6402 254.733 98.4202 255.453 98.4202 256.479V261.999H95.6202V250.919H98.4202V252.639ZM108.046 250.739C108.873 250.739 109.6 250.906 110.226 251.239C110.853 251.559 111.346 251.979 111.706 252.499V250.919H114.526V262.079C114.526 263.106 114.32 264.019 113.906 264.819C113.493 265.633 112.873 266.273 112.046 266.739C111.22 267.219 110.22 267.459 109.046 267.459C107.473 267.459 106.18 267.093 105.166 266.359C104.166 265.626 103.6 264.626 103.466 263.359H106.246C106.393 263.866 106.706 264.266 107.186 264.559C107.68 264.866 108.273 265.019 108.966 265.019C109.78 265.019 110.44 264.773 110.946 264.279C111.453 263.799 111.706 263.066 111.706 262.079V260.359C111.346 260.879 110.846 261.313 110.206 261.659C109.58 262.006 108.86 262.179 108.046 262.179C107.113 262.179 106.26 261.939 105.486 261.459C104.713 260.979 104.1 260.306 103.646 259.439C103.206 258.559 102.986 257.553 102.986 256.419C102.986 255.299 103.206 254.306 103.646 253.439C104.1 252.573 104.706 251.906 105.466 251.439C106.24 250.973 107.1 250.739 108.046 250.739ZM111.706 256.459C111.706 255.779 111.573 255.199 111.306 254.719C111.04 254.226 110.68 253.853 110.226 253.599C109.773 253.333 109.286 253.199 108.766 253.199C108.246 253.199 107.766 253.326 107.326 253.579C106.886 253.833 106.526 254.206 106.246 254.699C105.98 255.179 105.846 255.753 105.846 256.419C105.846 257.086 105.98 257.673 106.246 258.179C106.526 258.673 106.886 259.053 107.326 259.319C107.78 259.586 108.26 259.719 108.766 259.719C109.286 259.719 109.773 259.593 110.226 259.339C110.68 259.073 111.04 258.699 111.306 258.219C111.573 257.726 111.706 257.139 111.706 256.459ZM127.561 256.219C127.561 256.619 127.534 256.979 127.481 257.299H119.381C119.448 258.099 119.728 258.726 120.221 259.179C120.714 259.633 121.321 259.859 122.041 259.859C123.081 259.859 123.821 259.413 124.261 258.519H127.281C126.961 259.586 126.348 260.466 125.441 261.159C124.534 261.839 123.421 262.179 122.101 262.179C121.034 262.179 120.074 261.946 119.221 261.479C118.381 260.999 117.721 260.326 117.241 259.459C116.774 258.593 116.541 257.593 116.541 256.459C116.541 255.313 116.774 254.306 117.241 253.439C117.708 252.573 118.361 251.906 119.201 251.439C120.041 250.973 121.008 250.739 122.101 250.739C123.154 250.739 124.094 250.966 124.921 251.419C125.761 251.873 126.408 252.519 126.861 253.359C127.328 254.186 127.561 255.139 127.561 256.219ZM124.661 255.419C124.648 254.699 124.388 254.126 123.881 253.699C123.374 253.259 122.754 253.039 122.021 253.039C121.328 253.039 120.741 253.253 120.261 253.679C119.794 254.093 119.508 254.673 119.401 255.419H124.661ZM132.405 252.639C132.765 252.053 133.231 251.593 133.805 251.259C134.391 250.926 135.058 250.759 135.805 250.759V253.699H135.065C134.185 253.699 133.518 253.906 133.065 254.319C132.625 254.733 132.405 255.453 132.405 256.479V261.999H129.605V250.919H132.405V252.639ZM152.636 252.359C152.636 253.106 152.456 253.806 152.096 254.459C151.75 255.113 151.196 255.639 150.436 256.039C149.69 256.439 148.743 256.639 147.596 256.639H145.256V261.999H142.456V248.039H147.596C148.676 248.039 149.596 248.226 150.356 248.599C151.116 248.973 151.683 249.486 152.056 250.139C152.443 250.793 152.636 251.533 152.636 252.359ZM147.476 254.379C148.25 254.379 148.823 254.206 149.196 253.859C149.57 253.499 149.756 252.999 149.756 252.359C149.756 250.999 148.996 250.319 147.476 250.319H145.256V254.379H147.476ZM153.904 256.419C153.904 255.299 154.124 254.306 154.564 253.439C155.017 252.573 155.624 251.906 156.384 251.439C157.157 250.973 158.017 250.739 158.964 250.739C159.791 250.739 160.511 250.906 161.124 251.239C161.751 251.573 162.251 251.993 162.624 252.499V250.919H165.444V261.999H162.624V260.379C162.264 260.899 161.764 261.333 161.124 261.679C160.497 262.013 159.771 262.179 158.944 262.179C158.011 262.179 157.157 261.939 156.384 261.459C155.624 260.979 155.017 260.306 154.564 259.439C154.124 258.559 153.904 257.553 153.904 256.419ZM162.624 256.459C162.624 255.779 162.491 255.199 162.224 254.719C161.957 254.226 161.597 253.853 161.144 253.599C160.691 253.333 160.204 253.199 159.684 253.199C159.164 253.199 158.684 253.326 158.244 253.579C157.804 253.833 157.444 254.206 157.164 254.699C156.897 255.179 156.764 255.753 156.764 256.419C156.764 257.086 156.897 257.673 157.164 258.179C157.444 258.673 157.804 259.053 158.244 259.319C158.697 259.586 159.177 259.719 159.684 259.719C160.204 259.719 160.691 259.593 161.144 259.339C161.597 259.073 161.957 258.699 162.224 258.219C162.491 257.726 162.624 257.139 162.624 256.459ZM171.439 253.219V258.579C171.439 258.953 171.525 259.226 171.699 259.399C171.885 259.559 172.192 259.639 172.619 259.639H173.919V261.999H172.159C169.799 261.999 168.619 260.853 168.619 258.559V253.219H167.299V250.919H168.619V248.179H171.439V250.919H173.919V253.219H171.439ZM179.193 253.219V258.579C179.193 258.953 179.279 259.226 179.453 259.399C179.639 259.559 179.946 259.639 180.373 259.639H181.673V261.999H179.913C177.553 261.999 176.373 260.853 176.373 258.559V253.219H175.053V250.919H176.373V248.179H179.193V250.919H181.673V253.219H179.193ZM194.287 250.919L187.427 267.239H184.447L186.847 261.719L182.407 250.919H185.547L188.407 258.659L191.307 250.919H194.287ZM207.762 261.999L204.682 256.559H203.362V261.999H200.562V248.039H205.802C206.882 248.039 207.802 248.233 208.562 248.619C209.322 248.993 209.888 249.506 210.262 250.159C210.648 250.799 210.842 251.519 210.842 252.319C210.842 253.239 210.575 254.073 210.042 254.819C209.508 255.553 208.715 256.059 207.662 256.339L211.002 261.999H207.762ZM203.362 254.459H205.702C206.462 254.459 207.028 254.279 207.402 253.919C207.775 253.546 207.962 253.033 207.962 252.379C207.962 251.739 207.775 251.246 207.402 250.899C207.028 250.539 206.462 250.359 205.702 250.359H203.362V254.459ZM223.674 256.219C223.674 256.619 223.647 256.979 223.594 257.299H215.494C215.561 258.099 215.841 258.726 216.334 259.179C216.827 259.633 217.434 259.859 218.154 259.859C219.194 259.859 219.934 259.413 220.374 258.519H223.394C223.074 259.586 222.461 260.466 221.554 261.159C220.647 261.839 219.534 262.179 218.214 262.179C217.147 262.179 216.187 261.946 215.334 261.479C214.494 260.999 213.834 260.326 213.354 259.459C212.887 258.593 212.654 257.593 212.654 256.459C212.654 255.313 212.887 254.306 213.354 253.439C213.821 252.573 214.474 251.906 215.314 251.439C216.154 250.973 217.121 250.739 218.214 250.739C219.267 250.739 220.207 250.966 221.034 251.419C221.874 251.873 222.521 252.519 222.974 253.359C223.441 254.186 223.674 255.139 223.674 256.219ZM220.774 255.419C220.761 254.699 220.501 254.126 219.994 253.699C219.487 253.259 218.867 253.039 218.134 253.039C217.441 253.039 216.854 253.253 216.374 253.679C215.907 254.093 215.621 254.673 215.514 255.419H220.774ZM224.998 256.459C224.998 255.313 225.231 254.313 225.698 253.459C226.165 252.593 226.811 251.926 227.638 251.459C228.465 250.979 229.411 250.739 230.478 250.739C231.851 250.739 232.985 251.086 233.878 251.779C234.785 252.459 235.391 253.419 235.698 254.659H232.678C232.518 254.179 232.245 253.806 231.858 253.539C231.485 253.259 231.018 253.119 230.458 253.119C229.658 253.119 229.025 253.413 228.558 253.999C228.091 254.573 227.858 255.393 227.858 256.459C227.858 257.513 228.091 258.333 228.558 258.919C229.025 259.493 229.658 259.779 230.458 259.779C231.591 259.779 232.331 259.273 232.678 258.259H235.698C235.391 259.459 234.785 260.413 233.878 261.119C232.971 261.826 231.838 262.179 230.478 262.179C229.411 262.179 228.465 261.946 227.638 261.479C226.811 260.999 226.165 260.333 225.698 259.479C225.231 258.613 224.998 257.606 224.998 256.459ZM239.169 249.599C238.676 249.599 238.262 249.446 237.929 249.139C237.609 248.819 237.449 248.426 237.449 247.959C237.449 247.493 237.609 247.106 237.929 246.799C238.262 246.479 238.676 246.319 239.169 246.319C239.662 246.319 240.069 246.479 240.389 246.799C240.722 247.106 240.889 247.493 240.889 247.959C240.889 248.426 240.722 248.819 240.389 249.139C240.069 249.446 239.662 249.599 239.169 249.599ZM240.549 250.919V261.999H237.749V250.919H240.549ZM246.116 252.519C246.476 252.013 246.969 251.593 247.596 251.259C248.236 250.913 248.962 250.739 249.776 250.739C250.722 250.739 251.576 250.973 252.336 251.439C253.109 251.906 253.716 252.573 254.156 253.439C254.609 254.293 254.836 255.286 254.836 256.419C254.836 257.553 254.609 258.559 254.156 259.439C253.716 260.306 253.109 260.979 252.336 261.459C251.576 261.939 250.722 262.179 249.776 262.179C248.962 262.179 248.242 262.013 247.616 261.679C247.002 261.346 246.502 260.926 246.116 260.419V267.279H243.316V250.919H246.116V252.519ZM251.976 256.419C251.976 255.753 251.836 255.179 251.556 254.699C251.289 254.206 250.929 253.833 250.476 253.579C250.036 253.326 249.556 253.199 249.036 253.199C248.529 253.199 248.049 253.333 247.596 253.599C247.156 253.853 246.796 254.226 246.516 254.719C246.249 255.213 246.116 255.793 246.116 256.459C246.116 257.126 246.249 257.706 246.516 258.199C246.796 258.693 247.156 259.073 247.596 259.339C248.049 259.593 248.529 259.719 249.036 259.719C249.556 259.719 250.036 259.586 250.476 259.319C250.929 259.053 251.289 258.673 251.556 258.179C251.836 257.686 251.976 257.099 251.976 256.419ZM267.17 256.219C267.17 256.619 267.144 256.979 267.09 257.299H258.99C259.057 258.099 259.337 258.726 259.83 259.179C260.324 259.633 260.93 259.859 261.65 259.859C262.69 259.859 263.43 259.413 263.87 258.519H266.89C266.57 259.586 265.957 260.466 265.05 261.159C264.144 261.839 263.03 262.179 261.71 262.179C260.644 262.179 259.684 261.946 258.83 261.479C257.99 260.999 257.33 260.326 256.85 259.459C256.384 258.593 256.15 257.593 256.15 256.459C256.15 255.313 256.384 254.306 256.85 253.439C257.317 252.573 257.97 251.906 258.81 251.439C259.65 250.973 260.617 250.739 261.71 250.739C262.764 250.739 263.704 250.966 264.53 251.419C265.37 251.873 266.017 252.519 266.47 253.359C266.937 254.186 267.17 255.139 267.17 256.219ZM264.27 255.419C264.257 254.699 263.997 254.126 263.49 253.699C262.984 253.259 262.364 253.039 261.63 253.039C260.937 253.039 260.35 253.253 259.87 253.679C259.404 254.093 259.117 254.673 259.01 255.419H264.27Z" fill="#212244"/>
<path d="M111.708 289.679V284.559H114.388C116.468 284.559 117.348 285.519 117.348 287.139C117.348 288.699 116.468 289.679 114.388 289.679H111.708ZM119.208 287.139C119.208 284.859 117.668 283.059 114.388 283.059H109.888V296.999H111.708V291.179H114.388C117.848 291.179 119.208 289.259 119.208 287.139ZM123.29 291.039C123.29 288.499 124.61 287.719 126.35 287.719H126.83V285.839C125.09 285.839 123.91 286.599 123.29 287.819V286.039H121.47V296.999H123.29V291.039ZM128.931 296.999H130.751V286.039H128.931V296.999ZM129.871 284.259C130.531 284.259 131.071 283.719 131.071 283.019C131.071 282.319 130.531 281.779 129.871 281.779C129.171 281.779 128.631 282.319 128.631 283.019C128.631 283.719 129.171 284.259 129.871 284.259ZM133.173 291.499C133.173 294.979 135.393 297.179 138.513 297.179C141.233 297.179 143.013 295.659 143.573 293.479H141.613C141.213 294.859 140.133 295.639 138.513 295.639C136.513 295.639 135.033 294.219 135.033 291.499C135.033 288.819 136.513 287.399 138.513 287.399C140.133 287.399 141.233 288.239 141.613 289.559H143.573C143.013 287.259 141.233 285.859 138.513 285.859C135.393 285.859 133.173 288.059 133.173 291.499ZM150.661 287.399C152.541 287.399 154.141 288.579 154.121 290.719H147.201C147.401 288.579 148.881 287.399 150.661 287.399ZM155.781 293.619H153.821C153.421 294.799 152.381 295.639 150.741 295.639C148.881 295.639 147.321 294.419 147.181 292.199H155.941C155.981 291.819 156.001 291.499 156.001 291.099C156.001 288.099 153.921 285.859 150.741 285.859C147.541 285.859 145.321 288.039 145.321 291.499C145.321 294.979 147.621 297.179 150.741 297.179C153.461 297.179 155.221 295.619 155.781 293.619Z" fill="#69697B"/>
<path d="M167.169 298.739H168.449V297.119C171.369 296.919 172.969 295.019 172.969 292.979C172.969 290.019 170.529 289.479 168.449 288.939V285.159C169.229 285.399 169.709 285.999 169.789 286.779H172.809C172.629 284.399 170.949 283.059 168.449 282.859V281.239H167.169V282.859C164.569 283.059 162.689 284.599 162.689 286.959C162.689 289.919 165.109 290.499 167.169 291.019V294.839C166.249 294.639 165.769 294.019 165.689 293.099H162.689C162.749 295.499 164.589 296.879 167.169 297.099V298.739ZM170.069 293.099C170.069 293.999 169.469 294.699 168.449 294.879V291.379C169.389 291.699 170.069 292.159 170.069 293.099ZM165.609 286.819C165.609 285.799 166.249 285.239 167.169 285.099V288.559C166.249 288.239 165.609 287.759 165.609 286.819ZM182.14 296.999H185.02V282.419H180.2V284.999H182.14V296.999ZM188.547 282.379V290.939H191.227C191.527 290.039 192.267 289.399 193.427 289.399C195.007 289.399 195.827 290.299 195.827 291.939C195.827 293.479 195.087 294.639 193.447 294.639C192.087 294.639 191.267 293.899 191.027 292.879H188.307C188.547 295.259 190.347 296.999 193.487 296.999C196.807 296.999 198.527 294.879 198.527 291.899C198.527 289.639 197.367 287.079 193.967 287.079C192.747 287.079 191.647 287.599 191.107 288.259V284.839H197.587V282.379H188.547ZM203.918 295.499C203.918 294.579 203.198 293.859 202.218 293.859C201.198 293.859 200.478 294.579 200.478 295.499C200.478 296.419 201.198 297.139 202.218 297.139C203.198 297.139 203.918 296.419 203.918 295.499ZM205.853 289.519C205.853 293.779 207.133 296.959 211.253 296.959C215.373 296.959 216.653 293.779 216.653 289.519C216.653 285.299 215.373 282.139 211.253 282.139C207.133 282.139 205.853 285.299 205.853 289.519ZM213.893 289.519C213.893 292.119 213.613 294.359 211.253 294.359C208.893 294.359 208.613 292.119 208.613 289.519C208.613 287.019 208.893 284.739 211.253 284.739C213.613 284.739 213.893 287.019 213.893 289.519ZM218.783 289.519C218.783 293.779 220.063 296.959 224.183 296.959C228.303 296.959 229.583 293.779 229.583 289.519C229.583 285.299 228.303 282.139 224.183 282.139C220.063 282.139 218.783 285.299 218.783 289.519ZM226.823 289.519C226.823 292.119 226.543 294.359 224.183 294.359C221.823 294.359 221.543 292.119 221.543 289.519C221.543 287.019 221.823 284.739 224.183 284.739C226.543 284.739 226.823 287.019 226.823 289.519Z" fill="#F94A3D"/>
<path d="M129.5 212.999L131.998 218.061L137.584 218.873L133.542 222.813L134.496 228.376L129.5 225.749L124.504 228.376L125.458 222.813L121.416 218.873L127.002 218.061L129.5 212.999Z" fill="#FF9401"/>
<path d="M149.05 212.999L151.548 218.061L157.134 218.873L153.092 222.813L154.046 228.376L149.05 225.749L144.054 228.376L145.008 222.813L140.966 218.873L146.552 218.061L149.05 212.999Z" fill="#FF9401"/>
<path d="M168.6 212.999L171.098 218.061L176.684 218.873L172.642 222.813L173.596 228.376L168.6 225.749L163.604 228.376L164.558 222.813L160.516 218.873L166.102 218.061L168.6 212.999Z" fill="#FF9401"/>
<path d="M188.15 212.999L190.648 218.061L196.234 218.873L192.192 222.813L193.146 228.376L188.15 225.749L183.154 228.376L184.108 222.813L180.066 218.873L185.652 218.061L188.15 212.999Z" fill="#FF9401"/>
<path d="M207.7 212.999L210.198 218.061L215.784 218.873L211.742 222.813L212.696 228.376L207.7 225.749L202.704 228.376L203.658 222.813L199.616 218.873L205.202 218.061L207.7 212.999Z" fill="#FF9401"/>
<rect x="108.75" y="322.749" width="119.5" height="40.5" rx="9.25" stroke="#F94A3D" stroke-width="1.5"/>
<path d="M129.882 347.999H131.562L128.076 338.255H126.228L122.742 347.999H124.408L125.108 346.011H129.182L129.882 347.999ZM128.734 344.709H125.556L127.152 340.187L128.734 344.709ZM132.545 344.107C132.545 346.487 134.155 348.125 136.185 348.125C137.445 348.125 138.369 347.537 138.859 346.837V347.999H140.469V337.639H138.859V341.363C138.271 340.635 137.207 340.159 136.199 340.159C134.155 340.159 132.545 341.727 132.545 344.107ZM138.859 344.135C138.859 345.801 137.725 346.739 136.521 346.739C135.331 346.739 134.183 345.773 134.183 344.107C134.183 342.441 135.331 341.545 136.521 341.545C137.725 341.545 138.859 342.483 138.859 344.135ZM142.034 344.107C142.034 346.487 143.644 348.125 145.674 348.125C146.934 348.125 147.858 347.537 148.348 346.837V347.999H149.958V337.639H148.348V341.363C147.76 340.635 146.696 340.159 145.688 340.159C143.644 340.159 142.034 341.727 142.034 344.107ZM148.348 344.135C148.348 345.801 147.214 346.739 146.01 346.739C144.82 346.739 143.672 345.773 143.672 344.107C143.672 342.441 144.82 341.545 146.01 341.545C147.214 341.545 148.348 342.483 148.348 344.135ZM155.187 339.571H157.791V347.999H159.387V339.571H161.977V338.269H155.187V339.571ZM170.943 344.135C170.943 341.713 169.207 340.159 167.009 340.159C164.811 340.159 163.075 341.713 163.075 344.135C163.075 346.557 164.741 348.125 166.939 348.125C169.151 348.125 170.943 346.557 170.943 344.135ZM164.699 344.135C164.699 342.385 165.777 341.545 166.981 341.545C168.171 341.545 169.305 342.385 169.305 344.135C169.305 345.885 168.129 346.739 166.939 346.739C165.735 346.739 164.699 345.885 164.699 344.135ZM175.625 343.113C175.625 346.039 177.851 348.083 180.595 348.083C182.625 348.083 184.375 347.075 185.117 345.171H183.199C182.681 346.207 181.757 346.697 180.595 346.697C178.663 346.697 177.263 345.311 177.263 343.113C177.263 340.915 178.663 339.543 180.595 339.543C181.757 339.543 182.681 340.033 183.199 341.069H185.117C184.375 339.165 182.625 338.143 180.595 338.143C177.851 338.143 175.625 340.201 175.625 343.113ZM186.454 344.107C186.454 346.487 188.064 348.125 190.066 348.125C191.354 348.125 192.278 347.509 192.768 346.851V347.999H194.378V340.285H192.768V341.405C192.292 340.775 191.396 340.159 190.094 340.159C188.064 340.159 186.454 341.727 186.454 344.107ZM192.768 344.135C192.768 345.801 191.634 346.739 190.43 346.739C189.24 346.739 188.092 345.773 188.092 344.107C188.092 342.441 189.24 341.545 190.43 341.545C191.634 341.545 192.768 342.483 192.768 344.135ZM198.07 343.939C198.07 342.301 198.798 341.811 199.974 341.811H200.38V340.159C199.288 340.159 198.518 340.635 198.07 341.405V340.285H196.474V347.999H198.07V343.939ZM202.099 345.857C202.099 347.425 202.953 347.999 204.325 347.999H205.585V346.669H204.605C203.933 346.669 203.709 346.431 203.709 345.857V341.587H205.585V340.285H203.709V338.367H202.099V340.285H201.189V341.587H202.099V345.857ZM210.262 339.375V342.273H207.434V343.617H210.262V346.515H211.746V343.617H214.574V342.273H211.746V339.375H210.262Z" fill="#F94A3D"/>
<g clip-path="url(#clip0_3119_3638)">
<path d="M95.4948 125.328C95.4948 125.328 88.2469 125.839 89.3804 141.644C90.514 157.45 115.966 185.734 179.465 182.701C242.965 179.668 255.097 146.468 255.271 138.957C255.445 131.447 245.717 127.338 245.717 127.338L95.4948 125.328Z" fill="#FAA82F"/>
<path d="M178.42 160.647C171.005 160.85 151.274 161.953 130.751 154.333C123.951 151.808 116.812 148.687 110.265 145.511C107.346 144.095 96.0236 138.868 97.695 146.543C99.0134 152.596 105.167 154.535 109.54 156.244C112.817 157.526 116.075 158.701 119.375 159.944C123.85 161.631 146.761 165.622 153.75 165.807C156.135 165.871 158.501 165.919 160.886 165.962C166.047 166.056 170.654 164.37 175.625 162.993C177.45 162.487 179.255 162.095 180.726 160.639C179.997 160.596 179.169 160.547 178.42 160.647Z" fill="#FFC042"/>
<path opacity="0.15" d="M245.717 127.338L95.4948 125.328C95.4948 125.328 101.427 141.969 141.975 153.422C145.84 154.514 150.159 155.85 154.098 156.351C158.459 156.905 162.929 155.236 167.4 155.755C175.43 156.685 183.088 154.467 190.988 153.322C197.101 152.435 203.006 151.128 209.039 149.713C214.164 148.511 220.199 146.23 225.51 147.132C229.869 147.872 235.612 152.856 233.751 158.856C231.747 165.317 223.667 166.965 218.695 168.054C211.513 169.627 204.638 171.52 197.334 172.317C174.396 174.821 150.671 174.038 127.858 169.742C118.358 167.952 107.694 165.147 99.9761 157.91C96.5908 154.736 93.3287 150.668 90.4724 146.73C96.0016 162.806 122.329 185.431 179.465 182.701C242.965 179.668 255.097 146.468 255.271 138.958C255.444 131.447 245.717 127.338 245.717 127.338Z" fill="#F91E00"/>
<path d="M95.4948 125.328C95.4948 125.328 82.9204 113.225 93.7486 99.7571L174.03 112.825L240.652 106.665C240.652 106.665 252.658 109.13 245.717 127.338C245.717 127.338 163.741 177.589 95.4948 125.328Z" fill="#782800"/>
<path d="M244.478 116.308C244.928 116.296 245.281 115.857 245.267 115.327C245.252 114.797 244.876 114.377 244.425 114.39C243.975 114.402 243.622 114.842 243.637 115.371C243.651 115.901 244.028 116.321 244.478 116.308Z" fill="#632100"/>
<path d="M239.618 120.23C240.314 120.211 240.859 119.532 240.837 118.713C240.814 117.895 240.232 117.247 239.537 117.266C238.842 117.285 238.297 117.964 238.319 118.782C238.342 119.601 238.923 120.249 239.618 120.23Z" fill="#632100"/>
<path d="M234.743 120.51C234.76 121.113 234.358 121.612 233.847 121.626C233.336 121.64 232.907 121.163 232.891 120.561C232.874 119.959 233.276 119.459 233.787 119.445C234.298 119.431 234.727 119.908 234.743 120.51Z" fill="#632100"/>
<path d="M230.524 126.012C230.54 126.574 230.165 127.04 229.688 127.053C229.211 127.066 228.812 126.621 228.797 126.059C228.781 125.498 229.155 125.032 229.633 125.019C230.109 125.006 230.509 125.45 230.524 126.012Z" fill="#632100"/>
<path d="M223.359 121.391C224.126 121.37 224.727 120.622 224.702 119.719C224.678 118.817 224.036 118.102 223.27 118.123C222.503 118.144 221.902 118.893 221.927 119.795C221.951 120.698 222.593 121.412 223.359 121.391Z" fill="#632100"/>
<path d="M220.584 124.728C220.598 125.229 220.264 125.645 219.838 125.657C219.413 125.668 219.056 125.271 219.043 124.77C219.029 124.27 219.363 123.854 219.788 123.842C220.214 123.83 220.57 124.227 220.584 124.728Z" fill="#632100"/>
<path d="M216.375 126.451C216.834 126.439 217.194 125.991 217.179 125.45C217.164 124.91 216.78 124.482 216.321 124.495C215.862 124.508 215.502 124.956 215.517 125.496C215.532 126.036 215.916 126.464 216.375 126.451Z" fill="#632100"/>
<path d="M213.56 129.278C213.575 129.821 213.214 130.271 212.753 130.284C212.292 130.297 211.906 129.867 211.891 129.324C211.876 128.782 212.238 128.331 212.699 128.319C213.16 128.306 213.545 128.736 213.56 129.278Z" fill="#632100"/>
<path d="M208.897 131.855C209.705 131.833 210.339 131.044 210.313 130.092C210.287 129.141 209.611 128.387 208.803 128.409C207.994 128.431 207.36 129.221 207.386 130.172C207.412 131.124 208.089 131.877 208.897 131.855Z" fill="#632100"/>
<path d="M203.986 127.35C204.524 127.335 204.947 126.81 204.929 126.176C204.912 125.542 204.461 125.04 203.923 125.055C203.384 125.069 202.962 125.595 202.979 126.229C202.997 126.863 203.447 127.365 203.986 127.35Z" fill="#632100"/>
<path d="M198.18 121.628C198.902 121.608 199.468 120.903 199.445 120.053C199.422 119.202 198.817 118.529 198.095 118.549C197.373 118.569 196.807 119.274 196.83 120.124C196.853 120.975 197.458 121.648 198.18 121.628Z" fill="#632100"/>
<path d="M197.643 135.005C197.66 135.605 197.26 136.102 196.751 136.116C196.242 136.13 195.816 135.655 195.799 135.056C195.783 134.456 196.182 133.959 196.692 133.945C197.201 133.931 197.627 134.405 197.643 135.005Z" fill="#632100"/>
<path d="M191.354 124.922C191.374 125.635 190.898 126.226 190.293 126.243C189.687 126.26 189.179 125.695 189.16 124.982C189.14 124.268 189.616 123.677 190.222 123.66C190.827 123.644 191.335 124.208 191.354 124.922Z" fill="#632100"/>
<path d="M188.171 129.07C188.195 129.962 187.601 130.702 186.843 130.723C186.084 130.744 185.45 130.037 185.426 129.145C185.401 128.253 185.996 127.513 186.754 127.492C187.512 127.471 188.146 128.177 188.171 129.07Z" fill="#632100"/>
<path d="M183.863 135.773C183.884 136.548 183.368 137.19 182.71 137.209C182.052 137.227 181.502 136.613 181.48 135.839C181.459 135.064 181.975 134.422 182.633 134.404C183.291 134.386 183.841 134.999 183.863 135.773Z" fill="#632100"/>
<path d="M179.157 134.08C179.175 134.725 178.745 135.26 178.198 135.275C177.65 135.29 177.192 134.779 177.175 134.135C177.157 133.49 177.586 132.955 178.134 132.94C178.681 132.925 179.139 133.436 179.157 134.08Z" fill="#632100"/>
<path d="M173.972 136.794C173.989 137.417 173.574 137.933 173.046 137.947C172.517 137.962 172.074 137.469 172.057 136.846C172.04 136.223 172.455 135.707 172.984 135.692C173.512 135.678 173.955 136.171 173.972 136.794Z" fill="#632100"/>
<path d="M168.267 138.569C168.862 138.553 169.329 137.971 169.31 137.271C169.29 136.57 168.792 136.015 168.197 136.032C167.602 136.048 167.135 136.629 167.155 137.33C167.174 138.031 167.672 138.585 168.267 138.569Z" fill="#632100"/>
<path d="M165.25 134.272C165.274 135.135 164.699 135.85 163.967 135.87C163.234 135.89 162.622 135.207 162.598 134.345C162.574 133.483 163.149 132.768 163.881 132.748C164.613 132.728 165.226 133.41 165.25 134.272Z" fill="#632100"/>
<path d="M160.093 125.956C160.566 125.943 160.937 125.481 160.922 124.924C160.907 124.368 160.511 123.927 160.038 123.94C159.565 123.953 159.194 124.415 159.21 124.971C159.225 125.528 159.621 125.969 160.093 125.956Z" fill="#632100"/>
<path d="M158.095 132.901C158.122 133.884 157.466 134.701 156.631 134.723C155.796 134.746 155.096 133.968 155.069 132.984C155.043 132.001 155.698 131.185 156.533 131.162C157.369 131.139 158.068 131.918 158.095 132.901Z" fill="#632100"/>
<path d="M152.222 135.119C152.237 135.659 151.877 136.107 151.418 136.12C150.959 136.132 150.575 135.704 150.56 135.164C150.545 134.624 150.905 134.176 151.364 134.163C151.823 134.15 152.208 134.578 152.222 135.119Z" fill="#632100"/>
<path d="M149.688 124.893C149.714 125.853 149.074 126.65 148.259 126.672C147.444 126.694 146.761 125.934 146.735 124.974C146.709 124.015 147.348 123.218 148.164 123.196C148.979 123.173 149.661 123.933 149.688 124.893Z" fill="#632100"/>
<path d="M144.459 121C144.479 121.704 144.009 122.288 143.411 122.305C142.813 122.321 142.313 121.763 142.293 121.059C142.274 120.355 142.743 119.771 143.341 119.754C143.939 119.738 144.44 120.296 144.459 121Z" fill="#632100"/>
<path d="M139.724 125.338C140.481 125.317 141.076 124.577 141.051 123.685C141.027 122.793 140.393 122.087 139.635 122.108C138.878 122.129 138.283 122.869 138.308 123.76C138.332 124.652 138.966 125.358 139.724 125.338Z" fill="#632100"/>
<path d="M137.848 120.544C137.867 121.259 137.391 121.851 136.784 121.868C136.177 121.885 135.67 121.319 135.65 120.605C135.631 119.89 136.107 119.297 136.713 119.281C137.32 119.264 137.828 119.83 137.848 120.544Z" fill="#632100"/>
<path d="M135.484 119.536C135.51 120.479 134.882 121.261 134.081 121.283C133.28 121.305 132.609 120.559 132.584 119.616C132.558 118.673 133.186 117.89 133.987 117.868C134.788 117.846 135.458 118.593 135.484 119.536Z" fill="#632100"/>
<path d="M131.296 121.165C131.322 122.099 130.699 122.874 129.906 122.896C129.113 122.918 128.449 122.178 128.423 121.244C128.397 120.31 129.02 119.535 129.813 119.513C130.607 119.492 131.27 120.231 131.296 121.165Z" fill="#632100"/>
<path d="M126.436 121.519C126.454 122.173 126.018 122.716 125.462 122.731C124.906 122.746 124.442 122.228 124.424 121.574C124.406 120.92 124.841 120.377 125.397 120.362C125.953 120.346 126.418 120.864 126.436 121.519Z" fill="#632100"/>
<path d="M121.043 122.954C121.494 122.942 121.847 122.501 121.833 121.97C121.818 121.439 121.441 121.019 120.99 121.031C120.539 121.044 120.185 121.484 120.2 122.015C120.214 122.546 120.592 122.967 121.043 122.954Z" fill="#632100"/>
<path d="M116.657 121.032C116.679 121.82 116.153 122.474 115.484 122.493C114.814 122.511 114.253 121.887 114.232 121.098C114.21 120.31 114.736 119.656 115.405 119.637C116.075 119.619 116.635 120.243 116.657 121.032Z" fill="#632100"/>
<path d="M115.234 114.247C115.958 114.227 116.525 113.521 116.502 112.669C116.479 111.817 115.873 111.143 115.15 111.162C114.426 111.182 113.859 111.889 113.882 112.741C113.905 113.592 114.511 114.267 115.234 114.247Z" fill="#632100"/>
<path d="M107.018 120.521C107.75 120.501 108.324 119.786 108.3 118.925C108.277 118.063 107.664 117.381 106.933 117.401C106.201 117.421 105.627 118.136 105.651 118.997C105.674 119.859 106.287 120.541 107.018 120.521Z" fill="#632100"/>
<path d="M105.696 110.323C105.712 110.909 105.321 111.396 104.823 111.409C104.326 111.423 103.909 110.959 103.893 110.373C103.877 109.786 104.267 109.3 104.765 109.286C105.263 109.273 105.68 109.737 105.696 110.323Z" fill="#632100"/>
<path d="M101.648 111.655C101.663 112.222 101.286 112.692 100.804 112.705C100.323 112.718 99.92 112.27 99.9044 111.703C99.8889 111.136 100.267 110.666 100.748 110.652C101.23 110.639 101.632 111.088 101.648 111.655Z" fill="#632100"/>
<path d="M96.3718 109.44C97.2205 109.417 97.8862 108.588 97.8588 107.589C97.8314 106.59 97.1212 105.799 96.2725 105.822C95.4239 105.845 94.7581 106.674 94.7856 107.673C94.813 108.673 95.5232 109.464 96.3718 109.44Z" fill="#632100"/>
<path d="M94.5614 103.475C94.5805 104.171 94.1165 104.749 93.5251 104.765C92.9336 104.781 92.4386 104.23 92.4195 103.534C92.4004 102.837 92.8644 102.26 93.4558 102.244C94.0473 102.227 94.5423 102.779 94.5614 103.475Z" fill="#632100"/>
<path d="M243.705 124.177C244.346 124.159 244.848 123.534 244.827 122.78C244.806 122.026 244.271 121.429 243.63 121.447C242.99 121.464 242.488 122.09 242.508 122.844C242.529 123.597 243.065 124.194 243.705 124.177Z" fill="#632100"/>
<path d="M237.404 119.148C238.125 119.128 238.691 118.423 238.668 117.574C238.645 116.724 238.041 116.052 237.319 116.072C236.598 116.091 236.032 116.796 236.055 117.646C236.078 118.495 236.682 119.168 237.404 119.148Z" fill="#632100"/>
<path d="M236.485 123.013C236.51 123.9 235.918 124.636 235.165 124.656C234.411 124.677 233.781 123.975 233.756 123.087C233.732 122.2 234.323 121.464 235.077 121.444C235.83 121.423 236.461 122.125 236.485 123.013Z" fill="#632100"/>
<path d="M229.392 125.521C230.021 125.503 230.514 124.889 230.494 124.149C230.474 123.408 229.947 122.822 229.318 122.839C228.689 122.856 228.196 123.471 228.216 124.211C228.236 124.952 228.763 125.538 229.392 125.521Z" fill="#632100"/>
<path d="M229.772 132.127C229.789 132.762 229.365 133.29 228.825 133.305C228.285 133.319 227.833 132.816 227.815 132.18C227.798 131.544 228.222 131.017 228.762 131.002C229.302 130.987 229.754 131.491 229.772 132.127Z" fill="#632100"/>
<path d="M224.735 132.275C224.75 132.798 224.402 133.231 223.958 133.243C223.515 133.255 223.144 132.842 223.129 132.32C223.115 131.797 223.463 131.364 223.906 131.352C224.35 131.34 224.721 131.753 224.735 132.275Z" fill="#632100"/>
<path d="M217.108 122.883C217.828 122.863 218.393 122.16 218.369 121.312C218.346 120.464 217.744 119.793 217.023 119.813C216.303 119.832 215.739 120.536 215.762 121.383C215.785 122.231 216.388 122.902 217.108 122.883Z" fill="#632100"/>
<path d="M213.613 135.643C214.209 135.627 214.677 135.044 214.658 134.342C214.639 133.64 214.14 133.085 213.543 133.101C212.947 133.117 212.479 133.7 212.499 134.402C212.518 135.104 213.017 135.659 213.613 135.643Z" fill="#632100"/>
<path d="M210.071 137.474C210.091 138.186 209.616 138.777 209.011 138.794C208.406 138.811 207.9 138.246 207.88 137.534C207.861 136.822 208.336 136.231 208.94 136.214C209.545 136.198 210.052 136.762 210.071 137.474Z" fill="#632100"/>
<path d="M204.028 136.359C204.044 136.964 203.642 137.465 203.128 137.479C202.615 137.493 202.185 137.015 202.169 136.41C202.152 135.806 202.555 135.304 203.068 135.29C203.582 135.276 204.011 135.755 204.028 136.359Z" fill="#632100"/>
<path d="M199.223 124.842C199.244 125.599 198.739 126.228 198.095 126.245C197.452 126.263 196.913 125.663 196.892 124.906C196.872 124.148 197.376 123.519 198.02 123.502C198.664 123.484 199.202 124.084 199.223 124.842Z" fill="#632100"/>
<path d="M193.59 126.485C193.605 127.037 193.238 127.494 192.769 127.507C192.3 127.52 191.908 127.083 191.893 126.531C191.878 125.98 192.245 125.522 192.714 125.509C193.183 125.496 193.575 125.933 193.59 126.485Z" fill="#632100"/>
<path d="M192.033 139.356C192.054 140.116 191.548 140.747 190.902 140.764C190.257 140.782 189.717 140.18 189.696 139.42C189.675 138.66 190.181 138.03 190.827 138.012C191.472 137.994 192.012 138.596 192.033 139.356Z" fill="#632100"/>
<path d="M187.053 127.022C187.073 127.757 186.583 128.366 185.959 128.384C185.335 128.401 184.812 127.819 184.792 127.084C184.772 126.349 185.262 125.739 185.886 125.722C186.51 125.704 187.033 126.286 187.053 127.022Z" fill="#632100"/>
<path d="M182.592 135.007C183.2 134.991 183.677 134.397 183.657 133.681C183.638 132.966 183.129 132.399 182.521 132.416C181.913 132.432 181.436 133.026 181.456 133.742C181.475 134.457 181.984 135.024 182.592 135.007Z" fill="#632100"/>
<path d="M177.861 134.331C177.876 134.872 177.515 135.322 177.055 135.335C176.595 135.347 176.21 134.918 176.195 134.376C176.18 133.835 176.541 133.385 177.001 133.373C177.461 133.36 177.846 133.789 177.861 134.331Z" fill="#632100"/>
<path d="M172.662 129.159C173.51 129.135 174.176 128.307 174.148 127.308C174.121 126.309 173.411 125.518 172.563 125.541C171.714 125.565 171.048 126.393 171.076 127.392C171.103 128.391 171.813 129.182 172.662 129.159Z" fill="#632100"/>
<path d="M167.605 142.383C168.124 142.369 168.531 141.863 168.514 141.252C168.497 140.641 168.063 140.157 167.544 140.172C167.026 140.186 166.619 140.693 166.635 141.303C166.652 141.914 167.086 142.398 167.605 142.383Z" fill="#632100"/>
<path d="M165.809 128.074C165.83 128.849 165.314 129.492 164.655 129.51C163.997 129.528 163.446 128.915 163.425 128.139C163.403 127.364 163.92 126.721 164.578 126.703C165.237 126.685 165.788 127.299 165.809 128.074Z" fill="#632100"/>
<path d="M162.896 130.71C162.922 131.66 162.289 132.448 161.482 132.47C160.676 132.492 160.001 131.74 159.975 130.79C159.948 129.841 160.581 129.053 161.388 129.031C162.195 129.008 162.87 129.761 162.896 130.71Z" fill="#632100"/>
<path d="M159.289 133.753C159.307 134.44 158.85 135.009 158.267 135.025C157.684 135.041 157.196 134.497 157.177 133.811C157.159 133.125 157.616 132.556 158.199 132.54C158.782 132.524 159.27 133.067 159.289 133.753Z" fill="#632100"/>
<path d="M156.404 127.359C156.431 128.356 155.767 129.183 154.92 129.206C154.073 129.229 153.365 128.44 153.337 127.443C153.31 126.446 153.974 125.618 154.821 125.595C155.668 125.572 156.377 126.362 156.404 127.359Z" fill="#632100"/>
<path d="M152.191 129.987C152.218 130.947 151.578 131.744 150.762 131.766C149.947 131.789 149.264 131.028 149.237 130.068C149.211 129.107 149.851 128.311 150.667 128.288C151.482 128.266 152.165 129.026 152.191 129.987Z" fill="#632100"/>
<path d="M145.993 135.901C146.017 136.77 145.437 137.491 144.699 137.511C143.961 137.532 143.343 136.844 143.319 135.975C143.295 135.106 143.874 134.385 144.613 134.364C145.351 134.345 145.969 135.033 145.993 135.901Z" fill="#632100"/>
<path d="M141.781 126.876C141.804 127.727 141.237 128.434 140.513 128.454C139.79 128.473 139.185 127.799 139.161 126.948C139.138 126.096 139.705 125.39 140.429 125.37C141.152 125.35 141.757 126.024 141.781 126.876Z" fill="#632100"/>
<path d="M138.08 130.285C138.099 130.998 137.624 131.59 137.018 131.606C136.413 131.623 135.906 131.058 135.886 130.345C135.867 129.632 136.342 129.041 136.948 129.024C137.553 129.008 138.06 129.572 138.08 130.285Z" fill="#632100"/>
<path d="M135.114 130.361C135.137 131.181 134.591 131.86 133.895 131.879C133.199 131.899 132.617 131.25 132.594 130.43C132.572 129.611 133.117 128.931 133.813 128.912C134.509 128.893 135.092 129.542 135.114 130.361Z" fill="#632100"/>
<path d="M129.415 133.764C129.433 134.446 128.979 135.011 128.4 135.027C127.821 135.043 127.336 134.503 127.317 133.821C127.298 133.139 127.753 132.574 128.332 132.558C128.911 132.542 129.396 133.082 129.415 133.764Z" fill="#632100"/>
<path d="M125.461 132.936C125.941 132.923 126.318 132.454 126.302 131.888C126.287 131.323 125.885 130.875 125.405 130.888C124.924 130.901 124.548 131.371 124.563 131.936C124.579 132.501 124.98 132.949 125.461 132.936Z" fill="#632100"/>
<path d="M123.765 121.364C123.782 121.984 123.369 122.498 122.842 122.512C122.316 122.527 121.875 122.036 121.858 121.416C121.841 120.796 122.254 120.282 122.781 120.267C123.307 120.253 123.748 120.744 123.765 121.364Z" fill="#632100"/>
<path d="M120.588 119.367C120.61 120.145 120.092 120.79 119.431 120.808C118.771 120.826 118.218 120.211 118.196 119.433C118.175 118.656 118.693 118.01 119.354 117.992C120.014 117.974 120.567 118.59 120.588 119.367Z" fill="#632100"/>
<path d="M116.927 118.064C116.954 119.069 116.285 119.903 115.431 119.927C114.577 119.95 113.863 119.154 113.835 118.149C113.807 117.144 114.477 116.31 115.331 116.286C116.185 116.263 116.899 117.059 116.927 118.064Z" fill="#632100"/>
<path d="M108.004 127.637C108.02 128.236 107.621 128.734 107.112 128.748C106.603 128.762 106.177 128.287 106.16 127.688C106.144 127.089 106.543 126.591 107.052 126.577C107.561 126.564 107.987 127.038 108.004 127.637Z" fill="#632100"/>
<path d="M105.88 122.192C105.897 122.82 105.479 123.342 104.945 123.357C104.411 123.372 103.964 122.874 103.947 122.245C103.929 121.616 104.348 121.095 104.882 121.08C105.416 121.066 105.863 121.563 105.88 122.192Z" fill="#632100"/>
<path d="M102.292 124.999C102.319 125.972 101.67 126.779 100.843 126.802C100.017 126.825 99.3247 126.054 99.298 125.081C99.2712 124.108 99.9197 123.3 100.747 123.278C101.573 123.255 102.265 124.026 102.292 124.999Z" fill="#632100"/>
<path d="M98.918 124.227C98.9434 125.15 98.3285 125.915 97.5447 125.937C96.761 125.958 96.1047 125.227 96.0794 124.305C96.054 123.382 96.6689 122.616 97.453 122.595C98.2367 122.573 98.8927 123.304 98.918 124.227Z" fill="#632100"/>
<path d="M97.9088 116.006C97.9259 116.63 97.5105 117.147 96.9808 117.161C96.451 117.176 96.0079 116.682 95.9907 116.059C95.9736 115.435 96.389 114.918 96.9188 114.903C97.4482 114.889 97.8917 115.382 97.9088 116.006Z" fill="#632100"/>
<path d="M91.1286 118.399C91.2827 119.014 91.474 119.628 91.6857 120.24C91.8782 120.369 92.099 120.444 92.3353 120.438C93.029 120.418 93.5728 119.741 93.5504 118.925C93.5279 118.108 92.9478 117.462 92.2542 117.481C91.7393 117.495 91.3083 117.872 91.1286 118.399Z" fill="#632100"/>
<path d="M240.731 128.331C241.58 128.308 242.245 127.479 242.218 126.48C242.19 125.481 241.48 124.69 240.632 124.714C239.784 124.737 239.118 125.566 239.145 126.564C239.173 127.563 239.883 128.354 240.731 128.331Z" fill="#632100"/>
<path d="M240.402 135.306C240.42 135.935 240 136.457 239.466 136.471C238.932 136.486 238.485 135.988 238.468 135.359C238.45 134.73 238.869 134.208 239.404 134.193C239.938 134.178 240.385 134.677 240.402 135.306Z" fill="#632100"/>
<path d="M235.778 125.462C235.806 126.481 235.128 127.325 234.263 127.349C233.399 127.373 232.675 126.567 232.647 125.548C232.619 124.53 233.297 123.686 234.162 123.662C235.027 123.638 235.751 124.444 235.778 125.462Z" fill="#632100"/>
<path d="M232.154 128.577C232.172 129.252 231.723 129.811 231.15 129.827C230.578 129.842 230.098 129.309 230.08 128.634C230.061 127.96 230.511 127.401 231.083 127.385C231.656 127.369 232.135 127.903 232.154 128.577Z" fill="#632100"/>
<path d="M227.267 127.376C227.981 127.357 228.541 126.659 228.518 125.819C228.494 124.978 227.897 124.313 227.183 124.332C226.469 124.352 225.909 125.049 225.932 125.89C225.955 126.73 226.553 127.396 227.267 127.376Z" fill="#632100"/>
<path d="M225.42 139.056C225.435 139.6 225.072 140.051 224.61 140.064C224.148 140.077 223.761 139.646 223.746 139.101C223.731 138.557 224.093 138.106 224.556 138.093C225.018 138.08 225.405 138.511 225.42 139.056Z" fill="#632100"/>
<path d="M223.034 141.107C223.054 141.825 222.576 142.421 221.966 142.437C221.356 142.454 220.846 141.885 220.826 141.168C220.806 140.45 221.285 139.854 221.894 139.837C222.504 139.821 223.015 140.389 223.034 141.107Z" fill="#632100"/>
<path d="M215.726 128.314C215.74 128.841 215.389 129.278 214.942 129.29C214.494 129.303 214.12 128.885 214.105 128.358C214.091 127.831 214.442 127.394 214.889 127.382C215.337 127.37 215.712 127.787 215.726 128.314Z" fill="#632100"/>
<path d="M214.839 137.628C214.864 138.55 214.25 139.316 213.466 139.337C212.682 139.359 212.026 138.628 212.001 137.706C211.975 136.783 212.59 136.017 213.374 135.996C214.158 135.974 214.814 136.705 214.839 137.628Z" fill="#632100"/>
<path d="M212.817 142.381C212.845 143.398 212.167 144.241 211.304 144.265C210.44 144.289 209.717 143.483 209.69 142.467C209.662 141.45 210.339 140.607 211.203 140.583C212.066 140.559 212.789 141.365 212.817 142.381Z" fill="#632100"/>
<path d="M206.763 146.829C206.789 147.763 206.167 148.537 205.374 148.559C204.58 148.581 203.917 147.842 203.891 146.908C203.866 145.974 204.488 145.199 205.281 145.178C206.074 145.155 206.738 145.895 206.763 146.829Z" fill="#632100"/>
<path d="M202.17 139.003C202.192 139.809 201.655 140.478 200.97 140.497C200.285 140.516 199.711 139.877 199.689 139.071C199.667 138.264 200.205 137.595 200.89 137.577C201.575 137.558 202.148 138.197 202.17 139.003Z" fill="#632100"/>
<path d="M197.503 143.165C197.529 144.107 196.901 144.889 196.101 144.911C195.3 144.933 194.631 144.187 194.605 143.245C194.579 142.302 195.207 141.521 196.007 141.499C196.807 141.477 197.477 142.223 197.503 143.165Z" fill="#632100"/>
<path d="M192.294 134.571C192.316 135.378 191.779 136.047 191.093 136.066C190.408 136.085 189.835 135.446 189.813 134.639C189.791 133.833 190.328 133.163 191.013 133.145C191.699 133.126 192.272 133.765 192.294 134.571Z" fill="#632100"/>
<path d="M187.8 142.286C187.822 143.061 187.305 143.705 186.646 143.723C185.987 143.741 185.436 143.127 185.415 142.351C185.393 141.576 185.91 140.932 186.569 140.914C187.228 140.896 187.779 141.511 187.8 142.286Z" fill="#632100"/>
<path d="M184.194 138.522C184.212 139.172 183.779 139.711 183.226 139.727C182.674 139.742 182.212 139.227 182.194 138.576C182.176 137.926 182.609 137.387 183.162 137.371C183.714 137.356 184.176 137.871 184.194 138.522Z" fill="#632100"/>
<path d="M179.657 139.839C180.275 139.822 180.76 139.218 180.74 138.489C180.72 137.761 180.203 137.185 179.584 137.202C178.966 137.219 178.481 137.823 178.501 138.551C178.521 139.279 179.038 139.856 179.657 139.839Z" fill="#632100"/>
<path d="M175.727 149.141C175.742 149.676 175.385 150.12 174.931 150.132C174.476 150.145 174.096 149.721 174.081 149.186C174.066 148.651 174.423 148.207 174.877 148.194C175.332 148.182 175.712 148.605 175.727 149.141Z" fill="#632100"/>
<path d="M169.757 141.79C169.774 142.427 169.35 142.955 168.809 142.97C168.267 142.985 167.815 142.481 167.797 141.843C167.78 141.206 168.204 140.678 168.745 140.663C169.287 140.648 169.739 141.153 169.757 141.79Z" fill="#632100"/>
<path d="M165.758 135.932C165.785 136.896 165.142 137.697 164.323 137.719C163.503 137.741 162.818 136.978 162.791 136.013C162.765 135.048 163.407 134.248 164.227 134.226C165.046 134.203 165.732 134.967 165.758 135.932Z" fill="#632100"/>
<path d="M161.407 139.727C161.434 140.71 160.779 141.526 159.944 141.549C159.109 141.572 158.41 140.793 158.383 139.81C158.356 138.827 159.011 138.012 159.846 137.989C160.681 137.966 161.38 138.744 161.407 139.727Z" fill="#632100"/>
<path d="M154.486 143.259C154.912 143.247 155.245 142.832 155.232 142.33C155.218 141.829 154.862 141.433 154.436 141.444C154.011 141.456 153.677 141.872 153.691 142.373C153.704 142.874 154.06 143.271 154.486 143.259Z" fill="#632100"/>
<path d="M149.307 140.257C149.843 140.242 150.263 139.719 150.246 139.088C150.229 138.457 149.78 137.958 149.245 137.973C148.709 137.987 148.289 138.51 148.306 139.141C148.323 139.772 148.772 140.272 149.307 140.257Z" fill="#632100"/>
<path d="M143.728 141.792C144.243 141.778 144.646 141.275 144.63 140.669C144.613 140.063 144.183 139.584 143.668 139.598C143.153 139.612 142.75 140.115 142.766 140.72C142.783 141.326 143.214 141.806 143.728 141.792Z" fill="#632100"/>
<path d="M138.39 146.866C138.931 146.851 139.355 146.323 139.337 145.687C139.32 145.051 138.868 144.547 138.327 144.562C137.787 144.577 137.363 145.104 137.38 145.741C137.398 146.377 137.85 146.881 138.39 146.866Z" fill="#632100"/>
<path d="M134.384 139.751C135.142 139.73 135.736 138.99 135.712 138.098C135.687 137.206 135.053 136.499 134.295 136.52C133.537 136.541 132.943 137.281 132.967 138.173C132.992 139.065 133.626 139.772 134.384 139.751Z" fill="#632100"/>
<path d="M131.649 129.497C131.666 130.131 131.244 130.657 130.705 130.672C130.167 130.687 129.716 130.185 129.699 129.551C129.682 128.917 130.104 128.391 130.642 128.376C131.181 128.362 131.631 128.864 131.649 129.497Z" fill="#632100"/>
<path d="M124.512 139.788C124.528 140.385 124.131 140.88 123.624 140.894C123.117 140.908 122.693 140.435 122.676 139.839C122.66 139.242 123.058 138.747 123.564 138.733C124.071 138.719 124.496 139.192 124.512 139.788Z" fill="#632100"/>
<path d="M119.492 133.119C120.333 133.096 120.992 132.275 120.965 131.286C120.938 130.296 120.234 129.513 119.394 129.536C118.554 129.559 117.894 130.38 117.921 131.369C117.949 132.359 118.652 133.142 119.492 133.119Z" fill="#632100"/>
<path d="M118.53 125.589C118.546 126.168 118.159 126.649 117.667 126.662C117.175 126.676 116.763 126.217 116.747 125.638C116.732 125.058 117.118 124.578 117.61 124.564C118.102 124.551 118.514 125.009 118.53 125.589Z" fill="#632100"/>
<path d="M110.918 138.324C111.699 138.302 112.311 137.54 112.286 136.621C112.261 135.702 111.607 134.974 110.827 134.995C110.046 135.017 109.433 135.779 109.459 136.698C109.484 137.618 110.137 138.345 110.918 138.324Z" fill="#632100"/>
<path d="M111.004 127.447C111.028 128.297 110.461 129.002 109.739 129.022C109.017 129.042 108.412 128.368 108.389 127.518C108.366 126.668 108.932 125.963 109.654 125.943C110.376 125.923 110.981 126.596 111.004 127.447Z" fill="#632100"/>
<path d="M107.44 122.91C107.458 123.583 107.009 124.143 106.437 124.158C105.864 124.174 105.385 123.64 105.366 122.966C105.348 122.293 105.797 121.733 106.37 121.718C106.942 121.702 107.421 122.235 107.44 122.91Z" fill="#632100"/>
<path d="M101.449 127.716C101.467 128.356 101.04 128.888 100.495 128.903C99.9511 128.918 99.4958 128.411 99.4782 127.77C99.4606 127.129 99.8874 126.598 100.432 126.583C100.976 126.568 101.431 127.075 101.449 127.716Z" fill="#632100"/>
<path d="M97.7933 123.963C97.8141 124.721 97.3089 125.35 96.6648 125.368C96.0207 125.386 95.4817 124.785 95.4609 124.027C95.4401 123.269 95.9453 122.64 96.5894 122.622C97.2335 122.604 97.7725 123.205 97.7933 123.963Z" fill="#632100"/>
<path d="M94.3683 114.351C95.2083 114.328 95.8673 113.507 95.8401 112.518C95.813 111.529 95.11 110.746 94.27 110.769C93.4299 110.792 92.7709 111.613 92.7981 112.602C92.8252 113.591 93.5282 114.374 94.3683 114.351Z" fill="#632100"/>
<path d="M223.938 135.782C223.956 136.426 223.527 136.961 222.979 136.976C222.432 136.991 221.974 136.48 221.956 135.836C221.938 135.192 222.368 134.657 222.915 134.642C223.463 134.627 223.921 135.137 223.938 135.782Z" fill="#632100"/>
<path d="M219.396 131.77C219.413 132.414 218.984 132.95 218.436 132.965C217.888 132.98 217.429 132.469 217.412 131.824C217.394 131.179 217.824 130.644 218.372 130.629C218.919 130.614 219.378 131.124 219.396 131.77Z" fill="#632100"/>
<path d="M214.823 139.697C214.838 140.254 214.467 140.716 213.993 140.729C213.52 140.742 213.124 140.301 213.108 139.744C213.093 139.186 213.465 138.724 213.938 138.711C214.411 138.698 214.807 139.139 214.823 139.697Z" fill="#632100"/>
<path d="M210.054 139.396C210.081 140.382 209.424 141.2 208.587 141.223C207.749 141.246 207.049 140.466 207.022 139.48C206.994 138.494 207.651 137.676 208.489 137.653C209.326 137.63 210.027 138.41 210.054 139.396Z" fill="#632100"/>
<path d="M203.623 138.449C203.637 138.952 203.301 139.369 202.874 139.381C202.447 139.393 202.089 138.995 202.076 138.492C202.062 137.988 202.397 137.571 202.824 137.559C203.251 137.547 203.609 137.946 203.623 138.449Z" fill="#632100"/>
<path d="M199.728 140.657C199.754 141.587 199.134 142.359 198.344 142.38C197.554 142.402 196.893 141.666 196.868 140.736C196.842 139.806 197.462 139.034 198.252 139.013C199.042 138.991 199.703 139.727 199.728 140.657Z" fill="#632100"/>
<path d="M184.86 142.122C185.293 142.11 185.632 141.687 185.618 141.178C185.604 140.669 185.242 140.266 184.81 140.278C184.377 140.29 184.038 140.712 184.052 141.221C184.066 141.73 184.428 142.134 184.86 142.122Z" fill="#632100"/>
<path d="M183.003 141.65C183.025 142.444 182.496 143.102 181.822 143.121C181.148 143.139 180.584 142.511 180.562 141.717C180.54 140.923 181.069 140.265 181.743 140.247C182.417 140.228 182.981 140.856 183.003 141.65Z" fill="#632100"/>
<path d="M176.892 149.94C177.46 149.925 177.906 149.37 177.888 148.701C177.869 148.031 177.394 147.502 176.825 147.517C176.257 147.533 175.811 148.088 175.83 148.757C175.848 149.426 176.324 149.956 176.892 149.94Z" fill="#632100"/>
<path d="M173.301 142.655C173.323 143.452 172.791 144.113 172.114 144.132C171.437 144.15 170.871 143.519 170.849 142.722C170.827 141.925 171.358 141.264 172.035 141.245C172.712 141.227 173.279 141.858 173.301 142.655Z" fill="#632100"/>
<path d="M166.633 142.773C167.088 142.761 167.444 142.317 167.43 141.782C167.415 141.247 167.035 140.823 166.58 140.836C166.126 140.848 165.769 141.292 165.784 141.827C165.799 142.362 166.179 142.786 166.633 142.773Z" fill="#632100"/>
<path d="M164.952 145.277C164.973 146.061 164.451 146.711 163.785 146.729C163.119 146.747 162.562 146.127 162.541 145.343C162.519 144.56 163.041 143.909 163.707 143.891C164.373 143.873 164.93 144.493 164.952 145.277Z" fill="#632100"/>
<path d="M159.723 151.183C159.737 151.709 159.387 152.145 158.94 152.158C158.493 152.17 158.12 151.754 158.105 151.228C158.091 150.702 158.441 150.266 158.888 150.254C159.334 150.241 159.708 150.658 159.723 151.183Z" fill="#632100"/>
<path d="M156.676 139.326C156.695 140.03 156.226 140.613 155.628 140.63C155.031 140.646 154.53 140.089 154.511 139.385C154.491 138.682 154.961 138.098 155.558 138.081C156.156 138.065 156.656 138.622 156.676 139.326Z" fill="#632100"/>
<path d="M153.335 146.459C153.362 147.459 152.697 148.288 151.848 148.311C150.999 148.334 150.289 147.543 150.261 146.544C150.234 145.544 150.9 144.715 151.748 144.692C152.597 144.669 153.308 145.459 153.335 146.459Z" fill="#632100"/>
<path d="M148.203 144.485C149.009 144.463 149.642 143.675 149.616 142.726C149.59 141.776 148.915 141.024 148.108 141.047C147.302 141.069 146.669 141.856 146.695 142.806C146.721 143.756 147.396 144.507 148.203 144.485Z" fill="#632100"/>
<path d="M143.636 154.448C144.209 154.432 144.659 153.872 144.641 153.197C144.622 152.522 144.142 151.987 143.569 152.003C142.995 152.019 142.545 152.579 142.564 153.254C142.583 153.929 143.062 154.464 143.636 154.448Z" fill="#632100"/>
<path d="M140.58 152.574C140.601 153.331 140.097 153.959 139.454 153.976C138.811 153.994 138.273 153.395 138.252 152.638C138.231 151.881 138.736 151.253 139.379 151.235C140.021 151.218 140.56 151.817 140.58 152.574Z" fill="#632100"/>
<path d="M135.531 141.749C136.276 141.729 136.86 141.002 136.836 140.125C136.812 139.249 136.189 138.554 135.444 138.575C134.7 138.595 134.115 139.323 134.14 140.199C134.164 141.076 134.787 141.77 135.531 141.749Z" fill="#632100"/>
<path d="M132.659 136.342C132.675 136.93 132.283 137.417 131.784 137.431C131.285 137.445 130.867 136.979 130.851 136.392C130.835 135.805 131.227 135.317 131.726 135.303C132.225 135.29 132.642 135.755 132.659 136.342Z" fill="#632100"/>
<path d="M128.733 139.957C128.75 140.586 128.331 141.108 127.797 141.122C127.262 141.137 126.815 140.639 126.798 140.01C126.781 139.38 127.2 138.858 127.734 138.844C128.268 138.829 128.716 139.328 128.733 139.957Z" fill="#632100"/>
<path d="M121.357 145.964C121.929 145.949 122.377 145.39 122.359 144.717C122.34 144.044 121.862 143.512 121.29 143.527C120.719 143.543 120.27 144.101 120.289 144.774C120.307 145.447 120.786 145.98 121.357 145.964Z" fill="#632100"/>
<path d="M118.215 134.561C118.66 134.549 119.009 134.115 118.994 133.591C118.98 133.067 118.608 132.653 118.163 132.665C117.719 132.677 117.37 133.112 117.384 133.635C117.398 134.159 117.771 134.573 118.215 134.561Z" fill="#632100"/>
<path d="M111.805 141.221C111.82 141.774 111.452 142.232 110.983 142.245C110.514 142.258 110.121 141.82 110.106 141.268C110.091 140.716 110.459 140.257 110.928 140.244C111.397 140.232 111.79 140.669 111.805 141.221Z" fill="#632100"/>
<path d="M106.214 140.592C106.235 141.369 105.717 142.014 105.058 142.032C104.398 142.05 103.846 141.435 103.824 140.658C103.803 139.881 104.321 139.237 104.98 139.219C105.64 139.201 106.192 139.816 106.214 140.592Z" fill="#632100"/>
<path d="M104.204 132.495C104.225 133.283 103.7 133.937 103.031 133.955C102.362 133.973 101.802 133.349 101.78 132.562C101.759 131.774 102.284 131.12 102.953 131.102C103.622 131.084 104.182 131.707 104.204 132.495Z" fill="#632100"/>
<path d="M103.435 125.686C104.264 125.663 104.913 124.854 104.887 123.879C104.86 122.904 104.167 122.132 103.339 122.155C102.51 122.178 101.861 122.987 101.887 123.962C101.914 124.937 102.607 125.709 103.435 125.686Z" fill="#632100"/>
<path d="M100.969 120.868C100.989 121.596 100.504 122.2 99.8854 122.217C99.267 122.234 98.7494 121.657 98.7295 120.929C98.7095 120.201 99.1946 119.597 99.8131 119.58C100.432 119.563 100.949 120.139 100.969 120.868Z" fill="#632100"/>
<path d="M244.257 118.059C244.283 119.027 243.639 119.83 242.817 119.852C241.995 119.875 241.307 119.109 241.281 118.141C241.254 117.173 241.899 116.371 242.721 116.348C243.542 116.326 244.23 117.092 244.257 118.059Z" fill="#632100"/>
<path d="M237.022 109.762C237.545 109.748 237.956 109.237 237.939 108.621C237.922 108.005 237.484 107.517 236.961 107.531C236.437 107.545 236.027 108.057 236.044 108.673C236.061 109.289 236.499 109.777 237.022 109.762Z" fill="#632100"/>
<path d="M236.838 116.383C236.855 117.011 236.437 117.531 235.904 117.546C235.371 117.561 234.925 117.064 234.908 116.436C234.89 115.808 235.308 115.288 235.842 115.273C236.375 115.259 236.821 115.755 236.838 116.383Z" fill="#632100"/>
<path d="M232.887 112.202C232.908 112.95 232.409 113.57 231.775 113.588C231.14 113.605 230.608 113.013 230.588 112.265C230.567 111.518 231.066 110.898 231.7 110.88C232.335 110.863 232.867 111.455 232.887 112.202Z" fill="#632100"/>
<path d="M230.61 114.5C230.638 115.515 229.961 116.357 229.099 116.38C228.237 116.404 227.516 115.6 227.488 114.586C227.46 113.571 228.136 112.729 228.998 112.705C229.86 112.681 230.582 113.485 230.61 114.5Z" fill="#632100"/>
<path d="M229.226 126.706C229.242 127.273 228.864 127.743 228.382 127.757C227.901 127.77 227.498 127.321 227.483 126.754C227.467 126.188 227.845 125.717 228.326 125.704C228.807 125.691 229.211 126.139 229.226 126.706Z" fill="#632100"/>
<path d="M223.404 120.571C223.425 121.36 222.9 122.014 222.23 122.032C221.561 122.051 221 121.427 220.978 120.638C220.957 119.85 221.482 119.195 222.152 119.177C222.822 119.159 223.382 119.783 223.404 120.571Z" fill="#632100"/>
<path d="M219.991 123.894C220.012 124.671 219.494 125.317 218.834 125.335C218.173 125.353 217.62 124.737 217.599 123.959C217.577 123.182 218.096 122.537 218.756 122.518C219.417 122.5 219.97 123.116 219.991 123.894Z" fill="#632100"/>
<path d="M214.079 124.835C214.831 124.815 215.421 124.08 215.396 123.195C215.372 122.309 214.743 121.608 213.991 121.629C213.239 121.65 212.649 122.384 212.673 123.27C212.697 124.155 213.327 124.856 214.079 124.835Z" fill="#632100"/>
<path d="M213.135 135.06C213.986 135.037 214.653 134.206 214.625 133.205C214.598 132.204 213.886 131.411 213.036 131.435C212.185 131.458 211.518 132.289 211.546 133.29C211.573 134.291 212.285 135.084 213.135 135.06Z" fill="#632100"/>
<path d="M208.351 124.719C208.377 125.652 207.755 126.426 206.963 126.448C206.171 126.47 205.508 125.731 205.482 124.798C205.456 123.865 206.078 123.091 206.87 123.07C207.663 123.048 208.326 123.787 208.351 124.719Z" fill="#632100"/>
<path d="M203.561 125.304C204.238 125.286 204.769 124.624 204.747 123.827C204.725 123.03 204.158 122.399 203.481 122.418C202.804 122.436 202.273 123.098 202.295 123.895C202.317 124.692 202.884 125.323 203.561 125.304Z" fill="#632100"/>
<path d="M200.351 126.082C200.374 126.942 199.801 127.657 199.07 127.677C198.339 127.697 197.728 127.015 197.704 126.155C197.681 125.294 198.254 124.581 198.985 124.561C199.715 124.541 200.327 125.221 200.351 126.082Z" fill="#632100"/>
<path d="M196.301 136.115C196.327 137.075 195.687 137.871 194.872 137.894C194.057 137.916 193.374 137.156 193.348 136.196C193.322 135.236 193.961 134.44 194.777 134.417C195.592 134.395 196.274 135.155 196.301 136.115Z" fill="#632100"/>
<path d="M189.055 134.915C189.776 134.895 190.342 134.191 190.319 133.342C190.295 132.493 189.692 131.821 188.971 131.841C188.25 131.86 187.684 132.564 187.708 133.413C187.731 134.262 188.334 134.934 189.055 134.915Z" fill="#632100"/>
<path d="M185.49 125.906C185.512 126.707 184.979 127.37 184.299 127.389C183.62 127.408 183.051 126.774 183.029 125.974C183.007 125.173 183.54 124.51 184.22 124.491C184.9 124.472 185.468 125.106 185.49 125.906Z" fill="#632100"/>
<path d="M181.671 133.447C182.197 133.432 182.61 132.919 182.593 132.3C182.576 131.681 182.136 131.19 181.61 131.205C181.084 131.219 180.671 131.733 180.688 132.352C180.705 132.971 181.145 133.461 181.671 133.447Z" fill="#632100"/>
<path d="M177.815 136.897C177.837 137.69 177.308 138.348 176.634 138.367C175.96 138.385 175.396 137.757 175.374 136.964C175.353 136.17 175.881 135.512 176.555 135.494C177.229 135.475 177.793 136.103 177.815 136.897Z" fill="#632100"/>
<path d="M171.981 130.622C172.542 130.607 172.983 130.059 172.964 129.398C172.946 128.737 172.477 128.214 171.915 128.229C171.354 128.245 170.914 128.793 170.932 129.454C170.95 130.114 171.42 130.638 171.981 130.622Z" fill="#632100"/>
<path d="M168.569 138.185C168.589 138.898 168.114 139.49 167.508 139.507C166.902 139.523 166.396 138.959 166.376 138.246C166.356 137.533 166.831 136.941 167.437 136.924C168.043 136.908 168.55 137.472 168.569 138.185Z" fill="#632100"/>
<path d="M164.536 132.415C164.553 133.017 164.152 133.517 163.64 133.531C163.129 133.545 162.702 133.068 162.685 132.466C162.669 131.864 163.07 131.365 163.581 131.351C164.092 131.337 164.52 131.813 164.536 132.415Z" fill="#632100"/>
<path d="M160.182 138.234C160.203 138.992 159.698 139.621 159.054 139.638C158.41 139.656 157.871 139.056 157.85 138.298C157.829 137.54 158.334 136.911 158.978 136.893C159.622 136.875 160.161 137.475 160.182 138.234Z" fill="#632100"/>
<path d="M155.551 125.529C155.573 126.32 155.046 126.977 154.374 126.995C153.701 127.014 153.139 126.387 153.117 125.595C153.095 124.804 153.623 124.148 154.295 124.129C154.967 124.111 155.53 124.737 155.551 125.529Z" fill="#632100"/>
<path d="M150.622 124.965C150.644 125.77 150.108 126.437 149.425 126.456C148.741 126.475 148.169 125.838 148.147 125.033C148.125 124.228 148.661 123.561 149.345 123.542C150.028 123.523 150.6 124.16 150.622 124.965Z" fill="#632100"/>
<path d="M143.933 137.715C143.947 138.216 143.613 138.632 143.187 138.644C142.761 138.656 142.404 138.259 142.391 137.757C142.377 137.256 142.711 136.84 143.137 136.828C143.563 136.816 143.919 137.214 143.933 137.715Z" fill="#632100"/>
<path d="M139.308 125.646C139.324 126.244 138.926 126.741 138.418 126.755C137.91 126.768 137.485 126.295 137.468 125.697C137.452 125.099 137.85 124.602 138.358 124.589C138.867 124.575 139.292 125.048 139.308 125.646Z" fill="#632100"/>
<path d="M134.797 131.82C135.489 131.801 136.031 131.126 136.009 130.312C135.987 129.498 135.408 128.853 134.716 128.872C134.025 128.891 133.482 129.566 133.505 130.381C133.527 131.195 134.106 131.839 134.797 131.82Z" fill="#632100"/>
<path d="M132.584 124.374C132.6 124.935 132.225 125.402 131.748 125.415C131.271 125.428 130.872 124.983 130.856 124.421C130.841 123.859 131.215 123.393 131.692 123.38C132.17 123.367 132.569 123.812 132.584 124.374Z" fill="#632100"/>
<path d="M126.703 128.094C127.542 128.071 128.2 127.252 128.173 126.263C128.146 125.275 127.444 124.493 126.604 124.516C125.765 124.539 125.107 125.359 125.134 126.347C125.161 127.335 125.863 128.117 126.703 128.094Z" fill="#632100"/>
<path d="M121.742 134.432C121.769 135.433 121.103 136.262 120.253 136.286C119.403 136.309 118.692 135.517 118.664 134.516C118.637 133.516 119.304 132.686 120.153 132.663C121.003 132.64 121.714 133.432 121.742 134.432Z" fill="#632100"/>
<path d="M118.782 129.887C118.805 130.716 118.252 131.404 117.548 131.423C116.844 131.442 116.255 130.786 116.233 129.957C116.21 129.128 116.762 128.441 117.466 128.422C118.17 128.402 118.759 129.059 118.782 129.887Z" fill="#632100"/>
<path d="M116.574 120.824C117.162 120.808 117.624 120.233 117.605 119.54C117.586 118.847 117.093 118.299 116.505 118.315C115.916 118.331 115.455 118.906 115.474 119.599C115.493 120.292 115.985 120.84 116.574 120.824Z" fill="#632100"/>
<path d="M112.822 119.911C112.845 120.761 112.278 121.467 111.556 121.487C110.833 121.507 110.228 120.834 110.205 119.983C110.182 119.132 110.749 118.426 111.471 118.406C112.194 118.387 112.798 119.06 112.822 119.911Z" fill="#632100"/>
<path d="M107.136 119.31C107.156 120.024 106.68 120.616 106.074 120.633C105.468 120.649 104.96 120.084 104.941 119.371C104.921 118.657 105.397 118.065 106.003 118.048C106.61 118.032 107.117 118.597 107.136 119.31Z" fill="#632100"/>
<path d="M100.049 127.577C100.072 128.429 99.5046 129.135 98.7812 129.155C98.0577 129.175 97.4526 128.501 97.4292 127.649C97.4058 126.797 97.9731 126.091 98.6965 126.071C99.4196 126.051 100.025 126.725 100.049 127.577Z" fill="#632100"/>
<path d="M95.8384 118.505C95.8602 119.299 95.3315 119.957 94.6572 119.976C93.983 119.994 93.4189 119.366 93.3971 118.572C93.3754 117.779 93.9041 117.12 94.5783 117.102C95.2526 117.083 95.8166 117.712 95.8384 118.505Z" fill="#632100"/>
<path d="M244.6 122.671C244.621 123.423 244.12 124.046 243.481 124.064C242.843 124.081 242.308 123.486 242.288 122.734C242.267 121.983 242.768 121.359 243.407 121.341C244.045 121.324 244.579 121.919 244.6 122.671Z" fill="#632100"/>
<path d="M240.415 127.277C240.443 128.295 239.765 129.138 238.901 129.162C238.037 129.186 237.315 128.38 237.287 127.363C237.259 126.346 237.937 125.502 238.8 125.479C239.664 125.455 240.387 126.261 240.415 127.277Z" fill="#632100"/>
<path d="M234.932 116.991C234.954 117.784 234.425 118.443 233.751 118.462C233.076 118.48 232.512 117.851 232.49 117.058C232.468 116.264 232.998 115.605 233.672 115.587C234.346 115.568 234.91 116.197 234.932 116.991Z" fill="#632100"/>
<path d="M232.398 132.849C232.418 133.598 231.92 134.219 231.284 134.236C230.648 134.253 230.116 133.661 230.096 132.912C230.075 132.164 230.574 131.543 231.209 131.526C231.845 131.508 232.377 132.101 232.398 132.849Z" fill="#632100"/>
<path d="M223.439 124.204C224.049 124.188 224.527 123.592 224.507 122.874C224.488 122.156 223.977 121.588 223.367 121.604C222.757 121.621 222.279 122.217 222.299 122.935C222.319 123.653 222.829 124.221 223.439 124.204Z" fill="#632100"/>
<path d="M220.383 130.315C220.397 130.826 220.057 131.249 219.623 131.261C219.189 131.273 218.826 130.869 218.812 130.358C218.798 129.847 219.139 129.424 219.572 129.412C220.006 129.4 220.369 129.804 220.383 130.315Z" fill="#632100"/>
<path d="M217.017 124.985C217.043 125.94 216.407 126.732 215.595 126.755C214.784 126.777 214.106 126.021 214.079 125.066C214.053 124.111 214.689 123.319 215.501 123.296C216.312 123.274 216.99 124.03 217.017 124.985Z" fill="#632100"/>
<path d="M212.067 134.374C212.723 134.356 213.237 133.715 213.216 132.944C213.195 132.172 212.646 131.561 211.991 131.579C211.335 131.597 210.821 132.237 210.842 133.009C210.864 133.781 211.412 134.392 212.067 134.374Z" fill="#632100"/>
<path d="M207.201 131.081C207.86 131.063 208.377 130.419 208.356 129.642C208.335 128.866 207.783 128.251 207.123 128.27C206.464 128.288 205.947 128.932 205.968 129.708C205.989 130.484 206.541 131.099 207.201 131.081Z" fill="#632100"/>
<path d="M202.947 130.228C202.969 131.032 202.434 131.699 201.751 131.717C201.069 131.736 200.498 131.1 200.476 130.296C200.453 129.493 200.989 128.826 201.671 128.807C202.354 128.788 202.925 129.425 202.947 130.228Z" fill="#632100"/>
<path d="M200.24 138.717C200.262 139.524 199.724 140.194 199.038 140.213C198.353 140.232 197.779 139.593 197.756 138.785C197.734 137.978 198.272 137.308 198.958 137.289C199.644 137.271 200.218 137.91 200.24 138.717Z" fill="#632100"/>
<path d="M193.92 126.764C194.649 126.744 195.221 126.032 195.198 125.174C195.174 124.316 194.564 123.636 193.835 123.656C193.106 123.676 192.534 124.388 192.558 125.246C192.581 126.105 193.191 126.784 193.92 126.764Z" fill="#632100"/>
<path d="M191.373 130.858C191.399 131.777 190.786 132.54 190.005 132.562C189.224 132.583 188.57 131.855 188.545 130.936C188.52 130.016 189.133 129.254 189.913 129.232C190.695 129.211 191.348 129.939 191.373 130.858Z" fill="#632100"/>
<path d="M187.327 127.545C187.353 128.475 186.733 129.246 185.944 129.268C185.154 129.29 184.493 128.554 184.468 127.624C184.442 126.694 185.062 125.923 185.851 125.901C186.641 125.88 187.302 126.616 187.327 127.545Z" fill="#632100"/>
<path d="M182.632 138.166C183.283 138.148 183.794 137.512 183.773 136.745C183.752 135.978 183.207 135.371 182.555 135.389C181.904 135.407 181.393 136.043 181.414 136.81C181.435 137.577 181.98 138.184 182.632 138.166Z" fill="#632100"/>
<path d="M179.436 126.168C179.459 127.005 178.902 127.698 178.192 127.718C177.481 127.737 176.886 127.075 176.864 126.239C176.841 125.402 177.398 124.708 178.108 124.689C178.819 124.669 179.413 125.331 179.436 126.168Z" fill="#632100"/>
<path d="M175.314 140.834C175.34 141.761 174.723 142.53 173.935 142.551C173.148 142.573 172.49 141.839 172.464 140.913C172.439 139.986 173.057 139.217 173.843 139.196C174.63 139.174 175.289 139.908 175.314 140.834Z" fill="#632100"/>
<path d="M170.271 140.026C170.289 140.679 169.854 141.221 169.299 141.236C168.745 141.252 168.28 140.734 168.262 140.081C168.244 139.428 168.68 138.886 169.234 138.871C169.789 138.856 170.253 139.373 170.271 140.026Z" fill="#632100"/>
<path d="M164.826 131.619C164.84 132.145 164.49 132.582 164.043 132.594C163.596 132.606 163.222 132.19 163.208 131.664C163.193 131.138 163.543 130.701 163.99 130.689C164.437 130.677 164.811 131.093 164.826 131.619Z" fill="#632100"/>
<path d="M161.583 138.764C161.606 139.602 161.048 140.297 160.336 140.317C159.624 140.336 159.029 139.673 159.006 138.835C158.983 137.997 159.541 137.302 160.253 137.283C160.964 137.263 161.56 137.926 161.583 138.764Z" fill="#632100"/>
<path d="M156.337 139.742C156.354 140.341 155.954 140.838 155.445 140.852C154.936 140.866 154.51 140.392 154.494 139.792C154.477 139.193 154.876 138.695 155.386 138.681C155.894 138.668 156.321 139.142 156.337 139.742Z" fill="#632100"/>
<path d="M152.508 138.194C153.256 138.173 153.843 137.443 153.819 136.562C153.794 135.681 153.168 134.984 152.42 135.004C151.672 135.025 151.085 135.755 151.109 136.636C151.133 137.517 151.759 138.214 152.508 138.194Z" fill="#632100"/>
<path d="M150.041 123.061C150.061 123.813 149.56 124.438 148.921 124.455C148.282 124.473 147.747 123.877 147.726 123.125C147.706 122.373 148.207 121.748 148.846 121.731C149.485 121.713 150.02 122.309 150.041 123.061Z" fill="#632100"/>
<path d="M142.432 139.654C143.205 139.632 143.812 138.878 143.787 137.968C143.762 137.058 143.115 136.337 142.342 136.358C141.569 136.38 140.963 137.134 140.988 138.044C141.013 138.954 141.66 139.675 142.432 139.654Z" fill="#632100"/>
<path d="M142.807 121.709C142.833 122.663 142.197 123.454 141.387 123.477C140.576 123.499 139.898 122.744 139.872 121.789C139.846 120.835 140.482 120.044 141.292 120.022C142.102 119.999 142.78 120.755 142.807 121.709Z" fill="#632100"/>
<path d="M137.908 132.762C137.928 133.492 137.442 134.097 136.822 134.114C136.203 134.131 135.684 133.554 135.664 132.824C135.644 132.094 136.13 131.489 136.75 131.472C137.37 131.455 137.888 132.033 137.908 132.762Z" fill="#632100"/>
<path d="M134.901 122.916C135.7 122.894 136.327 122.113 136.301 121.172C136.275 120.232 135.606 119.487 134.807 119.509C134.008 119.531 133.381 120.311 133.407 121.252C133.433 122.193 134.102 122.937 134.901 122.916Z" fill="#632100"/>
<path d="M130.534 131.294C131.202 131.276 131.726 130.624 131.704 129.838C131.682 129.052 131.124 128.43 130.456 128.448C129.788 128.466 129.265 129.118 129.286 129.904C129.308 130.69 129.867 131.313 130.534 131.294Z" fill="#632100"/>
<path d="M125.671 135.487C126.437 135.466 127.038 134.718 127.014 133.815C126.989 132.913 126.348 132.199 125.581 132.22C124.815 132.241 124.214 132.989 124.238 133.892C124.263 134.794 124.905 135.508 125.671 135.487Z" fill="#632100"/>
<path d="M125.166 120.587C125.754 120.571 126.214 119.997 126.196 119.305C126.177 118.613 125.685 118.065 125.097 118.081C124.509 118.098 124.048 118.671 124.067 119.363C124.086 120.055 124.578 120.603 125.166 120.587Z" fill="#632100"/>
<path d="M120.834 130.447C120.85 131.022 120.467 131.499 119.979 131.512C119.49 131.525 119.082 131.07 119.066 130.496C119.05 129.921 119.433 129.444 119.922 129.431C120.41 129.417 120.818 129.872 120.834 130.447Z" fill="#632100"/>
<path d="M118.124 127.069C118.138 127.581 117.797 128.007 117.361 128.019C116.925 128.031 116.561 127.625 116.547 127.112C116.533 126.599 116.875 126.174 117.31 126.162C117.745 126.15 118.11 126.556 118.124 127.069Z" fill="#632100"/>
<path d="M114.485 123.702C114.504 124.396 114.042 124.971 113.453 124.987C112.864 125.003 112.372 124.454 112.353 123.761C112.334 123.068 112.796 122.493 113.384 122.476C113.973 122.46 114.466 123.009 114.485 123.702Z" fill="#632100"/>
<path d="M111.602 118.062C111.625 118.892 111.072 119.58 110.367 119.599C109.662 119.619 109.072 118.961 109.05 118.132C109.027 117.302 109.58 116.613 110.285 116.594C110.99 116.575 111.58 117.232 111.602 118.062Z" fill="#632100"/>
<path d="M104.235 120.462C104.771 120.447 105.191 119.924 105.173 119.294C105.156 118.664 104.708 118.165 104.173 118.179C103.637 118.194 103.217 118.717 103.234 119.347C103.252 119.978 103.7 120.477 104.235 120.462Z" fill="#632100"/>
<path d="M101.479 113.604C101.497 114.255 101.063 114.795 100.51 114.81C99.9568 114.825 99.494 114.31 99.4761 113.659C99.4583 113.008 99.8921 112.467 100.445 112.452C100.998 112.437 101.461 112.953 101.479 113.604Z" fill="#632100"/>
<path d="M97.6085 115.866C98.3385 115.846 98.9112 115.133 98.8876 114.274C98.864 113.414 98.2531 112.734 97.5231 112.754C96.7931 112.774 96.2204 113.487 96.244 114.346C96.2676 115.206 96.8785 115.886 97.6085 115.866Z" fill="#632100"/>
<path d="M92.856 115.519C92.8729 116.136 92.4622 116.647 91.9383 116.661C91.4145 116.676 90.9763 116.187 90.9594 115.571C90.9425 114.955 91.3535 114.443 91.877 114.429C92.4009 114.414 92.8391 114.902 92.856 115.519Z" fill="#632100"/>
<path opacity="0.15" d="M103.51 115.24C107.512 122.013 111.689 128.11 117.948 132.193C123.997 136.141 131.093 138.089 137.973 137.594C145.411 137.058 151.907 132.657 158.553 129.175C161.899 127.422 165.34 125.858 168.962 125.078C172.895 124.231 176.764 124.614 180.709 125.31C185.094 126.083 189.432 127.344 193.85 127.833C197.762 128.266 201.701 127.864 205.583 127.31C218.514 125.466 230.623 119.829 241.212 111.024C242.209 110.195 243.187 109.336 244.156 108.463C242.387 107.021 240.652 106.664 240.652 106.664L174.03 112.824L93.7489 99.7563C92.7102 101.048 91.8889 102.327 91.249 103.584C96.4017 105.704 100.233 109.694 103.51 115.24Z" fill="#4A170E"/>
<path d="M98.8569 94.8027C98.8569 94.8027 93.0749 96.36 97.592 100.774C102.109 105.188 109.53 112.304 120.886 127.597C132.243 142.889 136.77 138.367 152.038 128.878C167.307 119.39 178.136 118.214 191.159 122.563C204.182 126.912 238.854 117.62 244.496 107.682C250.137 97.7427 250.117 99.5186 249.124 88.0018C248.132 76.485 104.789 73.4071 98.8569 94.8027Z" fill="#D69F13"/>
<path d="M95.0135 93.7853C95.0135 93.7853 89.2315 95.3425 93.7485 99.7567C98.2656 104.171 106.427 108.328 117.783 123.621C129.14 138.914 132.926 137.349 148.195 127.861C163.463 118.373 174.292 117.197 187.315 121.546C200.338 125.894 235.01 116.603 240.652 106.664C246.293 96.7253 246.273 98.5008 245.281 86.9844C244.288 75.4676 100.946 72.3897 95.0135 93.7853Z" fill="#FDDC30"/>
<path d="M203.403 117.893C205.893 117.281 208.35 116.035 210.561 114.6C212.391 113.414 214.396 112.094 215.935 110.437C216.748 109.562 217.048 108.649 217.634 107.604C219.619 104.064 224.907 101.964 228.399 103.172C229.703 103.624 230.763 103.96 232.136 104.012C233.362 104.058 234.912 104.157 236.025 104.86C237.929 106.062 234.511 107.875 233.667 108.084C231.313 108.668 229.752 110.245 227.704 111.592C226.625 112.301 225.549 113.012 224.459 113.699C222.686 114.815 220.956 115.263 218.985 115.7C214.196 116.762 209.444 119.019 204.532 119.158C204.026 119.172 200.68 119.157 200.926 118.17C201.105 117.451 202.861 117.937 203.403 117.893Z" fill="#FFFFFD"/>
<path d="M131.209 132.45C128.789 131.903 127.021 127.464 125.522 125.484C124.181 123.712 123.61 122.967 123.214 120.578C125.897 118.602 130.368 121.108 133.281 121.465C136.987 121.921 139.852 121.846 143.322 120.328C144.995 119.596 146.466 118.808 148.066 117.951C150.17 116.823 152.508 116.631 154.644 115.552C156.164 114.785 159.739 111.752 159.611 115.957C159.51 119.285 153.581 121.266 151.488 122.066C147.795 123.478 144.916 125.267 141.663 127.678C137.597 130.692 134.807 132.351 131.209 132.45Z" fill="#FFFFFD"/>
<path opacity="0.15" d="M93.7486 99.7568C97.196 103.126 102.769 106.351 110.262 114.486C115.643 116.399 121.27 117.562 126.405 118.619C133.377 120.053 140.314 119.884 146.971 116.931C152.016 114.694 156.204 109.508 161.89 109.312C164.056 109.237 165.723 110.262 167.414 111.774C169.219 113.388 171.048 114.675 173.227 115.449C178.435 117.298 184.041 116.984 189.356 116.193C194.71 115.395 199.975 113.856 205.206 112.353C208.057 111.534 210.919 110.567 213.435 108.755C215.532 107.245 216.735 105.223 218.174 102.958C219.492 100.882 221.009 98.7779 223.285 98.2705C225.436 97.791 227.554 98.8122 229.491 99.8428C232.518 101.453 234.96 102.809 238.379 102.64C240.098 102.555 241.792 102.19 243.476 101.763C246.24 96.8929 246.068 96.1057 245.281 86.984C244.289 75.4672 100.946 72.3893 95.0135 93.7849C95.0135 93.7853 89.2315 95.3426 93.7486 99.7568Z" fill="#4A170E"/>
<path d="M96.0239 85.0057C96.0239 85.0057 84.1546 93.3101 98.266 104.171C112.377 115.032 149.09 123.947 154.486 104.353C159.882 84.76 96.0239 85.0057 96.0239 85.0057Z" fill="#FF2B00"/>
<path d="M96.0239 85.0057C96.0239 85.0057 87.7705 89.9802 101.882 100.842C115.993 111.703 148.873 118.898 154.269 99.305C159.666 79.711 96.0239 85.0057 96.0239 85.0057Z" fill="#ED5A28"/>
<path opacity="0.15" d="M96.024 85.0058C96.024 85.0058 91.1454 87.9482 95.3074 94.2463C95.7934 94.188 96.2823 94.2032 96.7726 94.3432C98.2645 94.7697 99.6506 96.0878 100.639 97.4204C101.374 98.4114 102.062 100.469 103.092 101.056C104.564 101.896 106.044 99.5573 107.297 99.0093C111.747 97.062 112.401 102.588 115.088 104.997C117.8 107.428 121.01 102.088 123.119 100.663C124.613 99.6538 126.192 100.542 126.823 102.314C127.268 103.565 127.252 104.905 127.11 106.221C129.835 110.059 133 112.274 136.661 108.532C139.372 105.76 141.497 102.855 145.423 103.019C146.67 103.071 148.072 104.234 147.992 105.88C147.948 106.788 147.766 107.633 147.48 108.425C150.699 106.459 153.114 103.497 154.269 99.3039C159.666 79.7111 96.024 85.0058 96.024 85.0058Z" fill="#4A0E3A"/>
<path d="M159.057 97.8306C158.743 86.3907 171.811 76.7511 188.245 76.3001C204.679 75.849 218.255 84.7572 218.569 96.1971C218.883 107.637 205.725 113.988 189.291 114.439C172.858 114.89 159.371 109.271 159.057 97.8306Z" fill="#B362A9"/>
<path d="M161.485 95.4033C161.207 85.2666 173.745 76.6985 189.491 76.2663C205.237 75.8341 218.226 83.7015 218.505 93.8382C218.783 103.975 206.164 109.629 190.419 110.061C174.673 110.493 161.763 105.54 161.485 95.4033Z" fill="#EDBFE6"/>
<path d="M163.338 93.2737C163.091 84.2837 175.228 76.6573 190.446 76.2396C205.664 75.8219 218.201 82.7711 218.448 91.7611C218.694 100.751 206.487 105.793 191.269 106.211C176.051 106.629 163.585 102.264 163.338 93.2737Z" fill="#E499DB"/>
<path d="M90.6117 71.1861C89.0007 71.612 86.5239 73.0892 85.2542 74.2262C81.0656 77.976 78.2621 82.7703 79.5258 89.2451C79.7485 90.3865 80.1414 91.753 80.8623 92.6244C85.3627 98.0633 92.8152 90.1703 97.8673 91.1269C98.7 91.2845 100.275 92.4308 100.641 93.3572C101.344 95.1332 99.7775 97.4166 102.066 98.5523C104.861 99.9403 106.541 94.1738 109.485 95.1449C111.362 95.7645 111.96 98.3615 112.792 99.9961C113.75 101.878 116.796 102.47 118.471 102.075C121.408 101.383 122.105 96.1089 126.104 97.136C129.777 98.079 127.604 103.542 128.425 105.874C129.008 107.532 130.736 108.56 132.104 108.957C132.626 109.109 133.153 109.325 133.689 109.295C135.991 109.166 138.114 106.127 139.7 104.56C141.284 102.996 143.222 101.879 144.852 100.364C146.205 99.1063 148.691 97.6693 150.515 98.5749C154.8 100.702 146.127 105.494 150.853 107.562C154.09 108.979 155.538 104.955 157.225 102.782C159.003 100.493 162.123 98.949 164.783 98.927C167.125 98.9081 169.988 100.167 171.67 102.144C172.183 102.749 172.148 103.622 172.52 104.295C173.759 106.538 176.088 108.612 178.429 108.71C179.783 108.766 181.913 108.918 183.115 108.119C186.086 106.147 187.044 101.801 190.8 100.917C194.22 100.111 194.81 104.981 197.811 105.408C200.441 105.781 199.787 99.6464 203.601 100.271C205.931 100.653 208.778 105.557 211.312 104.459C212.086 104.124 211.869 102.305 211.941 101.585C212.163 99.3925 212.465 97.2345 214.223 96.0302C215.436 95.1992 217.221 95.2115 218.587 94.9429C222.011 94.2697 225.055 94.4857 228.428 95.7452C230.279 96.4365 231.943 97.6261 233.868 98.1774C237.304 99.1604 242.916 99.9453 246.354 98.9687C248.807 98.2719 251.475 95.3551 253.485 93.5556C256.374 90.969 258.859 87.2084 259.171 82.7343C259.304 80.828 257.889 79.5997 256.749 78.5247C254.752 76.6421 252.716 74.8671 250.496 73.4001C249.096 72.4747 248.251 70.892 246.636 70.3391C245.031 69.7883 243.486 69.6242 241.825 69.6555C232.465 69.8304 224.005 75.2331 215.597 79.4097C205.551 84.4004 195.572 89.1856 184.565 90.4148C177.189 91.2381 169.819 90.5097 162.48 89.435C147.084 87.1813 132.229 82.2565 117.071 78.6018C110.414 76.9969 104.011 74.6209 97.4897 72.4694C95.3004 71.7469 93.0028 70.5543 90.6117 71.1861Z" fill="#47C200"/>
<path d="M90.5501 68.942C88.9391 69.3679 86.4623 70.845 85.1926 71.9821C81.004 75.7318 78.2004 80.5262 79.4641 87.0009C79.6869 88.1423 80.0798 89.5089 80.8006 90.3803C85.3011 95.8191 92.7535 87.9262 97.8057 88.8827C98.6384 89.0399 100.214 90.1866 100.58 91.113C101.283 92.8891 99.7158 95.1724 102.004 96.3081C104.799 97.6961 106.479 91.9296 109.423 92.9008C111.3 93.5204 111.898 96.1174 112.73 97.7519C113.688 99.6341 116.734 100.226 118.409 99.831C121.346 99.1389 122.043 93.8648 126.043 94.8919C129.716 95.8349 127.543 101.298 128.363 103.629C128.947 105.287 130.674 106.316 132.042 106.713C132.564 106.864 133.092 107.081 133.627 107.051C135.929 106.921 138.052 103.883 139.638 102.316C141.222 100.752 143.161 99.6346 144.791 98.1194C146.143 96.8621 148.63 95.4251 150.454 96.3307C154.738 98.4583 146.066 103.25 150.792 105.318C154.028 106.735 155.476 102.711 157.164 100.538C158.942 98.2486 162.062 96.7048 164.722 96.6828C167.063 96.6639 169.926 97.9226 171.608 99.9C172.122 100.505 172.087 101.378 172.458 102.05C173.697 104.293 176.026 106.368 178.367 106.466C179.721 106.522 181.851 106.674 183.054 105.875C186.025 103.902 186.983 99.5568 190.738 98.6724C194.158 97.8666 194.749 102.737 197.75 103.163C200.379 103.537 199.726 97.4019 203.539 98.0267C205.87 98.4085 208.717 103.313 211.251 102.215C212.024 101.88 211.807 100.061 211.88 99.3408C212.101 97.1483 212.403 94.9903 214.161 93.786C215.374 92.955 217.159 92.9673 218.525 92.6987C221.949 92.0255 224.993 92.2416 228.366 93.501C230.218 94.1923 231.881 95.3819 233.806 95.9333C237.242 96.9162 242.855 97.7011 246.293 96.7246C248.745 96.0278 251.413 93.1109 253.423 91.3114C256.313 88.7248 258.797 84.9643 259.109 80.4902C259.242 78.5838 257.827 77.3555 256.687 76.2806C254.691 74.398 252.655 72.6226 250.435 71.1559C249.034 70.2306 248.189 68.6478 246.575 68.0949C244.97 67.5446 243.424 67.3801 241.763 67.4114C232.403 67.5862 223.944 72.9889 215.535 77.1656C205.489 82.1563 195.51 86.9414 184.503 88.1706C177.128 88.994 169.757 88.2655 162.418 87.1909C147.023 84.9372 132.167 80.0119 117.009 76.3576C110.352 74.7528 103.949 72.3767 97.4281 70.2252C95.2388 69.5027 92.9412 68.3101 90.5501 68.942Z" fill="#3DA600"/>
<path opacity="0.15" d="M250.11 71.5203C247.992 68.9283 245.991 67.3328 241.764 67.4117C232.404 67.5866 223.944 72.9893 215.535 77.1659C205.49 82.1566 195.511 86.9418 184.504 88.171C177.128 88.9943 169.757 88.2659 162.418 87.1912C147.023 84.9371 132.168 80.0123 117.01 76.358C110.353 74.7531 103.949 72.3771 97.4285 70.2256C95.2388 69.5031 92.9415 68.3101 90.5484 68.9428C87.1729 69.8372 86.393 71.4021 84.7599 74.3448C83.5021 76.6115 80.8099 78.1746 80.962 81.2757C81.2491 87.1377 83.7776 77.6918 85.6423 80.5713C86.9903 82.6529 83.5206 86.0662 84.4333 88.0647C85.4563 90.3047 89.0446 85.3631 90.7849 85.023C90.7085 85.5019 90.945 86.1563 90.884 86.6266C92.78 87.0208 93.3668 88.262 95.1513 86.8659C97.0905 85.3484 97.823 82.3732 100.341 85.7143C102.436 88.4931 100.552 93.5961 105.273 92.7085C106.391 90.4938 106.448 86.9175 109.347 87.2894C110.083 87.3839 110.537 87.814 111.155 88.3297C112.78 89.6833 113.897 91.4782 115.238 93.0097C117.204 95.2532 117.803 94.4632 120.41 93.5034C122.495 92.7354 124.647 91.9689 126.858 92.4805C129.006 92.9776 131.792 94.6928 132.878 97.0298C133.067 97.4357 133.195 97.8674 133.27 98.3103C133.603 98.2726 133.946 98.2321 134.273 98.0913C134.9 97.8222 135.5 97.4682 136.137 97.2302C137.488 96.7261 138.716 96.6908 140.116 96.9071C140.375 96.9473 140.608 97.0495 140.819 97.1911C142.037 96.3237 143.302 95.5599 144.667 95.0918C147.45 94.1369 150.416 94.7515 152.551 97.1895C153.252 97.99 153.783 98.9649 154.075 100.038C154.136 99.9913 154.197 99.948 154.259 99.8989C155.418 98.9817 156.485 97.916 157.722 97.1382C159.805 95.8286 161.968 95.6097 163.861 96.7485C164.088 96.7206 164.313 96.6993 164.534 96.6916C166.686 94.9711 169.274 94.8127 171.931 96.4143C172.856 96.9714 174.263 98.5175 175.615 99.4626C176.594 99.3181 177.618 99.4325 178.661 99.6553C179.614 99.0642 180.65 99.4942 181.341 100.356C181.558 100.424 181.776 100.496 181.994 100.573C182.477 100.252 182.965 99.9381 183.413 99.5788C184.904 98.383 186.292 96.9406 187.841 95.8514C189.776 94.4904 192.424 94.2442 194.516 95.309C195.317 95.7161 196.08 96.6177 196.862 97.4184C197.411 95.5316 198.73 94.1442 200.986 93.9455C203.614 93.7142 206.309 94.8179 208.788 96.0137C208.119 95.6912 211.42 91.4172 211.789 91.1278C214.023 89.3757 215.424 90.6105 217.67 90.3227C220.905 89.9085 224.165 84.3709 227.552 89.2893C228.869 91.2028 227.621 91.197 229.916 91.8692C231.267 92.2653 232.777 90.7791 234.105 91.4109C234.398 88.8507 232.089 87.0281 234.602 85.5059C236.487 84.3646 237.66 85.8367 238.501 87.6637C239.551 89.9474 239.075 93.2185 241.363 94.4526C242.993 95.3312 247.515 94.0078 248.807 92.7485C253.492 88.1825 239.307 85.7376 244.182 82.0037C247.144 79.7351 247.359 84.9063 249.325 85.0642C250.635 85.1695 252.801 82.3856 253.911 81.6975C252.814 79.9285 249.266 80.6689 249.45 78.1104C249.7 74.6349 252.095 78.2236 252.771 78.3164C255.734 78.7237 253.691 76.117 252.973 75.2109C251.887 73.8409 250.988 72.5952 250.11 71.5203Z" fill="#4A0E3A"/>
<path d="M84.9842 72.0698C84.9842 72.0698 83.152 5.3186 153.953 3.37523C252.584 0.667974 250.367 71.0271 250.367 71.0271C250.367 71.0271 223.046 95.9836 164.741 93.43C106.435 90.8767 84.9842 72.0698 84.9842 72.0698Z" fill="#F8A92D"/>
<path d="M209.655 77.0995C209.467 77.2586 209.27 77.4073 209.061 77.5432C203.851 80.9414 198.066 80.1576 192.436 80.2268C185.995 80.3056 182.32 87.5369 176.062 87.994C172.15 88.2798 169.621 84.3784 165.872 83.7975C162.339 83.2499 157.763 83.654 154.291 84.3591C147.232 85.7931 139.67 83.2925 134.051 77.9566C130.554 74.6362 126.913 73.8535 122.771 76.5456C120.435 78.0638 118.26 79.1885 115.379 77.4061C112.771 75.7934 112.233 72.0497 109.468 70.422C106.762 68.8284 103.637 68.9252 100.8 68.1706C97.3375 67.2492 96.4455 65.7641 95.1414 62.1259C94.2489 59.6362 93.6915 56.9752 92.6552 54.5543C92.3614 53.868 88.6987 48.9981 88.7204 48.9305C84.7028 61.6523 84.9846 72.0697 84.9846 72.0697C84.9846 72.0697 106.436 90.8767 164.741 93.4299C223.047 95.9836 250.367 71.0271 250.367 71.0271C250.367 71.0271 250.591 63.8824 247.707 54.2349C247.795 54.5288 240.273 58.851 239.241 59.3798C236.136 60.9705 233.53 62.4324 230.994 65.1992C229.714 66.5953 228.936 68.6247 227.4 69.7466C225.47 71.1565 223.013 71.4999 220.821 71.5996C218.461 71.7069 215.66 71.3694 213.563 72.8937C212.053 73.9904 211.129 75.854 209.655 77.0995Z" fill="#FFC042"/>
<path d="M179.568 15.0596C179.568 15.0596 182.447 14.5381 184.98 16.1627C187.512 17.7869 186.245 21.5193 183.611 20.247C180.976 18.9746 179.568 15.0596 179.568 15.0596Z" fill="#FDE466"/>
<path opacity="0.15" d="M183.61 20.2479C184.983 20.9107 185.983 20.2142 186.269 19.1662C184.529 20.3953 181.413 17.1118 180.822 14.9833C180.064 14.973 179.567 15.0606 179.567 15.0606C179.567 15.0606 180.976 18.9755 183.61 20.2479Z" fill="#4A170E"/>
<path d="M223.578 32.6158C223.578 32.6158 226.476 32.2558 228.942 34.019C231.407 35.7822 229.991 39.4379 227.409 38.0204C224.827 36.6028 223.578 32.6158 223.578 32.6158Z" fill="#FDE466"/>
<path opacity="0.15" d="M227.409 38.0209C228.754 38.7592 229.781 38.1195 230.109 37.0891C228.322 38.2196 225.34 34.7671 224.835 32.6092C224.078 32.5565 223.578 32.6163 223.578 32.6163C223.578 32.6163 224.827 36.6034 227.409 38.0209Z" fill="#4A170E"/>
<path d="M119.091 22.8641C119.091 22.8641 120.288 19.7459 122.817 18.1677C125.346 16.5895 127.302 19.92 124.967 21.7953C122.631 23.6707 119.091 22.8641 119.091 22.8641Z" fill="#FDE466"/>
<path opacity="0.15" d="M124.966 21.7954C126.182 20.8182 126.233 19.4473 125.646 18.5804C125.57 20.9754 121.548 22.1991 119.718 21.5892C119.298 22.327 119.09 22.8638 119.09 22.8638C119.09 22.8638 122.631 23.6708 124.966 21.7954Z" fill="#4A170E"/>
<path d="M173.574 9.81401C173.574 9.81401 172.944 13.1828 170.733 15.3552C168.523 17.5272 166.016 14.7148 167.983 12.2964C169.951 9.87794 173.574 9.81401 173.574 9.81401Z" fill="#FDE466"/>
<path opacity="0.15" d="M173.428 9.81981C172.893 10.7926 172.411 11.8072 171.728 12.6775C170.455 14.3012 168.816 14.8202 167.284 13.9164C167.124 15.7222 169.018 17.0406 170.734 15.3541C172.945 13.1817 173.575 9.81292 173.575 9.81292C173.575 9.81292 173.521 9.8144 173.428 9.81981Z" fill="#4A170E"/>
<path d="M141.376 32.6008C141.376 32.6008 140.746 35.9695 138.535 38.1419C136.325 40.3139 133.818 37.5015 135.785 35.0831C137.753 32.6647 141.376 32.6008 141.376 32.6008Z" fill="#FDE466"/>
<path opacity="0.15" d="M141.231 32.6078C140.696 33.5806 140.213 34.5952 139.531 35.4655C138.257 37.0892 136.618 37.6082 135.086 36.7044C134.927 38.5102 136.82 39.8286 138.536 38.1425C140.747 35.9701 141.377 32.6013 141.377 32.6013C141.377 32.6013 141.323 32.602 141.231 32.6078Z" fill="#4A170E"/>
<path d="M159.985 24.562C159.985 24.562 159.219 28.6541 156.534 31.2931C153.849 33.9317 150.803 30.5152 153.193 27.5773C155.584 24.6399 159.985 24.562 159.985 24.562Z" fill="#FDE466"/>
<path opacity="0.15" d="M159.807 24.5706C159.157 25.7523 158.571 26.9853 157.742 28.0421C156.195 30.0142 154.204 30.6448 152.343 29.5468C152.149 31.7402 154.45 33.3421 156.534 31.2936C159.22 28.6547 159.986 24.5625 159.986 24.5625C159.986 24.5625 159.919 24.5639 159.807 24.5706Z" fill="#4A170E"/>
<path d="M206.623 28.0689C206.623 28.0689 208.384 31.7382 211.619 33.386C214.854 35.0338 216.914 30.7624 213.886 28.7317C210.858 26.7011 206.623 28.0689 206.623 28.0689Z" fill="#FDE466"/>
<path opacity="0.15" d="M206.796 28.0184C207.715 28.9374 208.586 29.9263 209.646 30.6671C211.623 32.0494 213.689 32.0008 215.196 30.3388C215.933 32.3768 214.131 34.6654 211.62 33.3859C208.384 31.7382 206.623 28.0689 206.623 28.0689C206.623 28.0689 206.686 28.0488 206.796 28.0184Z" fill="#4A170E"/>
<path d="M201.017 38.5762C201.017 38.5762 201.674 41.7374 203.792 43.7636C205.911 45.7898 208.213 43.1303 206.318 40.871C204.422 38.6121 201.017 38.5762 201.017 38.5762Z" fill="#FDE466"/>
<path opacity="0.15" d="M201.157 38.5823C201.678 39.4927 202.151 40.4431 202.809 41.2562C204.036 42.7733 205.587 43.25 207.009 42.3904C207.193 44.086 205.439 45.3376 203.794 43.7646C201.676 41.7383 201.019 38.5771 201.019 38.5771C201.019 38.5771 201.07 38.5778 201.157 38.5823Z" fill="#4A170E"/>
<path d="M190.638 32.2034C190.638 32.2034 192.555 35.7639 192.253 39.8813C191.951 43.998 187.763 44.0872 187.679 40.0016C187.595 35.916 190.638 32.2034 190.638 32.2034Z" fill="#FDE466"/>
<path opacity="0.15" d="M190.518 32.3577C190.77 33.742 191.098 35.1103 191.15 36.5544C191.247 39.2492 190.227 41.3547 188.263 42.1164C189.443 43.8447 192.018 43.078 192.253 39.8817C192.555 35.7647 190.638 32.2038 190.638 32.2038C190.638 32.2038 190.593 32.2593 190.518 32.3577Z" fill="#4A170E"/>
<path d="M155.699 10.4981C155.699 10.4981 155.353 13.7672 153.416 16.0619C151.48 18.3566 148.89 15.942 150.577 13.4382C152.264 10.9348 155.699 10.4981 155.699 10.4981Z" fill="#FDE466"/>
<path opacity="0.15" d="M155.559 10.5201C155.124 11.5007 154.742 12.5159 154.16 13.414C153.073 15.0902 151.555 15.7536 150.032 15.0528C150.017 16.7865 151.913 17.844 153.416 16.0625C155.352 13.7674 155.698 10.4987 155.698 10.4987C155.698 10.4987 155.647 10.5054 155.559 10.5201Z" fill="#4A170E"/>
<path d="M140.043 16.6687C140.043 16.6687 140.436 19.9379 139.082 22.7547C137.729 25.5714 134.697 24.0331 135.765 21.0908C136.833 18.1488 140.043 16.6687 140.043 16.6687Z" fill="#FDE466"/>
<path opacity="0.15" d="M139.915 16.7322C139.714 17.8146 139.572 18.9146 139.21 19.963C138.536 21.9194 137.222 23.029 135.6 22.82C135.971 24.5024 138.032 24.9414 139.083 22.7547C140.437 19.9379 140.043 16.6687 140.043 16.6687C140.043 16.6687 139.995 16.6908 139.915 16.7322Z" fill="#4A170E"/>
<path d="M199.023 15.76C199.023 15.76 199.417 19.0292 198.063 21.846C196.709 24.6627 193.678 23.1244 194.745 20.1821C195.813 17.2405 199.023 15.76 199.023 15.76Z" fill="#FDE466"/>
<path opacity="0.15" d="M198.895 15.8239C198.694 16.9063 198.552 18.0063 198.19 19.0547C197.516 21.0111 196.202 22.1207 194.581 21.9117C194.951 23.5941 197.012 24.0331 198.063 21.8464C199.417 19.0296 199.024 15.76 199.024 15.76C199.024 15.76 198.976 15.7825 198.895 15.8239Z" fill="#4A170E"/>
<path d="M175.603 31.0367C175.603 31.0367 175.996 34.306 174.642 37.1227C173.288 39.9394 170.257 38.4012 171.325 35.4588C172.393 32.5169 175.603 31.0367 175.603 31.0367Z" fill="#FDE466"/>
<path opacity="0.15" d="M175.474 31.1003C175.274 32.1827 175.131 33.2826 174.77 34.3311C174.096 36.2874 172.782 37.3971 171.161 37.1881C171.531 38.8704 173.592 39.3094 174.643 37.1227C175.997 34.306 175.603 31.0367 175.603 31.0367C175.603 31.0367 175.555 31.0589 175.474 31.1003Z" fill="#4A170E"/>
<path opacity="0.15" d="M117.252 61.4835C117.816 61.1402 118.376 60.8032 118.932 60.4916C122.733 58.3584 126.579 56.328 130.454 54.3855C136.637 51.286 142.937 48.1963 149.415 46.0305C154.18 44.4375 159.046 43.2927 163.838 41.8186C171.187 39.5578 178.843 36.473 183.654 29.7539C183.925 27.9519 183.804 26.0856 183.136 24.2367C182.48 22.4234 180.893 21.7453 179.741 20.5918C174.358 15.2025 165.113 9.53259 157.899 8.41491C154.154 7.83514 150.422 7.9037 146.679 8.0885C143.529 8.24355 140.166 8.58854 137.135 9.6731C128.625 12.7185 120.94 17.3811 113.617 23.2657C106.372 29.087 99.1977 35.7701 96.7283 46.2075C95.7165 50.4861 95.2845 54.6442 98.144 58.2189C102.873 64.1311 110.934 62.3113 117.252 61.4835Z" fill="#FFD99E"/>
<path opacity="0.15" d="M212.214 13.5484C212.844 19.5127 211.429 25.403 208.977 30.5816C204.428 40.1894 197.125 48.851 189.57 55.2115C181.441 62.0564 172.093 66.707 162.695 70.6006C146.508 77.3074 129.564 81.9547 112.59 85.1561C125.019 88.9963 142.099 92.4391 164.74 93.4305C223.046 95.9841 250.367 71.0276 250.367 71.0276C250.367 71.0276 251.579 32.4812 212.214 13.5484Z" fill="#F91E00"/>
<path opacity="0.3" d="M150.014 139.908C149.359 139.646 148.785 139.33 148.549 138.899C145.484 133.304 160.932 131.728 163.042 132.123C166.264 132.726 169.587 133.611 172.774 134.443C180.21 136.382 189.058 135.158 196.07 131.408C197.971 130.391 202.446 128.035 204.135 130.934C205.733 133.678 201.511 135.938 199.924 136.945C192.217 141.834 181.423 144.428 172.755 144.641C168.295 144.75 163.57 144.564 159.188 143.543C156.774 142.98 154.696 142.019 152.477 140.813C151.927 140.513 150.897 140.261 150.014 139.908Z" fill="#FFA273"/>
<path opacity="0.3" d="M215.937 135.353C215.824 135.342 215.712 135.33 215.599 135.317C214.427 135.181 212.319 135.619 211.314 135.27C208.722 134.371 209.392 130.618 211.6 129.589C216.771 127.179 222.552 125.777 227.824 123.388C230.843 122.02 234.335 120.378 236.902 117.997C237.965 117.011 238.416 115.324 239.358 114.421C240.991 112.857 242.862 113.294 243.243 115.791C244.394 123.327 233.982 129.824 229.378 132.235C225.248 134.397 220.478 135.786 215.937 135.353Z" fill="#FFA273"/>
<path opacity="0.3" d="M109.354 128.496C110.694 130.072 112.081 131.59 113.524 132.901C110.029 132.307 107.022 129.602 104.178 127.318C101.474 125.146 98.4131 124.02 96.2031 121.069C94.7335 119.107 89.4195 109.052 93.096 107.806C96.203 106.753 98.4192 112.961 99.7422 115.27C101.463 118.271 103.651 121.512 105.781 124.136C106.938 125.561 108.127 127.052 109.354 128.496Z" fill="#FFA273"/>
</g>
<defs>
<linearGradient id="paint0_linear_3119_3638" x1="169" y1="28.9994" x2="169" y2="394.999" gradientUnits="userSpaceOnUse">
<stop offset="0.132758" stop-color="#EAEAEA" stop-opacity="0"/>
<stop offset="1" stop-color="#EAEAEA"/>
</linearGradient>
<clipPath id="clip0_3119_3638">
<rect width="180" height="180" fill="white" transform="translate(77 5.48743) rotate(-1.57228)"/>
</clipPath>
</defs>
</svg>
