<svg width="478" height="557" viewBox="0 0 478 557" fill="none" xmlns="http://www.w3.org/2000/svg">
<g filter="url(#filter0_d_3119_4004)">
<rect x="51" y="92" width="336" height="364" rx="23" fill="white" stroke="url(#paint0_linear_3119_4004)" stroke-width="2"/>
<path d="M151.954 310.04V324H149.154V314.92L145.414 324H143.294L139.534 314.92V324H136.734V310.04H139.914L144.354 320.42L148.794 310.04H151.954ZM165.182 312.92V324H162.362V322.6C162.002 323.08 161.528 323.46 160.942 323.74C160.368 324.007 159.742 324.14 159.062 324.14C158.195 324.14 157.428 323.96 156.762 323.6C156.095 323.227 155.568 322.687 155.182 321.98C154.808 321.26 154.622 320.407 154.622 319.42V312.92H157.422V319.02C157.422 319.9 157.642 320.58 158.082 321.06C158.522 321.527 159.122 321.76 159.882 321.76C160.655 321.76 161.262 321.527 161.702 321.06C162.142 320.58 162.362 319.9 162.362 319.02V312.92H165.182ZM172.184 324.18C171.278 324.18 170.464 324.02 169.744 323.7C169.024 323.367 168.451 322.92 168.024 322.36C167.611 321.8 167.384 321.18 167.344 320.5H170.164C170.218 320.927 170.424 321.28 170.784 321.56C171.158 321.84 171.618 321.98 172.164 321.98C172.698 321.98 173.111 321.873 173.404 321.66C173.711 321.447 173.864 321.173 173.864 320.84C173.864 320.48 173.678 320.213 173.304 320.04C172.944 319.853 172.364 319.653 171.564 319.44C170.738 319.24 170.058 319.033 169.524 318.82C169.004 318.607 168.551 318.28 168.164 317.84C167.791 317.4 167.604 316.807 167.604 316.06C167.604 315.447 167.778 314.887 168.124 314.38C168.484 313.873 168.991 313.473 169.644 313.18C170.311 312.887 171.091 312.74 171.984 312.74C173.304 312.74 174.358 313.073 175.144 313.74C175.931 314.393 176.364 315.28 176.444 316.4H173.764C173.724 315.96 173.538 315.613 173.204 315.36C172.884 315.093 172.451 314.96 171.904 314.96C171.398 314.96 171.004 315.053 170.724 315.24C170.458 315.427 170.324 315.687 170.324 316.02C170.324 316.393 170.511 316.68 170.884 316.88C171.258 317.067 171.838 317.26 172.624 317.46C173.424 317.66 174.084 317.867 174.604 318.08C175.124 318.293 175.571 318.627 175.944 319.08C176.331 319.52 176.531 320.107 176.544 320.84C176.544 321.48 176.364 322.053 176.004 322.56C175.658 323.067 175.151 323.467 174.484 323.76C173.831 324.04 173.064 324.18 172.184 324.18ZM182.103 315.22V320.58C182.103 320.953 182.19 321.227 182.363 321.4C182.55 321.56 182.856 321.64 183.283 321.64H184.583V324H182.823C180.463 324 179.283 322.853 179.283 320.56V315.22H177.963V312.92H179.283V310.18H182.103V312.92H184.583V315.22H182.103ZM195.117 315.68V318.04H186.637V315.68H195.117ZM207.757 310.04V312.3H204.037V324H201.237V312.3H197.517V310.04H207.757ZM212.6 314.64C212.96 314.053 213.427 313.593 214 313.26C214.587 312.927 215.253 312.76 216 312.76V315.7H215.26C214.38 315.7 213.713 315.907 213.26 316.32C212.82 316.733 212.6 317.453 212.6 318.48V324H209.8V312.92H212.6V314.64ZM228.486 312.92L221.626 329.24H218.646L221.046 323.72L216.606 312.92H219.746L222.606 320.66L225.506 312.92H228.486ZM239.641 310.04C241.108 310.04 242.394 310.327 243.501 310.9C244.621 311.473 245.481 312.293 246.081 313.36C246.694 314.413 247.001 315.64 247.001 317.04C247.001 318.44 246.694 319.667 246.081 320.72C245.481 321.76 244.621 322.567 243.501 323.14C242.394 323.713 241.108 324 239.641 324H234.761V310.04H239.641ZM239.541 321.62C241.008 321.62 242.141 321.22 242.941 320.42C243.741 319.62 244.141 318.493 244.141 317.04C244.141 315.587 243.741 314.453 242.941 313.64C242.141 312.813 241.008 312.4 239.541 312.4H237.561V321.62H239.541ZM250.517 311.6C250.023 311.6 249.61 311.447 249.277 311.14C248.957 310.82 248.797 310.427 248.797 309.96C248.797 309.493 248.957 309.107 249.277 308.8C249.61 308.48 250.023 308.32 250.517 308.32C251.01 308.32 251.417 308.48 251.737 308.8C252.07 309.107 252.237 309.493 252.237 309.96C252.237 310.427 252.07 310.82 251.737 311.14C251.417 311.447 251.01 311.6 250.517 311.6ZM251.897 312.92V324H249.097V312.92H251.897ZM258.903 324.18C257.997 324.18 257.183 324.02 256.463 323.7C255.743 323.367 255.17 322.92 254.743 322.36C254.33 321.8 254.103 321.18 254.063 320.5H256.883C256.937 320.927 257.143 321.28 257.503 321.56C257.877 321.84 258.337 321.98 258.883 321.98C259.417 321.98 259.83 321.873 260.123 321.66C260.43 321.447 260.583 321.173 260.583 320.84C260.583 320.48 260.397 320.213 260.023 320.04C259.663 319.853 259.083 319.653 258.283 319.44C257.457 319.24 256.777 319.033 256.243 318.82C255.723 318.607 255.27 318.28 254.883 317.84C254.51 317.4 254.323 316.807 254.323 316.06C254.323 315.447 254.497 314.887 254.843 314.38C255.203 313.873 255.71 313.473 256.363 313.18C257.03 312.887 257.81 312.74 258.703 312.74C260.023 312.74 261.077 313.073 261.863 313.74C262.65 314.393 263.083 315.28 263.163 316.4H260.483C260.443 315.96 260.257 315.613 259.923 315.36C259.603 315.093 259.17 314.96 258.623 314.96C258.117 314.96 257.723 315.053 257.443 315.24C257.177 315.427 257.043 315.687 257.043 316.02C257.043 316.393 257.23 316.68 257.603 316.88C257.977 317.067 258.557 317.26 259.343 317.46C260.143 317.66 260.803 317.867 261.323 318.08C261.843 318.293 262.29 318.627 262.663 319.08C263.05 319.52 263.25 320.107 263.263 320.84C263.263 321.48 263.083 322.053 262.723 322.56C262.377 323.067 261.87 323.467 261.203 323.76C260.55 324.04 259.783 324.18 258.903 324.18ZM271.802 312.76C272.642 312.76 273.388 312.947 274.042 313.32C274.695 313.68 275.202 314.22 275.562 314.94C275.935 315.647 276.122 316.5 276.122 317.5V324H273.322V317.88C273.322 317 273.102 316.327 272.662 315.86C272.222 315.38 271.622 315.14 270.862 315.14C270.088 315.14 269.475 315.38 269.022 315.86C268.582 316.327 268.362 317 268.362 317.88V324H265.562V309.2H268.362V314.3C268.722 313.82 269.202 313.447 269.802 313.18C270.402 312.9 271.068 312.76 271.802 312.76ZM289.084 318.22C289.084 318.62 289.058 318.98 289.004 319.3H280.904C280.971 320.1 281.251 320.727 281.744 321.18C282.238 321.633 282.844 321.86 283.564 321.86C284.604 321.86 285.344 321.413 285.784 320.52H288.804C288.484 321.587 287.871 322.467 286.964 323.16C286.058 323.84 284.944 324.18 283.624 324.18C282.558 324.18 281.598 323.947 280.744 323.48C279.904 323 279.244 322.327 278.764 321.46C278.298 320.593 278.064 319.593 278.064 318.46C278.064 317.313 278.298 316.307 278.764 315.44C279.231 314.573 279.884 313.907 280.724 313.44C281.564 312.973 282.531 312.74 283.624 312.74C284.678 312.74 285.618 312.967 286.444 313.42C287.284 313.873 287.931 314.52 288.384 315.36C288.851 316.187 289.084 317.14 289.084 318.22ZM286.184 317.42C286.171 316.7 285.911 316.127 285.404 315.7C284.898 315.26 284.278 315.04 283.544 315.04C282.851 315.04 282.264 315.253 281.784 315.68C281.318 316.093 281.031 316.673 280.924 317.42H286.184ZM295.368 324.18C294.461 324.18 293.648 324.02 292.928 323.7C292.208 323.367 291.635 322.92 291.208 322.36C290.795 321.8 290.568 321.18 290.528 320.5H293.348C293.401 320.927 293.608 321.28 293.968 321.56C294.341 321.84 294.801 321.98 295.348 321.98C295.881 321.98 296.295 321.873 296.588 321.66C296.895 321.447 297.048 321.173 297.048 320.84C297.048 320.48 296.861 320.213 296.488 320.04C296.128 319.853 295.548 319.653 294.748 319.44C293.921 319.24 293.241 319.033 292.708 318.82C292.188 318.607 291.735 318.28 291.348 317.84C290.975 317.4 290.788 316.807 290.788 316.06C290.788 315.447 290.961 314.887 291.308 314.38C291.668 313.873 292.175 313.473 292.828 313.18C293.495 312.887 294.275 312.74 295.168 312.74C296.488 312.74 297.541 313.073 298.328 313.74C299.115 314.393 299.548 315.28 299.628 316.4H296.948C296.908 315.96 296.721 315.613 296.388 315.36C296.068 315.093 295.635 314.96 295.088 314.96C294.581 314.96 294.188 315.053 293.908 315.24C293.641 315.427 293.508 315.687 293.508 316.02C293.508 316.393 293.695 316.68 294.068 316.88C294.441 317.067 295.021 317.26 295.808 317.46C296.608 317.66 297.268 317.867 297.788 318.08C298.308 318.293 298.755 318.627 299.128 319.08C299.515 319.52 299.715 320.107 299.728 320.84C299.728 321.48 299.548 322.053 299.188 322.56C298.841 323.067 298.335 323.467 297.668 323.76C297.015 324.04 296.248 324.18 295.368 324.18Z" fill="#212244"/>
<path d="M162.401 351.68V346.56H165.081C167.161 346.56 168.041 347.52 168.041 349.14C168.041 350.7 167.161 351.68 165.081 351.68H162.401ZM169.901 349.14C169.901 346.86 168.361 345.06 165.081 345.06H160.581V359H162.401V353.18H165.081C168.541 353.18 169.901 351.26 169.901 349.14ZM173.983 353.04C173.983 350.5 175.303 349.72 177.043 349.72H177.523V347.84C175.783 347.84 174.603 348.6 173.983 349.82V348.04H172.163V359H173.983V353.04ZM179.624 359H181.444V348.04H179.624V359ZM180.564 346.26C181.224 346.26 181.764 345.72 181.764 345.02C181.764 344.32 181.224 343.78 180.564 343.78C179.864 343.78 179.324 344.32 179.324 345.02C179.324 345.72 179.864 346.26 180.564 346.26ZM183.866 353.5C183.866 356.98 186.086 359.18 189.206 359.18C191.926 359.18 193.706 357.66 194.266 355.48H192.306C191.906 356.86 190.826 357.64 189.206 357.64C187.206 357.64 185.726 356.22 185.726 353.5C185.726 350.82 187.206 349.4 189.206 349.4C190.826 349.4 191.926 350.24 192.306 351.56H194.266C193.706 349.26 191.926 347.86 189.206 347.86C186.086 347.86 183.866 350.06 183.866 353.5ZM201.354 349.4C203.234 349.4 204.834 350.58 204.814 352.72H197.894C198.094 350.58 199.574 349.4 201.354 349.4ZM206.474 355.62H204.514C204.114 356.8 203.074 357.64 201.434 357.64C199.574 357.64 198.014 356.42 197.874 354.2H206.634C206.674 353.82 206.694 353.5 206.694 353.1C206.694 350.1 204.614 347.86 201.434 347.86C198.234 347.86 196.014 350.04 196.014 353.5C196.014 356.98 198.314 359.18 201.434 359.18C204.154 359.18 205.914 357.62 206.474 355.62Z" fill="#69697B"/>
<path d="M217.862 360.74H219.142V359.12C222.062 358.92 223.662 357.02 223.662 354.98C223.662 352.02 221.222 351.48 219.142 350.94V347.16C219.922 347.4 220.402 348 220.482 348.78H223.502C223.322 346.4 221.642 345.06 219.142 344.86V343.24H217.862V344.86C215.262 345.06 213.382 346.6 213.382 348.96C213.382 351.92 215.802 352.5 217.862 353.02V356.84C216.942 356.64 216.462 356.02 216.382 355.1H213.382C213.442 357.5 215.282 358.88 217.862 359.1V360.74ZM220.762 355.1C220.762 356 220.162 356.7 219.142 356.88V353.38C220.082 353.7 220.762 354.16 220.762 355.1ZM216.302 348.82C216.302 347.8 216.942 347.24 217.862 347.1V350.56C216.942 350.24 216.302 349.76 216.302 348.82ZM232.834 359H235.714V344.42H230.894V347H232.834V359ZM238.32 358.8H248.2V356.48H242.3C244.62 354.52 247.88 351.88 247.88 348.5C247.88 345.96 246.3 344.1 243.16 344.1C240.54 344.1 238.4 345.64 238.3 348.98H241.02C241.04 347.44 241.78 346.48 243.12 346.48C244.5 346.48 245.08 347.36 245.08 348.66C245.08 351.34 241.62 353.92 238.32 356.72V358.8ZM253.224 357.5C253.224 356.58 252.504 355.86 251.524 355.86C250.504 355.86 249.784 356.58 249.784 357.5C249.784 358.42 250.504 359.14 251.524 359.14C252.504 359.14 253.224 358.42 253.224 357.5ZM255.16 351.52C255.16 355.78 256.44 358.96 260.56 358.96C264.68 358.96 265.96 355.78 265.96 351.52C265.96 347.3 264.68 344.14 260.56 344.14C256.44 344.14 255.16 347.3 255.16 351.52ZM263.2 351.52C263.2 354.12 262.92 356.36 260.56 356.36C258.2 356.36 257.92 354.12 257.92 351.52C257.92 349.02 258.2 346.74 260.56 346.74C262.92 346.74 263.2 349.02 263.2 351.52ZM268.089 351.52C268.089 355.78 269.369 358.96 273.489 358.96C277.609 358.96 278.889 355.78 278.889 351.52C278.889 347.3 277.609 344.14 273.489 344.14C269.369 344.14 268.089 347.3 268.089 351.52ZM276.129 351.52C276.129 354.12 275.849 356.36 273.489 356.36C271.129 356.36 270.849 354.12 270.849 351.52C270.849 349.02 271.129 346.74 273.489 346.74C275.849 346.74 276.129 349.02 276.129 351.52Z" fill="url(#paint1_linear_3119_4004)"/>
<path d="M179.5 275L181.998 280.062L187.584 280.873L183.542 284.813L184.496 290.377L179.5 287.75L174.504 290.377L175.458 284.813L171.416 280.873L177.002 280.062L179.5 275Z" fill="#FF9401"/>
<path d="M199.05 275L201.548 280.062L207.134 280.873L203.092 284.813L204.046 290.377L199.05 287.75L194.054 290.377L195.008 284.813L190.966 280.873L196.552 280.062L199.05 275Z" fill="#FF9401"/>
<path d="M218.6 275L221.098 280.062L226.684 280.873L222.642 284.813L223.596 290.377L218.6 287.75L213.604 290.377L214.558 284.813L210.516 280.873L216.102 280.062L218.6 275Z" fill="#FF9401"/>
<path d="M238.15 275L240.648 280.062L246.234 280.873L242.192 284.813L243.146 290.377L238.15 287.75L233.154 290.377L234.108 284.813L230.066 280.873L235.652 280.062L238.15 275Z" fill="#FF9401"/>
<path d="M257.7 275L260.198 280.062L265.784 280.873L261.742 284.813L262.696 290.377L257.7 287.75L252.704 290.377L253.658 284.813L249.616 280.873L255.202 280.062L257.7 275Z" fill="#FF9401"/>
<rect x="158" y="384" width="121" height="42" rx="10" fill="#F94A3D"/>
<path d="M179.882 410H181.562L178.076 400.256H176.228L172.742 410H174.408L175.108 408.012H179.182L179.882 410ZM178.734 406.71H175.556L177.152 402.188L178.734 406.71ZM182.545 406.108C182.545 408.488 184.155 410.126 186.185 410.126C187.445 410.126 188.369 409.538 188.859 408.838V410H190.469V399.64H188.859V403.364C188.271 402.636 187.207 402.16 186.199 402.16C184.155 402.16 182.545 403.728 182.545 406.108ZM188.859 406.136C188.859 407.802 187.725 408.74 186.521 408.74C185.331 408.74 184.183 407.774 184.183 406.108C184.183 404.442 185.331 403.546 186.521 403.546C187.725 403.546 188.859 404.484 188.859 406.136ZM192.034 406.108C192.034 408.488 193.644 410.126 195.674 410.126C196.934 410.126 197.858 409.538 198.348 408.838V410H199.958V399.64H198.348V403.364C197.76 402.636 196.696 402.16 195.688 402.16C193.644 402.16 192.034 403.728 192.034 406.108ZM198.348 406.136C198.348 407.802 197.214 408.74 196.01 408.74C194.82 408.74 193.672 407.774 193.672 406.108C193.672 404.442 194.82 403.546 196.01 403.546C197.214 403.546 198.348 404.484 198.348 406.136ZM205.187 401.572H207.791V410H209.387V401.572H211.977V400.27H205.187V401.572ZM220.943 406.136C220.943 403.714 219.207 402.16 217.009 402.16C214.811 402.16 213.075 403.714 213.075 406.136C213.075 408.558 214.741 410.126 216.939 410.126C219.151 410.126 220.943 408.558 220.943 406.136ZM214.699 406.136C214.699 404.386 215.777 403.546 216.981 403.546C218.171 403.546 219.305 404.386 219.305 406.136C219.305 407.886 218.129 408.74 216.939 408.74C215.735 408.74 214.699 407.886 214.699 406.136ZM225.625 405.114C225.625 408.04 227.851 410.084 230.595 410.084C232.625 410.084 234.375 409.076 235.117 407.172H233.199C232.681 408.208 231.757 408.698 230.595 408.698C228.663 408.698 227.263 407.312 227.263 405.114C227.263 402.916 228.663 401.544 230.595 401.544C231.757 401.544 232.681 402.034 233.199 403.07H235.117C234.375 401.166 232.625 400.144 230.595 400.144C227.851 400.144 225.625 402.202 225.625 405.114ZM236.454 406.108C236.454 408.488 238.064 410.126 240.066 410.126C241.354 410.126 242.278 409.51 242.768 408.852V410H244.378V402.286H242.768V403.406C242.292 402.776 241.396 402.16 240.094 402.16C238.064 402.16 236.454 403.728 236.454 406.108ZM242.768 406.136C242.768 407.802 241.634 408.74 240.43 408.74C239.24 408.74 238.092 407.774 238.092 406.108C238.092 404.442 239.24 403.546 240.43 403.546C241.634 403.546 242.768 404.484 242.768 406.136ZM248.07 405.94C248.07 404.302 248.798 403.812 249.974 403.812H250.38V402.16C249.288 402.16 248.518 402.636 248.07 403.406V402.286H246.474V410H248.07V405.94ZM252.099 407.858C252.099 409.426 252.953 410 254.325 410H255.585V408.67H254.605C253.933 408.67 253.709 408.432 253.709 407.858V403.588H255.585V402.286H253.709V400.368H252.099V402.286H251.189V403.588H252.099V407.858ZM260.262 401.376V404.274H257.434V405.618H260.262V408.516H261.746V405.618H264.574V404.274H261.746V401.376H260.262Z" fill="white"/>
</g>
<g clip-path="url(#clip0_3119_4004)">
<path d="M253.814 81.9938L293.676 109.078L206.601 134.072L125.498 103.39L253.814 81.9938Z" fill="#CCC8A6"/>
<path d="M102.285 92.6353L125.498 103.39L251.071 82.3158L231.2 69.5719L102.285 92.6353Z" fill="#ECE8CC"/>
<path d="M293.676 109.078L323.403 112.978L279.471 85.6342L251.072 82.3162L293.676 109.078Z" fill="#ECE8CC"/>
<path d="M312.453 0.00270844C310.255 -0.0665735 308.126 1.13946 307.15 3.23954C307.15 3.23954 238.331 155.94 241.154 157.23C243.984 158.519 317.38 7.91012 317.38 7.91012C318.682 5.1106 317.449 1.79698 314.619 0.506216C313.917 0.184077 313.179 0.0256553 312.453 0.00270844Z" fill="#F08C2E"/>
<path d="M314.619 0.506704C313.917 0.184124 313.179 0.0261436 312.452 0.00319672C310.255 -0.0660852 308.126 1.13995 307.149 3.24003C307.149 3.24003 296.978 25.8083 284.617 53.6649C287.096 55.4521 289.786 56.8175 292.892 57.753C306.465 30.3081 317.38 7.91105 317.38 7.91105C318.682 5.11109 317.449 1.79703 314.619 0.506704Z" fill="#F61D00"/>
<path opacity="0.2" d="M241.154 157.23C243.984 158.52 317.38 7.91049 317.38 7.91049C318.682 5.11097 317.449 1.79735 314.619 0.506592C317.887 5.22615 241.154 157.23 241.154 157.23Z" fill="#4A0E3A"/>
<g opacity="0.3">
<path opacity="0.3" d="M286.716 53.1967C286.631 53.1967 286.543 53.1791 286.459 53.1416C286.144 53.0008 286.004 52.6336 286.146 52.3212L308.961 2.23963C309.103 1.92808 309.471 1.78863 309.788 1.9294C310.104 2.07061 310.244 2.43776 310.101 2.74975L287.287 52.8318C287.183 53.0608 286.955 53.1967 286.716 53.1967Z" fill="white"/>
</g>
<path d="M338.384 6.8775C336.221 6.48696 333.936 7.36821 332.657 9.30236C332.657 9.30236 241.807 150.247 244.407 151.937C247.014 153.627 342.077 15.4195 342.077 15.4195C343.783 12.8415 343.058 9.38356 340.452 7.69255C339.806 7.27112 339.099 7.00635 338.384 6.8775Z" fill="#F08C2E"/>
<path d="M340.451 7.69299C339.806 7.27112 339.099 7.00679 338.384 6.8775C336.221 6.48696 333.936 7.36821 332.657 9.30236C332.657 9.30236 319.23 30.1333 302.848 55.874C305.033 58.0045 307.489 59.7485 310.421 61.1288C327.941 35.9728 342.077 15.4199 342.077 15.4199C343.783 12.8415 343.058 9.38356 340.451 7.69299Z" fill="#F61D00"/>
<path opacity="0.2" d="M244.407 151.937C247.014 153.627 342.077 15.4195 342.077 15.4195C343.783 12.8416 343.058 9.38364 340.451 7.69263C342.979 12.8393 244.407 151.937 244.407 151.937Z" fill="#4A0E3A"/>
<g opacity="0.3">
<path opacity="0.3" d="M304.993 55.7186C304.908 55.7063 304.824 55.6758 304.747 55.6264C304.456 55.4411 304.372 55.0571 304.56 54.7694L334.597 8.57867C334.783 8.29139 335.169 8.20755 335.462 8.39289C335.753 8.57867 335.836 8.96215 335.649 9.25031L305.612 55.4411C305.474 55.6524 305.229 55.7535 304.993 55.7186Z" fill="white"/>
</g>
<path d="M204.149 72.1442C203.782 69.497 201.02 67.9666 198.567 67.4997C195.805 66.9741 192.867 67.6912 190.612 69.3421C188.303 71.0326 187.287 73.3874 186.057 75.855C184.577 78.8253 182.605 78.3567 179.68 78.4268C177.347 78.4829 177.133 81.3402 178.444 82.6451C182.457 86.6401 188.902 82.631 190.98 78.6929C192.091 76.5871 192.526 74.1861 194.849 73.0061C197.71 71.5534 199.893 73.2823 202.713 73.4994C203.484 73.559 204.266 72.9867 204.149 72.1442Z" fill="#F0D960"/>
<path d="M183.598 83.9361C182.988 83.1749 182.317 82.4375 181.973 81.3908C180.609 77.2312 182.704 73.6418 186.616 72.4808C188.992 71.7769 194.724 70.953 195.35 74.6347C195.7 76.6893 193.44 77.5132 192.875 79.345C192.141 81.7262 193.725 82.175 191.616 84.4163C190.19 85.9316 186.726 86.6695 184.865 86.8654C184.83 85.5905 184.25 84.7499 183.598 83.9361Z" fill="#2EA100"/>
<path d="M269.997 94.9675C265.783 90.5444 264.996 83.6643 259.456 80.3596C255.776 78.1637 248.538 78.6893 249.089 84.3002C249.131 84.7327 249.723 85.0641 250.085 84.7376C253.403 81.739 257.442 82.8343 259.836 86.2503C262.372 89.8666 263.296 94.3038 266.306 97.6487C268.267 99.8287 271.998 97.0667 269.997 94.9675Z" fill="#F0D960"/>
<path d="M146.729 117.171C145.514 109.63 147.342 100.73 155.219 97.4056C157.811 96.3143 161.104 97.5358 163.802 97.3747C166.82 97.1947 169.9 94.9993 171.947 92.9217C173.381 91.4703 173.212 89.7961 173.964 88.053C174.802 86.1118 176.317 84.5862 177.814 83.1596C179.329 81.7144 181.426 81.8635 183.167 80.9019C185.615 79.5437 187.105 77.2057 189.584 75.9406C191.149 75.1467 192.921 74.6816 194.63 74.3466C195.538 74.1728 196.509 74.4706 197.41 74.1419C200.747 72.9151 202.231 68.6686 205.63 67.3509C209.531 65.8391 212.674 68.1682 216.374 68.4431C222.441 68.8923 228.608 66.4639 234.33 69.0653C236.14 69.8883 236.283 72.1826 238.143 73.0285C240.102 73.919 242.801 73.4539 244.836 73.367C246.388 73.3048 247.772 73.8012 249.243 74.1856C250.226 74.4398 251.365 74.4834 252.142 75.2645C254.953 78.1113 254.94 80.8772 254.784 84.4371C254.69 86.5769 252.724 89.6716 255.147 91.1972C257.714 92.8096 260.751 92.1521 263.505 92.3882C265.452 92.5492 270.624 95.3466 272.001 96.6735C274.512 99.1046 271.262 102.894 273.798 105.511C276.453 108.246 279.095 107.26 280.766 111.142C281.185 112.129 281.662 112.73 281.711 113.853C282.15 124.253 271.675 125.041 263.649 127.311C261.063 128.043 258.534 129.141 256.011 130.052C250.939 131.882 245.718 132.099 240.459 133.129C238.474 133.519 236.583 134.549 234.749 135.324C231.932 136.515 228.281 137.389 225.201 137.532C222.403 137.656 219.779 136.062 217.024 136.372C214.42 136.664 212.304 139.113 209.561 139.144C205.341 139.194 200.971 137.55 196.864 136.788C190.973 135.696 184.499 135.671 178.846 133.625C176.83 132.893 174.933 131.77 172.973 130.902C168.691 129.016 164.165 127.72 159.857 125.934C157.34 124.892 155.023 123.447 152.494 122.399C150.154 121.426 147.186 119.968 146.729 117.171Z" fill="#F0D960"/>
<path opacity="0.3" d="M174.912 90.5157C176.632 85.459 180.962 86.4126 184.54 83.6727C186.101 82.4768 193.664 74.0619 196.277 76.6602C198.246 78.6186 191.212 83.6568 190.281 85.095C187.353 89.6164 186.085 88.6738 181.184 89.9142C178.816 90.5135 173.772 93.5782 174.912 90.5157Z" fill="white"/>
<path opacity="0.2" d="M281.712 113.853C281.662 112.73 281.186 112.129 280.767 111.143C279.095 107.26 276.453 108.247 273.798 105.511C271.87 103.522 273.281 100.856 272.968 98.6239C272.412 98.642 271.836 98.5599 271.24 98.3503C270.249 98.0017 269.504 97.3534 268.774 96.6324C268.712 96.571 268.648 96.5132 268.585 96.4572C268.515 96.5569 268.447 96.6566 268.387 96.7546C267.938 97.4902 267.45 98.2431 266.828 98.8503C265.124 100.515 262.86 100.82 260.625 100.227C259.463 99.9182 258.636 98.9721 258.352 97.8746C255.882 97.2718 253.69 96.0874 253.842 92.956C253.886 92.0549 254.14 91.3083 254.537 90.6724C253.12 89.0374 254.699 86.3557 254.783 84.4379C254.818 83.6356 254.844 82.8753 254.834 82.1436C252.537 82.4719 251.397 81.8087 249.409 80.4676C249.091 80.2531 248.827 80.0025 248.611 79.7293C248.388 79.5127 248.139 79.3132 247.876 79.1261C246.646 78.6711 245.42 77.9995 244.587 77.0115C243.965 77.2409 243.232 77.3332 242.711 77.3949C238.296 77.9201 235.43 74.9308 236.205 71.0201C235.714 70.2439 235.226 69.4734 234.329 69.0652C230.235 67.2043 225.914 67.9157 221.564 68.308C220.052 69.2272 218.122 69.5387 216.35 69.7395C215.086 69.8829 213.799 69.9231 212.547 70.1596C212.146 70.2351 211.706 70.435 211.283 70.6009C211.447 70.6737 211.612 70.7478 211.765 70.8193C212.687 71.2505 213.567 71.7566 214.29 72.4883C216.374 74.5981 216.341 78.0847 214.993 80.5859C213.563 83.2411 210.923 84.2538 208.031 84.4683C206.781 84.561 203.209 83.956 202.458 84.8606C202.042 85.3624 202.374 87.7462 202.204 88.4267C201.954 89.4279 201.477 90.4129 200.756 91.1715C200.75 91.1785 200.743 91.1838 200.736 91.1904C204.257 89.818 209.543 91.1489 211.83 87.3918C212.242 86.7145 211.628 86.1377 212.394 85.4709C213.385 84.6086 217.3 84.816 218.599 84.7C221.154 84.4714 223.875 84.6192 226.016 83.046C227.699 81.8091 228.873 79.7682 230.362 78.5145C230.483 80.1644 231.44 81.7094 230.839 83.3708C231.099 84.5813 231.105 85.8875 230.913 87.1319C231.385 84.0734 239.22 82.0695 241.075 84.448C243.417 87.451 240.547 91.9269 242.9 94.9171C244.495 96.9439 246.264 97.6822 246.666 100.206C247.151 103.26 244.676 103.527 242.126 103.155C241.079 103.003 237.298 102.546 238.297 104.722C237.389 104.455 235.882 105.299 234.604 105.136C234.485 104.343 234.469 103.875 234.535 103.119C234.195 107.003 226.411 106.468 227.245 101.618C227.59 99.6168 228.575 97.9227 230.076 96.5437C230.528 96.1284 231.052 95.7652 231.586 95.4069C231.205 95.1113 230.85 94.7657 230.541 94.3359C229.651 93.0994 229.311 91.5827 229.542 90.1141C228.317 91.0558 226.459 90.9067 225.209 89.8198C224.821 90.0894 224.149 90.3674 223.832 90.5735C223.056 91.0797 222.329 91.6569 221.599 92.2283C221.71 92.7155 221.735 93.2486 221.655 93.8306C221.153 97.4845 217.781 99.7951 214.572 101.054C213.043 101.654 211.417 100.602 210.72 99.1962C210.544 99.2351 210.369 99.2774 210.201 99.3291C209.193 99.6375 208.227 100.057 207.234 100.409C204.459 101.396 200.632 102.648 198.054 100.59C195.302 98.3927 196.377 94.6907 198.635 92.5474C196.688 93.2495 194.413 92.9163 192.337 92.588C191.846 92.5103 190.039 92.1661 189.413 92.1401C189.413 92.2919 189.312 92.6423 189.365 93.0076C189.47 93.7296 189.544 94.4582 189.643 95.181C189.96 97.4889 190.312 99.7492 188.934 101.799C187.183 104.403 183.805 105.088 181.042 106.107C180.318 106.374 178.986 106.764 178.632 107.561C178.204 108.525 179.275 110.567 179.142 111.747C178.353 118.775 169.464 115.572 165.211 114.787C162.047 114.203 159.873 113.782 157.339 111.591C156.429 110.804 155.73 109.829 154.528 109.526C153.25 109.204 151.925 109.789 150.651 109.826C149.323 109.865 147.945 109.455 146.763 108.729C146.253 111.501 146.285 114.425 146.727 117.172C147.184 119.969 150.152 121.426 152.494 122.4C155.023 123.448 157.339 124.893 159.856 125.935C164.164 127.721 168.691 129.017 172.973 130.903C174.932 131.771 176.83 132.893 178.846 133.625C184.499 135.672 190.973 135.697 196.864 136.789C200.971 137.552 205.341 139.195 209.561 139.145C212.303 139.115 214.419 136.665 217.024 136.373C219.779 136.063 222.402 137.657 225.201 137.533C228.281 137.39 231.931 136.516 234.748 135.325C236.583 134.55 238.473 133.52 240.458 133.13C245.717 132.1 250.939 131.883 256.01 130.054C258.533 129.142 261.062 128.044 263.648 127.312C271.676 125.041 282.15 124.254 281.712 113.853ZM213.489 116.203C212.278 120.043 205.177 120.933 202.641 117.882C201.41 116.398 202.114 113.778 202.027 111.978C201.966 110.697 201.917 109.082 201.553 107.852C201.125 106.404 199.544 105.094 199.752 103.543C201.305 103.706 203.13 104.853 204.538 105.526C205.365 105.922 207.61 108.344 208.04 108.42C208.914 108.574 209.786 108.916 210.638 109.481C212.771 110.895 214.294 113.648 213.489 116.203ZM236.979 121.272C236.216 122.431 234.701 123.231 233.287 122.76C230.646 121.88 228.382 123.849 226.205 125.118C223.742 126.554 221.204 127.674 218.295 127.631C216.369 127.602 215.216 126.154 215.025 124.392C214.728 121.643 216.396 119.501 218.74 118.254C219.528 117.836 220.62 117.575 221.686 117.265C220.293 115.495 219.7 113.488 221.458 110.99C223.534 108.039 227.878 107.375 231.234 107.302C231.329 107.3 231.42 107.305 231.511 107.309C232.214 107.151 232.945 107.135 233.668 107.313C238.944 108.61 239.438 117.533 236.979 121.272ZM266.122 113.726C265.871 113.862 265.611 113.965 265.349 114.057C264.988 114.218 264.611 114.337 264.22 114.415C263.699 114.581 263.197 114.776 262.76 115.126C261.861 115.845 261.315 117.088 260.516 117.923C258.508 120.021 255.752 120.931 252.947 121.435C250.424 121.888 248.76 122.813 246.279 121.607C244.819 120.896 244.106 118.514 245.106 117.175C246.364 115.493 247.655 114.823 249.228 114.405C249.362 113.993 249.563 113.583 249.838 113.181C250.429 112.317 251.268 111.702 252.128 111.116C252.401 110.93 252.823 110.586 253.179 110.402C253.49 109.386 254.37 107.761 254.46 107.649C255.2 106.717 256.164 106.042 257.262 105.578C259.573 104.601 262.185 104.786 264.625 105.028C264.75 105.04 264.872 105.059 264.989 105.082C266.779 104.554 269.064 105.586 269.355 108.06C269.664 110.676 268.394 112.505 266.122 113.726Z" fill="#B52C14"/>
<path opacity="0.15" d="M195.316 86.528C195.053 86.3351 194.81 86.1079 194.599 85.8427C194.439 85.8824 194.286 85.9309 194.121 85.9622C193.682 86.0456 193.267 86.0483 192.878 85.9967C192.858 86.047 192.831 86.0964 192.809 86.1467C193.226 86.2129 193.648 86.2804 194.076 86.3417C194.466 86.3969 194.896 86.4918 195.316 86.528Z" fill="#B52C14"/>
<path d="M212.129 83.2341C209.149 82.0744 210.752 79.327 211.935 77.3858C214.84 72.6163 220.262 72.1424 225.107 70.2541C226.003 69.9064 229.672 67.2666 229.984 67.4467C230.723 67.8703 231.036 68.8297 231.199 69.5728C231.944 72.961 231.518 75.3704 229.27 78.087C226.816 81.0577 222.471 83.8859 218.539 84.3073C216.393 84.5302 214.089 83.9967 212.129 83.2341Z" fill="#2EA100"/>
<path opacity="0.15" d="M231.2 69.5723C231.037 68.8292 230.724 67.8698 229.985 67.4462C229.983 67.4453 229.979 67.4471 229.976 67.4462C230.163 71.8829 225.474 76.8496 222.463 79.3274C220.59 80.8683 217.754 82.904 214.832 84.0483C216.058 84.3117 217.324 84.4335 218.54 84.3068C222.472 83.885 226.817 81.0568 229.271 78.0865C231.519 75.3699 231.945 72.9605 231.2 69.5723Z" fill="#4A0E3A"/>
<path d="M243.74 90.2423C242.839 88.8902 245.124 86.8687 245.931 85.6221C246.902 84.1398 245.186 82.0869 243.991 81.2683C239.639 78.2914 235.037 79.3209 231.813 83.2157C231.262 83.8856 230.774 84.4438 230.667 85.3802C230.436 87.4825 231.932 90.5402 233.14 92.165C233.76 92.9898 235.062 94.2673 235.262 95.3529C235.863 98.6025 234.023 101.276 236.389 104.302C238.894 107.502 248.986 104.848 249.625 100.879C250.032 98.373 248.892 95.2289 246.657 93.8022C245.993 93.3803 245.105 92.9836 244.66 92.2767C244.266 91.6439 244.172 90.8875 243.74 90.2423Z" fill="#9C3F08"/>
<path opacity="0.3" d="M246.277 95.3999C244.83 95.0906 243.367 95.7825 241.792 96.0751C239.998 96.4078 239.008 96.6245 239.339 94.4423C239.608 92.6714 241.584 91.544 241.811 90.0656C241.893 89.5317 241.282 89.3618 241.3 88.9218C241.318 88.4955 242.029 88.3305 241.798 87.8067C241.405 86.914 240.162 87.395 239.395 87.3094C238.987 85.2989 242.805 84.6691 243.065 83.0081C243.676 79.0992 233.447 79.5454 233.611 83.6899C235.156 84.2914 238.234 82.3431 238.591 84.2005C238.647 84.49 237.917 85.982 237.818 86.3809C237.618 87.1858 237.681 88.5582 237.212 89.2409C235.893 91.1609 234.533 88.8605 233.22 89.7285C231.817 90.6565 233.595 92.6856 234.182 93.5584C235.167 95.0208 235.967 96.0557 236.344 97.7709C236.785 99.7775 236.595 98.984 238.555 98.8022C239.982 98.6703 239.243 98.9805 240.553 99.4558C242.275 100.08 243.435 97.97 244.996 98.315C248.046 98.988 244.298 102.059 243.632 102.984C242.509 104.542 241.434 104.724 239.716 105.117C240.594 106.534 244.484 105.112 245.564 104.658C247.189 103.975 249.314 102.79 249.625 100.878C249.946 98.9011 249.183 97.09 247.516 95.9431C247.103 95.6585 246.691 95.4882 246.277 95.3999Z" fill="#4A0E3A"/>
<path d="M207.697 86.3784C207.171 85.2743 207.196 85.0449 207.114 83.7056C206.964 81.256 208.792 79.6184 207.208 77.2681C204.754 73.6398 202.726 75.2646 199.915 76.9954C198.857 77.6467 197.01 78.8933 196.521 80.0716C195.538 82.4532 197.304 84.7232 197.517 86.9808C197.679 88.7111 196.64 90.553 197.016 92.2524C197.198 93.09 197.943 93.7223 198.525 94.2805C199.433 95.149 200.829 96.0731 202.1 96.3643C204.879 97.0095 209.419 94.2435 209.794 91.2727C210.069 89.1444 208.523 88.1149 207.697 86.3784Z" fill="#9C3F08"/>
<path opacity="0.3" d="M207.697 86.3782C207.17 85.2741 207.196 85.0446 207.114 83.7053C206.964 81.2558 208.792 79.6181 207.208 77.2679C206.941 76.8725 206.68 76.5503 206.421 76.2732C206.268 76.3491 206.108 76.4193 205.934 76.4771C205.283 76.6514 204.721 76.9766 204.248 77.4536C203.988 78.3199 203.685 78.4818 203.34 77.9404C202.937 77.4889 202.936 77.5529 203.338 78.1332C203.503 78.3945 203.648 78.6663 203.771 78.9496C204.225 79.9774 203.668 80.4791 203.846 81.3877C204.006 82.1997 204.819 82.7742 204.911 83.6021C204.982 84.2441 204.352 84.6678 204.245 85.2754C204.236 85.3249 204.691 86.4201 204.72 86.5229C203.835 86.6659 202.936 86.7476 202.019 86.6765C201.977 85.4921 202.525 84.4873 202.486 83.3819C199.916 83.8563 201.074 81.6988 201.526 80.5267C200.032 80.4433 198.474 80.3246 198.213 82.0518C197.964 83.7053 199.532 82.9018 199.429 84.5491C199.38 85.3297 198.429 85.5393 198.834 86.59C199.083 87.2343 199.421 87.2131 199.89 87.5357C200.936 88.2554 202.682 88.2087 200.94 89.8661C201.76 89.698 202.602 89.2232 203.443 89.2973C203.464 90.2086 199.538 95.1426 199.007 94.7035C199.887 95.4307 201.035 96.1196 202.1 96.3636C204.879 97.0088 209.419 94.2424 209.794 91.2716C210.069 89.1442 208.523 88.1147 207.697 86.3782Z" fill="#4A0E3A"/>
<path d="M201.26 97.2516C201.337 96.2088 200.862 95.1021 201.229 94.0646C201.559 93.1317 202.976 91.7443 203.547 93.2676C204.049 92.9204 204.072 92.0991 204.581 91.6596C205.554 90.8172 206.11 91.623 207.206 91.3909C209.72 90.8582 208.249 88.0132 210.4 86.7988C212.061 85.8611 213.108 86.0764 212.782 88.1889C212.618 89.2559 211.896 90.2294 211.851 91.3013C211.815 92.1591 212.275 92.4248 212.322 93.0196C212.394 93.9291 212.428 97.2097 211.756 97.8354C210.345 99.1495 207.506 97.4855 205.941 97.6086C204.468 97.7251 201.641 99.462 201.26 97.2516Z" fill="#F0D960"/>
<path opacity="0.3" d="M203.284 97.6224C205.004 92.5657 209.334 93.5193 212.913 90.7789C214.474 89.583 222.037 81.1681 224.649 83.7664C226.619 85.7249 219.585 90.763 218.653 92.2012C215.726 96.7226 214.458 95.78 209.557 97.0205C207.189 97.6202 202.144 100.685 203.284 97.6224Z" fill="white"/>
<path d="M232.997 105.784C232.696 104.128 230.968 102.869 230.023 101.579C229.503 100.872 228.652 100.866 228.652 99.8551C228.658 97.3495 232.865 95.1294 231.506 92.5307C229.534 88.7352 227.38 88.1209 224.25 88.1275C223.204 88.1337 222.052 88.2021 220.769 88.2453C219.16 88.3009 216.305 88.6297 215.31 90.0502C212.93 93.4366 218.358 94.5712 218.634 97.2754C218.822 99.0926 216.161 100.742 216.856 102.82C217.231 103.936 218.734 104.445 219.611 104.99C220.437 105.505 222.084 106.603 222.509 107.49C223.342 109.226 222.991 111.192 225.289 111.757C227.8 112.371 233.535 108.736 232.997 105.784ZM227.888 106.578C227.706 106.987 227.181 107.291 226.755 107.353C224.288 107.713 224.144 104.724 222.804 103.366C222.241 102.795 221.552 102.559 221.083 101.889C220.225 100.668 222.222 99.7682 222.216 98.379C222.21 96.5186 220.425 95.3527 221.295 93.3431C221.847 92.0779 223.28 91.6128 224.583 91.8299C225.885 92.047 227.043 92.9525 227.012 94.4472C226.981 95.7061 225.703 96.6924 225.384 97.8398C224.977 99.2973 224.238 99.8803 225.152 101.462C226.197 103.285 229.033 104.06 227.888 106.578Z" fill="#C72700"/>
<path d="M231.118 105.784C230.818 104.128 229.09 102.869 228.144 101.579C227.624 100.872 226.773 100.866 226.773 99.8551C226.779 97.3495 230.987 95.1294 229.628 92.5307C227.656 88.7352 225.502 88.1209 222.371 88.1275C221.326 88.1337 220.174 88.2021 218.89 88.2453C217.281 88.3009 214.426 88.6297 213.431 90.0502C211.052 93.4366 216.48 94.5712 216.756 97.2754C216.943 99.0926 214.282 100.742 214.977 102.82C215.353 103.936 216.855 104.445 217.732 104.99C218.559 105.505 220.205 106.603 220.631 107.49C221.463 109.226 221.113 111.192 223.411 111.757C225.922 112.371 231.657 108.736 231.118 105.784ZM226.01 106.578C225.828 106.987 225.302 107.291 224.876 107.353C222.41 107.713 222.265 104.724 220.926 103.366C220.362 102.795 219.674 102.559 219.204 101.889C218.346 100.668 220.344 99.7682 220.337 98.379C220.331 96.5186 218.547 95.3527 219.417 93.3431C219.968 92.0779 221.402 91.6128 222.704 91.8299C224.006 92.047 225.164 92.9525 225.133 94.4472C225.102 95.7061 223.825 96.6924 223.506 97.8398C223.098 99.2973 222.36 99.8803 223.274 101.462C224.319 103.285 227.155 104.06 226.01 106.578Z" fill="#ED2E00"/>
<path opacity="0.8" d="M216.756 97.2754C216.944 99.0926 214.283 100.742 214.978 102.82C214.983 102.834 214.992 102.845 214.997 102.859C215.104 102.607 215.224 102.351 215.377 102.084C216.005 100.987 216.904 100.008 217.804 99.1306C218.119 98.823 218.719 98.4298 218.96 98.0349C219.008 97.955 219.045 97.9356 219.07 97.94C219.044 97.8787 219.006 97.7622 218.956 97.5495C218.484 95.5694 217.098 93.8021 217.692 91.6662C218.745 87.8778 222.606 87.7935 226.173 88.778C225.062 88.2595 223.823 88.124 222.372 88.1271C221.327 88.1333 220.175 88.2017 218.891 88.2449C217.282 88.3006 214.427 88.6293 213.432 90.0498C211.052 93.4362 216.48 94.5712 216.756 97.2754Z" fill="white"/>
<path d="M205.214 131.709C203.627 131.709 201.862 131.297 200.79 130.268C199.79 129.31 199.522 127.964 200.055 126.575C200.719 124.84 205.965 117.843 208.861 117.081C209.945 116.791 210.931 116.922 211.721 117.028C212.089 117.077 212.419 117.121 212.719 117.123C212.793 117.016 212.88 116.874 212.939 116.775C212.993 116.685 213.046 116.599 213.097 116.52C213.102 116.501 213.106 116.483 213.11 116.466C213.404 115.266 214.202 115.055 214.652 115.036C215.352 114.99 216.01 115.478 216.231 116.134C216.511 116.973 216.585 117.738 216.502 118.44C217.719 117.409 218.941 116.342 219.443 115.028C219.576 114.683 219.69 114.152 219.17 113.513C218.444 112.619 216.812 111.98 215.692 112.149C214.638 112.304 213.623 112.801 212.549 113.327C211.034 114.068 209.312 114.922 207.232 114.858C204.675 114.784 202.75 113.51 201.941 111.362C200.618 107.813 204.183 102.967 207.04 101.918C207.367 101.797 210.673 101.042 212.101 102.184C212.646 102.62 212.913 103.284 212.814 103.96C212.691 104.807 211.893 105.396 211.041 105.273C210.614 105.212 210.252 104.985 210.012 104.668C209.437 104.632 208.454 104.727 208.111 104.832C206.485 105.43 204.299 108.738 204.876 110.284C205.23 111.225 206.051 111.723 207.317 111.759C208.62 111.779 209.799 111.214 211.161 110.548C212.405 109.939 213.692 109.308 215.23 109.083C217.446 108.754 220.188 109.823 221.607 111.567C222.707 112.92 222.978 114.539 222.37 116.128C221.563 118.238 219.878 119.663 218.392 120.92L218.187 121.095C216.709 122.356 215.312 123.547 214.033 124.961C213.616 125.422 213.155 126.016 212.666 126.646C211.273 128.441 209.695 130.475 207.734 131.291C207.095 131.553 206.188 131.709 205.214 131.709ZM210.267 120.005C210.059 120.005 209.862 120.025 209.67 120.077C208.331 120.458 203.625 125.992 202.981 127.675C202.908 127.865 202.912 127.964 202.917 127.981C202.927 128.007 203.043 128.145 203.385 128.289C204.379 128.71 205.939 128.665 206.517 128.433C206.467 128.431 206.416 128.426 206.366 128.418C205.51 128.297 204.916 127.511 205.039 126.662C205.358 124.47 207.5 123.093 209.571 121.762C210.498 121.165 211.264 120.65 211.86 120.171C211.668 120.15 211.482 120.125 211.304 120.101C210.917 120.05 210.58 120.005 210.267 120.005ZM209.628 125.467C208.841 126.042 208.208 126.624 208.138 127.105C208.131 127.145 208.124 127.186 208.115 127.225C208.633 126.699 209.147 126.076 209.628 125.467ZM209.716 103.516C209.716 103.517 209.716 103.517 209.716 103.518C209.716 103.517 209.716 103.517 209.716 103.516Z" fill="#FD8934"/>
<g opacity="0.2">
<path opacity="0.2" d="M204.507 112.488C204.626 112.693 204.749 112.865 204.86 113.005C205.426 113.192 205.938 113.51 206.322 113.936C207.073 113.983 207.75 114.312 208.28 114.805C209.9 114.621 211.297 113.939 212.549 113.326C213.623 112.801 214.638 112.304 215.692 112.149C216.812 111.98 218.445 112.619 219.171 113.513C219.691 114.152 219.576 114.683 219.444 115.028C218.942 116.342 217.72 117.41 216.503 118.44C216.585 117.738 216.511 116.973 216.231 116.134C216.01 115.478 215.353 114.99 214.652 115.036C214.202 115.055 213.404 115.266 213.11 116.466C213.106 116.483 213.102 116.501 213.098 116.52C213.046 116.599 212.994 116.685 212.94 116.775C212.88 116.874 212.794 117.016 212.719 117.123C212.419 117.121 212.089 117.077 211.722 117.028C211.07 116.941 210.284 116.839 209.421 116.968C209.571 118.081 209.144 119.24 207.842 119.953C204.532 121.765 201.697 125.147 201.715 128.557C202.078 128.586 202.453 128.672 202.833 128.831C205.919 130.121 207.339 129.32 209.348 126.96C211.397 124.551 213.206 122.381 215.927 120.659C218.107 119.278 221.364 117.709 220.796 114.621C220.317 112.016 217.586 110.712 215.166 110.678C214.18 110.664 213.428 110.296 212.904 109.745C212.302 109.99 211.727 110.269 211.162 110.545C209.8 111.212 208.621 111.777 207.318 111.757C206.052 111.721 205.231 111.222 204.877 110.282C204.3 108.736 206.486 105.427 208.112 104.83C208.455 104.724 209.438 104.629 210.013 104.666C210.253 104.983 210.615 105.21 211.042 105.271C211.894 105.393 212.692 104.806 212.815 103.958C212.831 103.848 212.822 103.741 212.82 103.633C209.832 103.659 206.285 103.01 204.557 105.577C203.504 107.14 203.122 109.173 203.741 110.975C203.921 111.503 204.227 112.006 204.507 112.488ZM208.115 127.225C208.124 127.186 208.131 127.145 208.138 127.105C208.207 126.624 208.841 126.043 209.628 125.468C209.147 126.076 208.632 126.699 208.115 127.225ZM209.57 121.762C207.499 123.093 205.358 124.47 205.039 126.663C204.916 127.51 205.51 128.297 206.366 128.418C206.416 128.426 206.467 128.43 206.517 128.433C205.939 128.665 204.379 128.71 203.385 128.29C203.043 128.145 202.927 128.007 202.917 127.981C202.912 127.964 202.908 127.865 202.981 127.675C203.626 125.992 208.331 120.458 209.67 120.077C209.863 120.025 210.059 120.005 210.267 120.005C210.58 120.005 210.917 120.05 211.303 120.101C211.482 120.125 211.668 120.15 211.86 120.171C211.264 120.65 210.498 121.165 209.57 121.762Z" fill="#B52C14"/>
</g>
<path d="M227.918 125.974C226.469 125.974 225.123 125.519 224.125 124.621C222.495 123.153 222.146 120.829 223.193 118.403C223.881 116.809 226.649 112.176 229.478 111.36C230.106 111.178 230.727 111.089 231.274 111.01C232.862 110.783 233.231 110.647 233.528 109.727C233.912 108.529 233.286 107.404 232.21 105.694C231.116 103.955 229.617 101.574 231.316 99.1509C231.81 98.448 232.785 98.2741 233.494 98.7617C234.204 99.2507 234.38 100.217 233.887 100.92C233.436 101.563 233.721 102.232 234.867 104.054C235.978 105.82 237.361 108.018 236.51 110.67C235.588 113.526 233.262 113.859 231.722 114.081C231.234 114.15 230.773 114.216 230.355 114.337C229.219 114.666 226.906 117.689 226.071 119.623C225.774 120.312 225.399 121.579 226.23 122.327C226.922 122.951 228.46 123.196 230.199 122.255C230.956 121.845 231.908 122.121 232.323 122.874C232.737 123.625 232.457 124.567 231.699 124.977C230.465 125.644 229.154 125.974 227.918 125.974Z" fill="#FD8934"/>
<g opacity="0.2">
<path opacity="0.2" d="M232.197 98.5451C231.003 102.142 235.137 104.45 235.208 108.163C235.275 111.682 230.51 112.949 228.329 114.692C226.84 115.881 222.526 122.37 224.506 124.24C225.857 125.515 231.152 124.879 232.47 123.756C232.482 123.745 232.495 123.737 232.507 123.727C232.528 123.44 232.472 123.144 232.323 122.873C231.908 122.12 230.956 121.844 230.199 122.255C228.46 123.196 226.922 122.95 226.23 122.326C225.399 121.579 225.774 120.312 226.071 119.623C226.905 117.689 229.219 114.665 230.355 114.337C230.773 114.216 231.234 114.15 231.722 114.08C233.262 113.859 235.588 113.526 236.51 110.669C237.361 108.018 235.978 105.82 234.867 104.054C233.721 102.232 233.436 101.563 233.887 100.919C234.38 100.216 234.204 99.2498 233.494 98.7613C233.101 98.4908 232.627 98.4308 232.197 98.5451Z" fill="#B52C14"/>
</g>
<path d="M250.552 115.695C249.775 113.376 248.893 109.344 246.47 108.03C244.379 106.889 242.238 108.259 240.716 109.617C236.621 113.27 233.285 118.152 233.598 123.888C233.667 125.104 234.862 129.78 236.158 130.289C237.88 130.965 239.332 131.312 240.723 130.704C243.966 129.29 247.446 128.403 250.828 127.163C252.174 126.667 254.966 125.984 255.743 124.645C256.662 123.07 251.253 117.785 250.552 115.695ZM250.721 123.442C249.494 125.432 245.456 127.367 243.252 127.845C242.469 128.019 241.424 128.131 240.616 128.112C240.481 128.112 239.241 127.826 239.178 127.982C239.187 127.963 239.199 127.92 239.182 127.907C238.268 127.138 237.83 126.164 237.667 124.955C237.141 121.135 238.437 112.142 242.945 111.063C245.286 110.504 247.04 117.531 248.223 119.386C248.899 120.44 251.798 121.699 250.721 123.442Z" fill="#C71600"/>
<path d="M248.673 115.695C247.897 113.376 247.014 109.344 244.591 108.03C242.5 106.889 240.359 108.259 238.838 109.617C234.743 113.27 231.406 118.152 231.719 123.888C231.788 125.104 232.984 129.78 234.28 130.289C236.001 130.965 237.454 131.312 238.844 130.704C242.087 129.29 245.568 128.403 248.949 127.163C250.295 126.667 253.088 125.984 253.864 124.645C254.784 123.07 249.375 117.785 248.673 115.695ZM248.843 123.442C247.615 125.432 243.577 127.367 241.373 127.845C240.591 128.019 239.545 128.131 238.738 128.112C238.602 128.112 237.362 127.826 237.299 127.982C237.308 127.963 237.321 127.92 237.304 127.907C236.389 127.138 235.951 126.164 235.789 124.955C235.262 121.135 236.559 112.142 241.066 111.063C243.408 110.504 245.161 117.531 246.344 119.386C247.021 120.44 249.919 121.699 248.843 123.442Z" fill="#EC1A00"/>
<path d="M183.724 107.676C183.261 104.184 182.66 91.8798 189.765 96.3143C190.536 96.7918 191.293 97.313 191.969 97.9144C192.914 98.7577 193.472 99.9055 194.311 100.83C195.87 102.547 197.855 104.098 199.05 106.176C200.797 109.208 201.285 113.482 201.217 116.942C201.192 118.17 201.141 119.547 200.822 120.75C198.381 130.059 189.578 124.093 185.934 119.262C184.294 117.091 183.298 113.686 183.242 110.988C183.216 109.859 183.874 108.811 183.724 107.676Z" fill="#FF0400"/>
<path d="M187.38 114.883C185.878 111.751 186.823 106.876 186.936 103.471C186.967 102.572 186.942 100.364 188.056 100.252C189.403 100.116 190.223 101.766 190.961 102.603C192.733 104.607 196.721 108.017 195.588 110.988C194.95 112.644 190.955 114.945 189.258 115.392C189.014 115.454 187.687 115.782 187.436 115.615C187.136 115.404 187.725 115.59 187.38 114.883Z" fill="#FF5117"/>
<path d="M189.891 118.3C189.765 118.412 196.089 114.095 196.921 115.199C197.26 115.652 197.203 116.83 197.26 117.345C197.485 119.528 197.266 122.04 194.429 122.251C193.008 122.356 191.343 120.49 190.435 119.584C190.104 119.255 190.235 117.99 189.891 118.3Z" fill="#FF5117"/>
<path d="M178.966 128.564C172.868 126.58 172.404 119.478 174.026 114.015C174.508 112.39 175.553 110.963 176.011 109.307C176.43 107.807 175.704 106.07 176.205 104.668C176.743 103.161 178.503 100.73 180.393 101.567C183.774 103.074 182.371 108.725 184.694 111.038C187.574 113.903 191.881 114.995 194.549 118.083C195.926 119.671 197.767 125.631 196.558 127.702C195.951 128.751 193.303 130.233 192.232 130.624C188.463 132.012 182.678 129.767 178.966 128.564Z" fill="#9C3F08"/>
<path opacity="0.3" d="M188.282 122.637C185.928 121.627 184.163 119.433 184.165 116.824C184.166 115.892 184.384 114.94 184.683 114.059C184.789 113.746 184.899 113.414 185.029 113.101C184.91 112.541 184.937 111.951 185.085 111.4C184.954 111.281 184.822 111.163 184.696 111.037C182.373 108.724 183.775 103.074 180.395 101.567C179.864 101.332 179.344 101.361 178.858 101.549C178.859 101.595 178.865 101.64 178.865 101.688C178.886 105.254 182.029 108.031 181.886 111.739C181.825 113.354 181.142 114.847 179.986 115.984C179.092 116.863 177.332 117.403 176.67 118.424C175.901 119.609 174.507 120.059 173.245 119.877C173.378 123.707 174.938 127.253 178.967 128.565C182.679 129.768 188.464 132.013 192.233 130.624C193.304 130.233 195.952 128.751 196.56 127.703C197.256 126.51 196.939 124.03 196.283 121.836C193.874 123.273 190.896 123.759 188.282 122.637Z" fill="#4A0E3A"/>
<path opacity="0.3" d="M174.916 117.199C174.963 115.229 174.83 113.834 175.881 112.248C175.982 112.369 175.971 112.441 176.069 112.576C177.781 110.949 176.415 107.282 178.455 106.285C178.434 107.029 178.183 110.873 179.533 109.578C179.474 110.466 180.922 114.439 178.275 112.608C177.89 113.295 177.554 116.653 176.636 114.511C175.648 115.372 175.953 117.372 175.1 117.818C175.069 117.514 175.058 117.191 174.916 117.199Z" fill="white"/>
<g opacity="0.3">
<path opacity="0.3" d="M189.028 120.217C188.976 120.204 188.911 120.201 188.843 120.202C188.85 120.206 188.86 120.213 188.867 120.217H189.028Z" fill="white"/>
<path opacity="0.3" d="M188.843 120.202C188.755 120.149 188.651 120.083 188.541 120.007C188.515 120.087 188.511 120.153 188.443 120.229C188.556 120.22 188.708 120.202 188.843 120.202Z" fill="white"/>
<path opacity="0.3" d="M192.768 118.629C191.91 117.768 191.582 118.32 190.866 118.003C189.615 117.45 189.631 117.072 189.204 115.77C187.413 116.497 187.474 114.346 185.99 114.663C186.191 115.267 186.476 115.871 186.743 116.465C185.569 117.566 187.469 119.277 188.541 120.007C188.549 119.982 188.559 119.955 188.575 119.927C189.553 119.841 190.049 120.808 190.928 120.991C190.872 120.293 190.563 119.933 190.78 119.265C192.21 121.338 194.875 120.742 192.768 118.629Z" fill="white"/>
</g>
<path d="M166.387 114.045C164.747 109.685 163.432 104.215 158.718 102.007C152.983 99.3154 150.059 107.372 150.629 111.788C150.867 113.618 152.238 115.063 152.658 116.83C153.033 118.405 153.972 118.381 155.049 119.342C157.629 121.637 160.784 124.142 164.09 125.302C165.449 125.779 169.005 126.102 169.005 123.919C169.011 120.483 167.571 117.214 166.387 114.045Z" fill="#9C3F08"/>
<path opacity="0.3" d="M152.409 109.34C152.662 108.409 153.403 106.048 153.627 105.718C154.307 104.713 155.383 103.187 156.766 103.887C156.697 104.077 156.722 104.27 156.618 104.494C157.082 104.966 157.763 104.759 158.378 104.964C157.903 106.653 156.578 106.515 155.187 107.033C153.765 107.562 153.629 109.167 152.329 109.716C152.312 109.723 152.345 109.578 152.409 109.34Z" fill="white"/>
<path opacity="0.3" d="M166.387 114.045C164.796 109.816 163.502 104.551 159.123 102.224C160.072 103.706 160.456 105.52 159.904 107.294C158.617 111.438 154.149 112.438 150.58 111.26C150.592 111.44 150.607 111.617 150.629 111.788C150.867 113.617 152.238 115.062 152.658 116.83C153.033 118.405 153.972 118.38 155.049 119.341C157.629 121.636 160.784 124.142 164.09 125.301C165.448 125.779 169.005 126.102 169.005 123.918C169.011 120.483 167.571 117.214 166.387 114.045Z" fill="#4A0E3A"/>
<path d="M171.152 113.121C170.263 113.003 169.086 110.485 168.78 109.884C167.628 107.614 167.021 104.637 167.953 102.2C169.531 98.0693 171.622 102.311 173.388 100.569C175.692 98.2987 174.778 95.6259 175.948 93.0457C176.844 91.0797 178.972 87.929 181.051 87.0173C182.898 86.2172 185.064 87.9846 186.898 87.0481C189.559 85.6899 188.808 83.8294 190.273 81.7395C190.661 81.1874 191.826 80.3997 192.477 81.0943C193.128 81.7827 192.934 83.2279 193.021 84.065C193.372 87.4762 190.999 91.4826 187.412 92.4376C184.4 93.2315 181.983 90.5025 179.629 94.5399C178.834 95.9043 179.842 97.3058 179.348 98.6827C178.916 99.8922 176.968 102.41 175.929 103.185C174.201 104.463 171.966 102.67 171.108 105.064C170.257 107.433 173.205 108.829 173.324 111.018C173.393 112.278 172.843 113.338 171.152 113.121Z" fill="#FD8934"/>
<path d="M171.152 113.121C170.263 113.003 169.086 110.485 168.78 109.884C167.628 107.614 167.021 104.637 167.953 102.2C169.531 98.0693 171.622 102.311 173.388 100.569C175.692 98.2987 174.778 95.6259 175.948 93.0457C176.844 91.0797 178.972 87.929 181.051 87.0173C182.898 86.2172 185.064 87.9846 186.898 87.0481C189.559 85.6899 188.808 83.8294 190.273 81.7395C190.661 81.1874 191.826 80.3997 192.477 81.0943C193.128 81.7827 192.934 83.2279 193.021 84.065C193.372 87.4762 190.999 91.4826 187.412 92.4376C184.4 93.2315 181.983 90.5025 179.629 94.5399C178.834 95.9043 179.842 97.3058 179.348 98.6827C178.916 99.8922 176.968 102.41 175.929 103.185C174.201 104.463 171.966 102.67 171.108 105.064C170.257 107.433 173.205 108.829 173.324 111.018C173.393 112.278 172.843 113.338 171.152 113.121Z" fill="#FD8934"/>
<path opacity="0.2" d="M193.021 84.0652C192.933 83.228 193.127 81.7828 192.476 81.0944C192.172 80.7701 191.756 80.7754 191.359 80.9228C191.24 84.2809 190.267 88.1025 187.457 89.7829C184.918 91.3014 182.98 90.105 180.335 90.1712C177.5 90.2418 178.438 93.5038 178.214 95.4795C177.958 97.7534 177.249 100.312 175.136 101.578C173.524 102.545 171.91 102.277 170.186 102.076C169.235 105.265 169.621 108.18 169.808 111.574C169.812 111.645 169.809 111.712 169.808 111.781C170.238 112.461 170.727 113.065 171.151 113.121C172.842 113.338 173.393 112.278 173.324 111.019C173.205 108.83 170.256 107.434 171.108 105.065C171.966 102.671 174.201 104.464 175.929 103.186C176.968 102.411 178.915 99.8928 179.347 98.6836C179.842 97.3068 178.834 95.9053 179.629 94.5408C181.983 90.5035 184.399 93.2324 187.411 92.4386C190.999 91.4827 193.372 87.4763 193.021 84.0652Z" fill="#B52C14"/>
<path d="M207.521 74.3157C207.477 74.0863 207.621 74.2848 207.496 73.9062C207.089 72.6936 206.695 71.5859 207.365 70.3499C208.604 68.064 211.791 66.9613 214.014 65.9913C214.721 65.6829 215.604 65.1785 216.017 64.5077C216.142 64.3087 216.581 62.6349 217.044 63.0457C217.927 63.8286 216.868 66.6709 216.556 67.482C216.105 68.6717 214.803 70.8764 213.551 71.3962C212.574 71.8017 211.153 71.8432 210.433 72.7205C209.9 73.3665 210.138 75.1096 209.381 75.4693C208.617 75.8289 207.615 74.787 207.521 74.3157Z" fill="#F0E29A"/>
<path d="M202.318 103.748C201.783 103.748 201.207 103.627 200.566 103.325C197.962 102.106 196.765 99.3177 195.709 96.8571C195.522 96.4211 195.34 95.9966 195.155 95.5968C195.155 95.5963 195.155 95.5959 195.155 95.5959C195.047 95.3624 194.843 94.5492 195.133 93.9945C195.275 93.7231 195.515 93.543 195.806 93.4874C196.809 93.3149 197.642 94.5183 199.177 97.1183C199.514 97.6889 199.933 98.3994 200.079 98.5441C200.709 99.1681 201.82 99.2038 202.996 99.2422C204.331 99.2859 205.845 99.3349 206.941 100.313C207.203 100.544 207.325 100.861 207.275 101.181C207.169 101.852 206.392 102.248 205.605 102.596C205.548 102.621 205.504 102.64 205.478 102.653L205.175 102.81C204.252 103.287 203.362 103.748 202.318 103.748ZM196.569 95.4851C196.691 95.7622 196.814 96.0478 196.939 96.339C197.902 98.5821 198.993 101.125 201.139 102.128C202.43 102.737 203.23 102.322 204.556 101.636L204.866 101.475C204.908 101.454 204.975 101.424 205.061 101.386C205.369 101.25 205.58 101.144 205.723 101.061C204.997 100.632 204 100.599 202.953 100.565C201.569 100.52 200.138 100.474 199.135 99.4801C198.88 99.2272 198.563 98.6986 198.024 97.786C197.672 97.1894 197.071 96.1726 196.569 95.4851ZM206.048 101.297C206.048 101.298 206.049 101.298 206.05 101.298C206.049 101.298 206.049 101.298 206.048 101.297Z" fill="#DD3D25"/>
<path d="M240.065 77.8508C239.558 77.1192 238.938 76.4493 238.6 75.6307C237.823 73.7266 237.749 70.98 238.587 69.0286C238.901 68.3067 240.96 64.6462 241.824 65.7905C242.675 66.9197 240.998 68.8605 241.18 70.2042C241.499 72.5536 244.266 73.6021 244.216 76.1078C244.21 76.4612 244.16 77.7388 243.941 77.9996C243.133 78.9792 240.666 78.725 240.065 77.8508Z" fill="#F0E29A"/>
<path d="M209.392 130.057C208.884 129.326 208.265 128.656 207.926 127.837C207.15 125.933 207.075 123.186 207.914 121.235C208.227 120.513 210.287 116.853 211.151 117.997C212.002 119.126 210.324 121.067 210.506 122.411C210.825 124.76 213.592 125.809 213.542 128.314C213.536 128.668 213.486 129.945 213.266 130.206C212.46 131.186 209.993 130.931 209.392 130.057Z" fill="#F0E29A"/>
<path d="M247.602 69.2784C246.626 70.8357 245.977 72.5518 246.456 74.441C247.047 76.7754 249.406 78.1045 250.802 79.9531C253.945 84.1144 250.095 88.9522 250.327 93.2376C250.433 95.1567 252.783 96.2273 254.334 95.4961C255.879 94.7684 256.915 92.937 257.577 91.4583C258.963 88.3622 258.829 85.1558 257.489 82.0982C255.778 78.1928 252.079 75.8959 249.728 72.4058C248.543 70.6477 248.699 69.2316 248.971 67.3645C248.497 67.9744 248.019 68.612 247.602 69.2784Z" fill="#2EA100"/>
<path opacity="0.15" d="M250.802 79.9531C253.945 84.1149 250.095 88.9522 250.327 93.2376C250.383 94.2516 251.068 95.0248 251.928 95.4246C254.841 92.1185 255.535 85.4625 254.352 82.0819C253.09 78.4752 249.502 76.7595 247.776 73.4882C247.218 72.4309 246.988 71.4319 246.953 70.4584C246.376 71.6918 246.095 73.017 246.456 74.4405C247.047 76.7754 249.406 78.1045 250.802 79.9531Z" fill="#4A0E3A"/>
<path d="M264.877 99.8305C263.887 99.7996 263.067 98.038 262.641 97.9017C261.026 97.3809 259.085 97.8893 257.777 98.9749C255.692 100.693 255.661 102.863 255.078 105.189C253.507 111.472 256.155 122.009 264.238 122.592C265.947 122.716 267.067 121.792 268.514 121.11C272.058 119.441 274.793 115.919 273.604 111.863C272.802 109.134 270.191 106.914 269.021 104.284C268.646 103.44 266.154 99.8676 264.877 99.8305Z" fill="#9A4201"/>
<path opacity="0.3" d="M273.604 111.862C272.802 109.133 270.192 106.913 269.021 104.284C268.645 103.44 266.153 99.8677 264.876 99.8306C263.887 99.7997 263.067 98.0381 262.641 97.9018C261.823 97.6379 260.922 97.6401 260.061 97.8453C260.244 97.8016 260.271 99.546 260.332 99.6435C260.79 100.384 261.539 100.495 262.315 100.824C263.093 101.154 264.859 102.113 263.849 103.231C263.014 104.154 259.249 102.523 260.842 105.416C259.758 105.796 259.101 106.617 258.541 107.58C258.209 108.15 258.026 108.838 257.699 109.414C257.418 109.909 255.062 112.898 255.132 113.203C256.217 117.914 259.15 122.225 264.237 122.592C265.946 122.716 267.067 121.792 268.513 121.11C272.058 119.441 274.794 115.919 273.604 111.862ZM268.615 112.586C268.545 112.923 268.336 113.202 267.625 113.459C266.598 113.83 265.497 113.026 264.464 113.563C263.092 114.276 264.131 114.155 263.745 115.384C263.334 116.694 261.182 118.554 259.6 118.016C259.162 117.867 257.704 116.127 257.654 115.741C257.373 113.629 261.908 113.157 261.504 110.558C259.647 110.508 260.61 108.386 261.255 107.537C262.313 106.144 264.305 105.425 266.004 105.223C267.755 105.015 268.779 106.649 269.296 108.035C269.883 109.611 269.346 109.868 268.815 111.247C268.606 111.791 268.692 112.222 268.615 112.586Z" fill="#4A0E3A"/>
<path d="M192.307 127.366C191.039 128.075 189.316 127.875 188.162 127.025C186.776 126.005 186.573 124.056 186.088 122.54C185.237 119.887 183.62 117.726 181.15 116.345C176.947 113.997 168.851 115.155 168.517 120.909C168.496 121.26 168.833 121.452 169.134 121.28C171.791 119.758 174.489 117.701 177.778 118.666C181.071 119.632 182.082 122.329 182.875 125.305C184.32 130.724 189.618 133.51 194.755 130.672C197.07 129.393 194.606 126.081 192.307 127.366Z" fill="#F0D960"/>
<path d="M164.361 110.518C160 102.83 160.862 95.7539 168.186 89.9612C171.611 87.2525 175.054 90.5366 174.284 95.0042C174.081 96.1868 172.171 96.7234 171.835 98.1629C171.579 99.2604 172.562 100.969 172.672 102.162C172.861 104.227 172.389 114.869 169.87 115.743C167.838 116.449 165.477 112.409 164.638 110.996C164.544 110.837 164.451 110.678 164.361 110.518Z" fill="#2EA100"/>
<path opacity="0.15" d="M167.106 100.007C166.854 105.338 168.152 110.679 169.608 115.797C169.696 115.784 169.784 115.774 169.87 115.744C172.389 114.869 172.862 104.227 172.672 102.162C172.563 100.969 171.579 99.2603 171.836 98.1633C172.172 96.7238 174.081 96.1872 174.285 95.0045C174.635 92.9733 174.108 91.1945 173.114 90.1045C170.472 93.0655 167.302 95.8399 167.106 100.007Z" fill="#4A0E3A"/>
<path d="M181.006 81.5781C176.402 78.7451 170.064 81.8332 167.378 85.9221C165.79 88.3399 165.578 90.7145 165.389 93.5083C165.308 94.6936 165.25 96.1353 164.004 96.6944C162.703 97.2782 161.788 96.4525 160.672 95.9234C159.186 95.2196 157.134 96.9274 157.947 98.5028C159.249 101.028 162.433 101.788 165.074 100.969C168.348 99.9542 169.599 97.0712 169.684 93.8869C169.78 90.3301 170.303 86.855 173.707 84.8856C175.365 83.9262 177.2 83.7311 179.081 83.6416C179.728 83.6107 181.328 83.7867 181.417 82.7334C181.42 82.7007 181.423 82.6677 181.426 82.635C181.457 82.2626 181.358 81.7943 181.006 81.5781Z" fill="#F0D960"/>
<path d="M206.601 134.071L204.297 207.441L204.003 216.979L203.79 223.665L203.49 233.216L202.87 253L148.576 221.842L145.22 204.613L143.129 193.902V193.895L141.67 186.391L139.579 175.674L125.499 103.39L206.601 134.071Z" fill="#F61D00"/>
<path d="M203.79 223.665L203.49 233.216L145.22 204.613L143.129 193.902L203.79 223.665Z" fill="#F08C2E"/>
<path d="M204.297 207.441L204.003 216.979L141.67 186.391L139.579 175.674L204.297 207.441Z" fill="#F08C2E"/>
<path opacity="0.15" d="M125.498 103.39L134.743 150.84L181.771 174.427L206.601 134.072L125.498 103.39Z" fill="#4A0E3A"/>
<path d="M293.676 109.077L280.429 176.158L278.407 186.391L276.885 194.094L274.863 204.333L270.906 224.378L202.87 253L203.477 233.675V233.669L203.778 224.149L204.003 216.979L204.297 207.453L206.601 134.071L293.676 109.077Z" fill="#BC1103"/>
<path d="M276.885 194.094L274.863 204.333L203.477 233.669L203.778 224.149L276.885 194.094Z" fill="#E36E2B"/>
<path d="M280.429 176.158L278.406 186.391L204.003 216.979L204.297 207.453L280.429 176.158Z" fill="#E36E2B"/>
<path opacity="0.15" d="M293.676 109.078L206.601 134.072L228.684 174.927L283.978 158.188L293.676 109.078Z" fill="#4A0E3A"/>
<path d="M171.108 161.525L206.601 134.072L125.498 103.391L94 126.95L171.108 161.525Z" fill="#ECE8CC"/>
<path d="M235.036 166.966L206.601 134.072L293.676 109.078L323.933 140.348L235.036 166.966Z" fill="#ECE8CC"/>
<path opacity="0.3" d="M206.561 136.45C206.561 136.45 205.235 181.093 203.061 248.018L202.935 248.014C202.524 219.359 204.084 166.741 206.436 136.446L206.561 136.45Z" fill="white"/>
<path d="M160.412 98.4069C159.996 96.1316 157.652 95.1952 155.493 95.5178C152.698 95.9357 149.736 98.2555 147.796 100.18C145.791 102.168 144.335 104.912 144.586 107.797C144.707 109.187 145.243 110.432 145.903 111.643C146.151 112.096 148.295 115.806 146.995 115.51C143.777 114.779 143.136 119.647 146.225 120.469C148.372 121.039 150.749 119.813 151.755 117.889C153.061 115.392 152.027 112.682 150.705 110.444C149.989 109.232 149.08 108.061 149.122 106.587C149.16 105.25 149.962 103.997 150.815 103.02C152.457 101.138 155.87 97.8685 158.387 99.5101C159.204 100.042 160.622 99.5498 160.412 98.4069Z" fill="#F0D960"/>
<path d="M226.271 127.775C224.375 127.976 222.083 129.022 220.422 127.501C218.554 125.789 220.52 124.71 221.75 123.675C221.87 123.574 221.934 123.415 221.873 123.263C221.35 121.97 219.973 121.943 218.826 122.484C217.214 123.245 216.414 125.031 216.646 126.75C216.914 128.736 218.503 130.304 220.343 130.962C221.301 131.305 222.298 131.417 223.313 131.377C224.194 131.342 227.221 130.261 227.871 130.818C228.748 131.569 226.066 131.453 225.674 131.498C224.725 131.606 223.774 131.853 222.918 132.274C221.213 133.111 219.756 134.69 219.4 136.581C218.77 139.934 222.601 144.921 225.876 141.752C226.403 141.243 226.228 140.132 225.64 139.747C224.728 139.15 223.234 138.794 223.187 137.478C223.13 135.866 225.368 134.987 226.619 134.724C228.664 134.294 231.404 134.04 231.385 131.289C231.367 128.662 228.52 127.538 226.271 127.775Z" fill="#F0D960"/>
</g>
<defs>
<filter id="filter0_d_3119_4004" x="0" y="51" width="478" height="506" filterUnits="userSpaceOnUse" color-interpolation-filters="sRGB">
<feFlood flood-opacity="0" result="BackgroundImageFix"/>
<feColorMatrix in="SourceAlpha" type="matrix" values="0 0 0 0 0 0 0 0 0 0 0 0 0 0 0 0 0 0 127 0" result="hardAlpha"/>
<feOffset dx="20" dy="30"/>
<feGaussianBlur stdDeviation="35"/>
<feComposite in2="hardAlpha" operator="out"/>
<feColorMatrix type="matrix" values="0 0 0 0 0.4125 0 0 0 0 0.297344 0 0 0 0 0.297344 0 0 0 0.07 0"/>
<feBlend mode="normal" in2="BackgroundImageFix" result="effect1_dropShadow_3119_4004"/>
<feBlend mode="normal" in="SourceGraphic" in2="effect1_dropShadow_3119_4004" result="shape"/>
</filter>
<linearGradient id="paint0_linear_3119_4004" x1="219" y1="91" x2="219" y2="457" gradientUnits="userSpaceOnUse">
<stop offset="0.27337" stop-color="#FFCF03" stop-opacity="0"/>
<stop offset="1" stop-color="#FFCF03"/>
</linearGradient>
<linearGradient id="paint1_linear_3119_4004" x1="219.5" y1="342" x2="251.296" y2="382.807" gradientUnits="userSpaceOnUse">
<stop stop-color="#FF5331"/>
<stop offset="1" stop-color="#E35336"/>
</linearGradient>
<clipPath id="clip0_3119_4004">
<rect width="249" height="253" fill="white" transform="translate(94)"/>
</clipPath>
</defs>
</svg>
